<?xml version="1.0" encoding="utf-8" standalone="no"?>
<!DOCTYPE svg PUBLIC "-//W3C//DTD SVG 1.1//EN"
  "http://www.w3.org/Graphics/SVG/1.1/DTD/svg11.dtd">
<svg xmlns:xlink="http://www.w3.org/1999/xlink" width="856.495625pt" height="421.914419pt" viewBox="0 0 856.495625 421.914419" xmlns="http://www.w3.org/2000/svg" version="1.1">
 <metadata>
  <rdf:RDF xmlns:dc="http://purl.org/dc/elements/1.1/" xmlns:cc="http://creativecommons.org/ns#" xmlns:rdf="http://www.w3.org/1999/02/22-rdf-syntax-ns#">
   <cc:Work>
    <dc:type rdf:resource="http://purl.org/dc/dcmitype/StillImage"/>
    <dc:date>2025-12-05T18:26:54.084025</dc:date>
    <dc:format>image/svg+xml</dc:format>
    <dc:creator>
     <cc:Agent>
      <dc:title>Matplotlib v3.10.5, https://matplotlib.org/</dc:title>
     </cc:Agent>
    </dc:creator>
   </cc:Work>
  </rdf:RDF>
 </metadata>
 <defs>
  <style type="text/css">*{stroke-linejoin: round; stroke-linecap: butt}</style>
 </defs>
 <g id="figure_1">
  <g id="patch_1">
   <path d="M 0 421.914419 
L 856.495625 421.914419 
L 856.495625 0 
L 0 0 
z
" style="fill: #ffffff"/>
  </g>
  <g id="axes_1">
   <g id="patch_2">
    <path d="M 46.965625 346.098873 
L 849.295625 346.098873 
L 849.295625 35.7555 
L 46.965625 35.7555 
z
" style="fill: #ffffff"/>
   </g>
   <g id="matplotlib.axis_1">
    <g id="xtick_1">
     <g id="line2d_1">
      <path d="M 120.522844 346.098873 
L 120.522844 35.7555 
" clip-path="url(#p11fcfe8c43)" style="fill: none; stroke: #b0b0b0; stroke-opacity: 0.3; stroke-width: 0.8; stroke-linecap: square"/>
     </g>
     <g id="line2d_2">
      <defs>
       <path id="m4d25d0b2a4" d="M 0 0 
L 0 3.5 
" style="stroke: #000000; stroke-width: 0.8"/>
      </defs>
      <g>
       <use xlink:href="#m4d25d0b2a4" x="120.522844" y="346.098873" style="stroke: #000000; stroke-width: 0.8"/>
      </g>
     </g>
     <g id="text_1">
      <!-- 2025-08-15 -->
      <g transform="translate(101.92704 399.565733) rotate(-45) scale(0.1 -0.1)">
       <defs>
        <path id="DejaVuSans-32" d="M 1228 531 
L 3431 531 
L 3431 0 
L 469 0 
L 469 531 
Q 828 903 1448 1529 
Q 2069 2156 2228 2338 
Q 2531 2678 2651 2914 
Q 2772 3150 2772 3378 
Q 2772 3750 2511 3984 
Q 2250 4219 1831 4219 
Q 1534 4219 1204 4116 
Q 875 4013 500 3803 
L 500 4441 
Q 881 4594 1212 4672 
Q 1544 4750 1819 4750 
Q 2544 4750 2975 4387 
Q 3406 4025 3406 3419 
Q 3406 3131 3298 2873 
Q 3191 2616 2906 2266 
Q 2828 2175 2409 1742 
Q 1991 1309 1228 531 
z
" transform="scale(0.015625)"/>
        <path id="DejaVuSans-30" d="M 2034 4250 
Q 1547 4250 1301 3770 
Q 1056 3291 1056 2328 
Q 1056 1369 1301 889 
Q 1547 409 2034 409 
Q 2525 409 2770 889 
Q 3016 1369 3016 2328 
Q 3016 3291 2770 3770 
Q 2525 4250 2034 4250 
z
M 2034 4750 
Q 2819 4750 3233 4129 
Q 3647 3509 3647 2328 
Q 3647 1150 3233 529 
Q 2819 -91 2034 -91 
Q 1250 -91 836 529 
Q 422 1150 422 2328 
Q 422 3509 836 4129 
Q 1250 4750 2034 4750 
z
" transform="scale(0.015625)"/>
        <path id="DejaVuSans-35" d="M 691 4666 
L 3169 4666 
L 3169 4134 
L 1269 4134 
L 1269 2991 
Q 1406 3038 1543 3061 
Q 1681 3084 1819 3084 
Q 2600 3084 3056 2656 
Q 3513 2228 3513 1497 
Q 3513 744 3044 326 
Q 2575 -91 1722 -91 
Q 1428 -91 1123 -41 
Q 819 9 494 109 
L 494 744 
Q 775 591 1075 516 
Q 1375 441 1709 441 
Q 2250 441 2565 725 
Q 2881 1009 2881 1497 
Q 2881 1984 2565 2268 
Q 2250 2553 1709 2553 
Q 1456 2553 1204 2497 
Q 953 2441 691 2322 
L 691 4666 
z
" transform="scale(0.015625)"/>
        <path id="DejaVuSans-2d" d="M 313 2009 
L 1997 2009 
L 1997 1497 
L 313 1497 
L 313 2009 
z
" transform="scale(0.015625)"/>
        <path id="DejaVuSans-38" d="M 2034 2216 
Q 1584 2216 1326 1975 
Q 1069 1734 1069 1313 
Q 1069 891 1326 650 
Q 1584 409 2034 409 
Q 2484 409 2743 651 
Q 3003 894 3003 1313 
Q 3003 1734 2745 1975 
Q 2488 2216 2034 2216 
z
M 1403 2484 
Q 997 2584 770 2862 
Q 544 3141 544 3541 
Q 544 4100 942 4425 
Q 1341 4750 2034 4750 
Q 2731 4750 3128 4425 
Q 3525 4100 3525 3541 
Q 3525 3141 3298 2862 
Q 3072 2584 2669 2484 
Q 3125 2378 3379 2068 
Q 3634 1759 3634 1313 
Q 3634 634 3220 271 
Q 2806 -91 2034 -91 
Q 1263 -91 848 271 
Q 434 634 434 1313 
Q 434 1759 690 2068 
Q 947 2378 1403 2484 
z
M 1172 3481 
Q 1172 3119 1398 2916 
Q 1625 2713 2034 2713 
Q 2441 2713 2670 2916 
Q 2900 3119 2900 3481 
Q 2900 3844 2670 4047 
Q 2441 4250 2034 4250 
Q 1625 4250 1398 4047 
Q 1172 3844 1172 3481 
z
" transform="scale(0.015625)"/>
        <path id="DejaVuSans-31" d="M 794 531 
L 1825 531 
L 1825 4091 
L 703 3866 
L 703 4441 
L 1819 4666 
L 2450 4666 
L 2450 531 
L 3481 531 
L 3481 0 
L 794 0 
L 794 531 
z
" transform="scale(0.015625)"/>
       </defs>
       <use xlink:href="#DejaVuSans-32"/>
       <use xlink:href="#DejaVuSans-30" transform="translate(63.623047 0)"/>
       <use xlink:href="#DejaVuSans-32" transform="translate(127.246094 0)"/>
       <use xlink:href="#DejaVuSans-35" transform="translate(190.869141 0)"/>
       <use xlink:href="#DejaVuSans-2d" transform="translate(254.492188 0)"/>
       <use xlink:href="#DejaVuSans-30" transform="translate(290.576172 0)"/>
       <use xlink:href="#DejaVuSans-38" transform="translate(354.199219 0)"/>
       <use xlink:href="#DejaVuSans-2d" transform="translate(417.822266 0)"/>
       <use xlink:href="#DejaVuSans-31" transform="translate(453.90625 0)"/>
       <use xlink:href="#DejaVuSans-35" transform="translate(517.529297 0)"/>
      </g>
     </g>
    </g>
    <g id="xtick_2">
     <g id="line2d_3">
      <path d="M 225.604585 346.098873 
L 225.604585 35.7555 
" clip-path="url(#p11fcfe8c43)" style="fill: none; stroke: #b0b0b0; stroke-opacity: 0.3; stroke-width: 0.8; stroke-linecap: square"/>
     </g>
     <g id="line2d_4">
      <g>
       <use xlink:href="#m4d25d0b2a4" x="225.604585" y="346.098873" style="stroke: #000000; stroke-width: 0.8"/>
      </g>
     </g>
     <g id="text_2">
      <!-- 2025-09-01 -->
      <g transform="translate(207.008781 399.565733) rotate(-45) scale(0.1 -0.1)">
       <defs>
        <path id="DejaVuSans-39" d="M 703 97 
L 703 672 
Q 941 559 1184 500 
Q 1428 441 1663 441 
Q 2288 441 2617 861 
Q 2947 1281 2994 2138 
Q 2813 1869 2534 1725 
Q 2256 1581 1919 1581 
Q 1219 1581 811 2004 
Q 403 2428 403 3163 
Q 403 3881 828 4315 
Q 1253 4750 1959 4750 
Q 2769 4750 3195 4129 
Q 3622 3509 3622 2328 
Q 3622 1225 3098 567 
Q 2575 -91 1691 -91 
Q 1453 -91 1209 -44 
Q 966 3 703 97 
z
M 1959 2075 
Q 2384 2075 2632 2365 
Q 2881 2656 2881 3163 
Q 2881 3666 2632 3958 
Q 2384 4250 1959 4250 
Q 1534 4250 1286 3958 
Q 1038 3666 1038 3163 
Q 1038 2656 1286 2365 
Q 1534 2075 1959 2075 
z
" transform="scale(0.015625)"/>
       </defs>
       <use xlink:href="#DejaVuSans-32"/>
       <use xlink:href="#DejaVuSans-30" transform="translate(63.623047 0)"/>
       <use xlink:href="#DejaVuSans-32" transform="translate(127.246094 0)"/>
       <use xlink:href="#DejaVuSans-35" transform="translate(190.869141 0)"/>
       <use xlink:href="#DejaVuSans-2d" transform="translate(254.492188 0)"/>
       <use xlink:href="#DejaVuSans-30" transform="translate(290.576172 0)"/>
       <use xlink:href="#DejaVuSans-39" transform="translate(354.199219 0)"/>
       <use xlink:href="#DejaVuSans-2d" transform="translate(417.822266 0)"/>
       <use xlink:href="#DejaVuSans-30" transform="translate(453.90625 0)"/>
       <use xlink:href="#DejaVuSans-31" transform="translate(517.529297 0)"/>
      </g>
     </g>
    </g>
    <g id="xtick_3">
     <g id="line2d_5">
      <path d="M 312.142489 346.098873 
L 312.142489 35.7555 
" clip-path="url(#p11fcfe8c43)" style="fill: none; stroke: #b0b0b0; stroke-opacity: 0.3; stroke-width: 0.8; stroke-linecap: square"/>
     </g>
     <g id="line2d_6">
      <g>
       <use xlink:href="#m4d25d0b2a4" x="312.142489" y="346.098873" style="stroke: #000000; stroke-width: 0.8"/>
      </g>
     </g>
     <g id="text_3">
      <!-- 2025-09-15 -->
      <g transform="translate(293.546686 399.565733) rotate(-45) scale(0.1 -0.1)">
       <use xlink:href="#DejaVuSans-32"/>
       <use xlink:href="#DejaVuSans-30" transform="translate(63.623047 0)"/>
       <use xlink:href="#DejaVuSans-32" transform="translate(127.246094 0)"/>
       <use xlink:href="#DejaVuSans-35" transform="translate(190.869141 0)"/>
       <use xlink:href="#DejaVuSans-2d" transform="translate(254.492188 0)"/>
       <use xlink:href="#DejaVuSans-30" transform="translate(290.576172 0)"/>
       <use xlink:href="#DejaVuSans-39" transform="translate(354.199219 0)"/>
       <use xlink:href="#DejaVuSans-2d" transform="translate(417.822266 0)"/>
       <use xlink:href="#DejaVuSans-31" transform="translate(453.90625 0)"/>
       <use xlink:href="#DejaVuSans-35" transform="translate(517.529297 0)"/>
      </g>
     </g>
    </g>
    <g id="xtick_4">
     <g id="line2d_7">
      <path d="M 411.042952 346.098873 
L 411.042952 35.7555 
" clip-path="url(#p11fcfe8c43)" style="fill: none; stroke: #b0b0b0; stroke-opacity: 0.3; stroke-width: 0.8; stroke-linecap: square"/>
     </g>
     <g id="line2d_8">
      <g>
       <use xlink:href="#m4d25d0b2a4" x="411.042952" y="346.098873" style="stroke: #000000; stroke-width: 0.8"/>
      </g>
     </g>
     <g id="text_4">
      <!-- 2025-10-01 -->
      <g transform="translate(392.447148 399.565733) rotate(-45) scale(0.1 -0.1)">
       <use xlink:href="#DejaVuSans-32"/>
       <use xlink:href="#DejaVuSans-30" transform="translate(63.623047 0)"/>
       <use xlink:href="#DejaVuSans-32" transform="translate(127.246094 0)"/>
       <use xlink:href="#DejaVuSans-35" transform="translate(190.869141 0)"/>
       <use xlink:href="#DejaVuSans-2d" transform="translate(254.492188 0)"/>
       <use xlink:href="#DejaVuSans-31" transform="translate(290.576172 0)"/>
       <use xlink:href="#DejaVuSans-30" transform="translate(354.199219 0)"/>
       <use xlink:href="#DejaVuSans-2d" transform="translate(417.822266 0)"/>
       <use xlink:href="#DejaVuSans-30" transform="translate(453.90625 0)"/>
       <use xlink:href="#DejaVuSans-31" transform="translate(517.529297 0)"/>
      </g>
     </g>
    </g>
    <g id="xtick_5">
     <g id="line2d_9">
      <path d="M 497.580856 346.098873 
L 497.580856 35.7555 
" clip-path="url(#p11fcfe8c43)" style="fill: none; stroke: #b0b0b0; stroke-opacity: 0.3; stroke-width: 0.8; stroke-linecap: square"/>
     </g>
     <g id="line2d_10">
      <g>
       <use xlink:href="#m4d25d0b2a4" x="497.580856" y="346.098873" style="stroke: #000000; stroke-width: 0.8"/>
      </g>
     </g>
     <g id="text_5">
      <!-- 2025-10-15 -->
      <g transform="translate(478.985053 399.565733) rotate(-45) scale(0.1 -0.1)">
       <use xlink:href="#DejaVuSans-32"/>
       <use xlink:href="#DejaVuSans-30" transform="translate(63.623047 0)"/>
       <use xlink:href="#DejaVuSans-32" transform="translate(127.246094 0)"/>
       <use xlink:href="#DejaVuSans-35" transform="translate(190.869141 0)"/>
       <use xlink:href="#DejaVuSans-2d" transform="translate(254.492188 0)"/>
       <use xlink:href="#DejaVuSans-31" transform="translate(290.576172 0)"/>
       <use xlink:href="#DejaVuSans-30" transform="translate(354.199219 0)"/>
       <use xlink:href="#DejaVuSans-2d" transform="translate(417.822266 0)"/>
       <use xlink:href="#DejaVuSans-31" transform="translate(453.90625 0)"/>
       <use xlink:href="#DejaVuSans-35" transform="translate(517.529297 0)"/>
      </g>
     </g>
    </g>
    <g id="xtick_6">
     <g id="line2d_11">
      <path d="M 602.662597 346.098873 
L 602.662597 35.7555 
" clip-path="url(#p11fcfe8c43)" style="fill: none; stroke: #b0b0b0; stroke-opacity: 0.3; stroke-width: 0.8; stroke-linecap: square"/>
     </g>
     <g id="line2d_12">
      <g>
       <use xlink:href="#m4d25d0b2a4" x="602.662597" y="346.098873" style="stroke: #000000; stroke-width: 0.8"/>
      </g>
     </g>
     <g id="text_6">
      <!-- 2025-11-01 -->
      <g transform="translate(584.066794 399.565733) rotate(-45) scale(0.1 -0.1)">
       <use xlink:href="#DejaVuSans-32"/>
       <use xlink:href="#DejaVuSans-30" transform="translate(63.623047 0)"/>
       <use xlink:href="#DejaVuSans-32" transform="translate(127.246094 0)"/>
       <use xlink:href="#DejaVuSans-35" transform="translate(190.869141 0)"/>
       <use xlink:href="#DejaVuSans-2d" transform="translate(254.492188 0)"/>
       <use xlink:href="#DejaVuSans-31" transform="translate(290.576172 0)"/>
       <use xlink:href="#DejaVuSans-31" transform="translate(354.199219 0)"/>
       <use xlink:href="#DejaVuSans-2d" transform="translate(417.822266 0)"/>
       <use xlink:href="#DejaVuSans-30" transform="translate(453.90625 0)"/>
       <use xlink:href="#DejaVuSans-31" transform="translate(517.529297 0)"/>
      </g>
     </g>
    </g>
    <g id="xtick_7">
     <g id="line2d_13">
      <path d="M 689.200502 346.098873 
L 689.200502 35.7555 
" clip-path="url(#p11fcfe8c43)" style="fill: none; stroke: #b0b0b0; stroke-opacity: 0.3; stroke-width: 0.8; stroke-linecap: square"/>
     </g>
     <g id="line2d_14">
      <g>
       <use xlink:href="#m4d25d0b2a4" x="689.200502" y="346.098873" style="stroke: #000000; stroke-width: 0.8"/>
      </g>
     </g>
     <g id="text_7">
      <!-- 2025-11-15 -->
      <g transform="translate(670.604698 399.565733) rotate(-45) scale(0.1 -0.1)">
       <use xlink:href="#DejaVuSans-32"/>
       <use xlink:href="#DejaVuSans-30" transform="translate(63.623047 0)"/>
       <use xlink:href="#DejaVuSans-32" transform="translate(127.246094 0)"/>
       <use xlink:href="#DejaVuSans-35" transform="translate(190.869141 0)"/>
       <use xlink:href="#DejaVuSans-2d" transform="translate(254.492188 0)"/>
       <use xlink:href="#DejaVuSans-31" transform="translate(290.576172 0)"/>
       <use xlink:href="#DejaVuSans-31" transform="translate(354.199219 0)"/>
       <use xlink:href="#DejaVuSans-2d" transform="translate(417.822266 0)"/>
       <use xlink:href="#DejaVuSans-31" transform="translate(453.90625 0)"/>
       <use xlink:href="#DejaVuSans-35" transform="translate(517.529297 0)"/>
      </g>
     </g>
    </g>
    <g id="xtick_8">
     <g id="line2d_15">
      <path d="M 788.100964 346.098873 
L 788.100964 35.7555 
" clip-path="url(#p11fcfe8c43)" style="fill: none; stroke: #b0b0b0; stroke-opacity: 0.3; stroke-width: 0.8; stroke-linecap: square"/>
     </g>
     <g id="line2d_16">
      <g>
       <use xlink:href="#m4d25d0b2a4" x="788.100964" y="346.098873" style="stroke: #000000; stroke-width: 0.8"/>
      </g>
     </g>
     <g id="text_8">
      <!-- 2025-12-01 -->
      <g transform="translate(769.50516 399.565733) rotate(-45) scale(0.1 -0.1)">
       <use xlink:href="#DejaVuSans-32"/>
       <use xlink:href="#DejaVuSans-30" transform="translate(63.623047 0)"/>
       <use xlink:href="#DejaVuSans-32" transform="translate(127.246094 0)"/>
       <use xlink:href="#DejaVuSans-35" transform="translate(190.869141 0)"/>
       <use xlink:href="#DejaVuSans-2d" transform="translate(254.492188 0)"/>
       <use xlink:href="#DejaVuSans-31" transform="translate(290.576172 0)"/>
       <use xlink:href="#DejaVuSans-32" transform="translate(354.199219 0)"/>
       <use xlink:href="#DejaVuSans-2d" transform="translate(417.822266 0)"/>
       <use xlink:href="#DejaVuSans-30" transform="translate(453.90625 0)"/>
       <use xlink:href="#DejaVuSans-31" transform="translate(517.529297 0)"/>
      </g>
     </g>
    </g>
    <g id="text_9">
     <!-- Date -->
     <g transform="translate(436.179844 412.634731) scale(0.1 -0.1)">
      <defs>
       <path id="DejaVuSans-44" d="M 1259 4147 
L 1259 519 
L 2022 519 
Q 2988 519 3436 956 
Q 3884 1394 3884 2338 
Q 3884 3275 3436 3711 
Q 2988 4147 2022 4147 
L 1259 4147 
z
M 628 4666 
L 1925 4666 
Q 3281 4666 3915 4102 
Q 4550 3538 4550 2338 
Q 4550 1131 3912 565 
Q 3275 0 1925 0 
L 628 0 
L 628 4666 
z
" transform="scale(0.015625)"/>
       <path id="DejaVuSans-61" d="M 2194 1759 
Q 1497 1759 1228 1600 
Q 959 1441 959 1056 
Q 959 750 1161 570 
Q 1363 391 1709 391 
Q 2188 391 2477 730 
Q 2766 1069 2766 1631 
L 2766 1759 
L 2194 1759 
z
M 3341 1997 
L 3341 0 
L 2766 0 
L 2766 531 
Q 2569 213 2275 61 
Q 1981 -91 1556 -91 
Q 1019 -91 701 211 
Q 384 513 384 1019 
Q 384 1609 779 1909 
Q 1175 2209 1959 2209 
L 2766 2209 
L 2766 2266 
Q 2766 2663 2505 2880 
Q 2244 3097 1772 3097 
Q 1472 3097 1187 3025 
Q 903 2953 641 2809 
L 641 3341 
Q 956 3463 1253 3523 
Q 1550 3584 1831 3584 
Q 2591 3584 2966 3190 
Q 3341 2797 3341 1997 
z
" transform="scale(0.015625)"/>
       <path id="DejaVuSans-74" d="M 1172 4494 
L 1172 3500 
L 2356 3500 
L 2356 3053 
L 1172 3053 
L 1172 1153 
Q 1172 725 1289 603 
Q 1406 481 1766 481 
L 2356 481 
L 2356 0 
L 1766 0 
Q 1100 0 847 248 
Q 594 497 594 1153 
L 594 3053 
L 172 3053 
L 172 3500 
L 594 3500 
L 594 4494 
L 1172 4494 
z
" transform="scale(0.015625)"/>
       <path id="DejaVuSans-65" d="M 3597 1894 
L 3597 1613 
L 953 1613 
Q 991 1019 1311 708 
Q 1631 397 2203 397 
Q 2534 397 2845 478 
Q 3156 559 3463 722 
L 3463 178 
Q 3153 47 2828 -22 
Q 2503 -91 2169 -91 
Q 1331 -91 842 396 
Q 353 884 353 1716 
Q 353 2575 817 3079 
Q 1281 3584 2069 3584 
Q 2775 3584 3186 3129 
Q 3597 2675 3597 1894 
z
M 3022 2063 
Q 3016 2534 2758 2815 
Q 2500 3097 2075 3097 
Q 1594 3097 1305 2825 
Q 1016 2553 972 2059 
L 3022 2063 
z
" transform="scale(0.015625)"/>
      </defs>
      <use xlink:href="#DejaVuSans-44"/>
      <use xlink:href="#DejaVuSans-61" transform="translate(77.001953 0)"/>
      <use xlink:href="#DejaVuSans-74" transform="translate(138.28125 0)"/>
      <use xlink:href="#DejaVuSans-65" transform="translate(177.490234 0)"/>
     </g>
    </g>
   </g>
   <g id="matplotlib.axis_2">
    <g id="ytick_1">
     <g id="line2d_17">
      <path d="M 46.965625 331.992356 
L 849.295625 331.992356 
" clip-path="url(#p11fcfe8c43)" style="fill: none; stroke: #b0b0b0; stroke-opacity: 0.3; stroke-width: 0.8; stroke-linecap: square"/>
     </g>
     <g id="line2d_18">
      <defs>
       <path id="m1fe280e8f7" d="M 0 0 
L -3.5 0 
" style="stroke: #000000; stroke-width: 0.8"/>
      </defs>
      <g>
       <use xlink:href="#m1fe280e8f7" x="46.965625" y="331.992356" style="stroke: #000000; stroke-width: 0.8"/>
      </g>
     </g>
     <g id="text_10">
      <!-- 0 -->
      <g transform="translate(33.603125 335.791575) scale(0.1 -0.1)">
       <use xlink:href="#DejaVuSans-30"/>
      </g>
     </g>
    </g>
    <g id="ytick_2">
     <g id="line2d_19">
      <path d="M 46.965625 282.668871 
L 849.295625 282.668871 
" clip-path="url(#p11fcfe8c43)" style="fill: none; stroke: #b0b0b0; stroke-opacity: 0.3; stroke-width: 0.8; stroke-linecap: square"/>
     </g>
     <g id="line2d_20">
      <g>
       <use xlink:href="#m1fe280e8f7" x="46.965625" y="282.668871" style="stroke: #000000; stroke-width: 0.8"/>
      </g>
     </g>
     <g id="text_11">
      <!-- 50 -->
      <g transform="translate(27.240625 286.468089) scale(0.1 -0.1)">
       <use xlink:href="#DejaVuSans-35"/>
       <use xlink:href="#DejaVuSans-30" transform="translate(63.623047 0)"/>
      </g>
     </g>
    </g>
    <g id="ytick_3">
     <g id="line2d_21">
      <path d="M 46.965625 233.345385 
L 849.295625 233.345385 
" clip-path="url(#p11fcfe8c43)" style="fill: none; stroke: #b0b0b0; stroke-opacity: 0.3; stroke-width: 0.8; stroke-linecap: square"/>
     </g>
     <g id="line2d_22">
      <g>
       <use xlink:href="#m1fe280e8f7" x="46.965625" y="233.345385" style="stroke: #000000; stroke-width: 0.8"/>
      </g>
     </g>
     <g id="text_12">
      <!-- 100 -->
      <g transform="translate(20.878125 237.144603) scale(0.1 -0.1)">
       <use xlink:href="#DejaVuSans-31"/>
       <use xlink:href="#DejaVuSans-30" transform="translate(63.623047 0)"/>
       <use xlink:href="#DejaVuSans-30" transform="translate(127.246094 0)"/>
      </g>
     </g>
    </g>
    <g id="ytick_4">
     <g id="line2d_23">
      <path d="M 46.965625 184.021899 
L 849.295625 184.021899 
" clip-path="url(#p11fcfe8c43)" style="fill: none; stroke: #b0b0b0; stroke-opacity: 0.3; stroke-width: 0.8; stroke-linecap: square"/>
     </g>
     <g id="line2d_24">
      <g>
       <use xlink:href="#m1fe280e8f7" x="46.965625" y="184.021899" style="stroke: #000000; stroke-width: 0.8"/>
      </g>
     </g>
     <g id="text_13">
      <!-- 150 -->
      <g transform="translate(20.878125 187.821117) scale(0.1 -0.1)">
       <use xlink:href="#DejaVuSans-31"/>
       <use xlink:href="#DejaVuSans-35" transform="translate(63.623047 0)"/>
       <use xlink:href="#DejaVuSans-30" transform="translate(127.246094 0)"/>
      </g>
     </g>
    </g>
    <g id="ytick_5">
     <g id="line2d_25">
      <path d="M 46.965625 134.698413 
L 849.295625 134.698413 
" clip-path="url(#p11fcfe8c43)" style="fill: none; stroke: #b0b0b0; stroke-opacity: 0.3; stroke-width: 0.8; stroke-linecap: square"/>
     </g>
     <g id="line2d_26">
      <g>
       <use xlink:href="#m1fe280e8f7" x="46.965625" y="134.698413" style="stroke: #000000; stroke-width: 0.8"/>
      </g>
     </g>
     <g id="text_14">
      <!-- 200 -->
      <g transform="translate(20.878125 138.497632) scale(0.1 -0.1)">
       <use xlink:href="#DejaVuSans-32"/>
       <use xlink:href="#DejaVuSans-30" transform="translate(63.623047 0)"/>
       <use xlink:href="#DejaVuSans-30" transform="translate(127.246094 0)"/>
      </g>
     </g>
    </g>
    <g id="ytick_6">
     <g id="line2d_27">
      <path d="M 46.965625 85.374927 
L 849.295625 85.374927 
" clip-path="url(#p11fcfe8c43)" style="fill: none; stroke: #b0b0b0; stroke-opacity: 0.3; stroke-width: 0.8; stroke-linecap: square"/>
     </g>
     <g id="line2d_28">
      <g>
       <use xlink:href="#m1fe280e8f7" x="46.965625" y="85.374927" style="stroke: #000000; stroke-width: 0.8"/>
      </g>
     </g>
     <g id="text_15">
      <!-- 250 -->
      <g transform="translate(20.878125 89.174146) scale(0.1 -0.1)">
       <use xlink:href="#DejaVuSans-32"/>
       <use xlink:href="#DejaVuSans-35" transform="translate(63.623047 0)"/>
       <use xlink:href="#DejaVuSans-30" transform="translate(127.246094 0)"/>
      </g>
     </g>
    </g>
    <g id="ytick_7">
     <g id="line2d_29">
      <path d="M 46.965625 36.051441 
L 849.295625 36.051441 
" clip-path="url(#p11fcfe8c43)" style="fill: none; stroke: #b0b0b0; stroke-opacity: 0.3; stroke-width: 0.8; stroke-linecap: square"/>
     </g>
     <g id="line2d_30">
      <g>
       <use xlink:href="#m1fe280e8f7" x="46.965625" y="36.051441" style="stroke: #000000; stroke-width: 0.8"/>
      </g>
     </g>
     <g id="text_16">
      <!-- 300 -->
      <g transform="translate(20.878125 39.85066) scale(0.1 -0.1)">
       <defs>
        <path id="DejaVuSans-33" d="M 2597 2516 
Q 3050 2419 3304 2112 
Q 3559 1806 3559 1356 
Q 3559 666 3084 287 
Q 2609 -91 1734 -91 
Q 1441 -91 1130 -33 
Q 819 25 488 141 
L 488 750 
Q 750 597 1062 519 
Q 1375 441 1716 441 
Q 2309 441 2620 675 
Q 2931 909 2931 1356 
Q 2931 1769 2642 2001 
Q 2353 2234 1838 2234 
L 1294 2234 
L 1294 2753 
L 1863 2753 
Q 2328 2753 2575 2939 
Q 2822 3125 2822 3475 
Q 2822 3834 2567 4026 
Q 2313 4219 1838 4219 
Q 1578 4219 1281 4162 
Q 984 4106 628 3988 
L 628 4550 
Q 988 4650 1302 4700 
Q 1616 4750 1894 4750 
Q 2613 4750 3031 4423 
Q 3450 4097 3450 3541 
Q 3450 3153 3228 2886 
Q 3006 2619 2597 2516 
z
" transform="scale(0.015625)"/>
       </defs>
       <use xlink:href="#DejaVuSans-33"/>
       <use xlink:href="#DejaVuSans-30" transform="translate(63.623047 0)"/>
       <use xlink:href="#DejaVuSans-30" transform="translate(127.246094 0)"/>
      </g>
     </g>
    </g>
    <g id="text_17">
     <!-- Count -->
     <g transform="translate(14.798437 205.775624) rotate(-90) scale(0.1 -0.1)">
      <defs>
       <path id="DejaVuSans-43" d="M 4122 4306 
L 4122 3641 
Q 3803 3938 3442 4084 
Q 3081 4231 2675 4231 
Q 1875 4231 1450 3742 
Q 1025 3253 1025 2328 
Q 1025 1406 1450 917 
Q 1875 428 2675 428 
Q 3081 428 3442 575 
Q 3803 722 4122 1019 
L 4122 359 
Q 3791 134 3420 21 
Q 3050 -91 2638 -91 
Q 1578 -91 968 557 
Q 359 1206 359 2328 
Q 359 3453 968 4101 
Q 1578 4750 2638 4750 
Q 3056 4750 3426 4639 
Q 3797 4528 4122 4306 
z
" transform="scale(0.015625)"/>
       <path id="DejaVuSans-6f" d="M 1959 3097 
Q 1497 3097 1228 2736 
Q 959 2375 959 1747 
Q 959 1119 1226 758 
Q 1494 397 1959 397 
Q 2419 397 2687 759 
Q 2956 1122 2956 1747 
Q 2956 2369 2687 2733 
Q 2419 3097 1959 3097 
z
M 1959 3584 
Q 2709 3584 3137 3096 
Q 3566 2609 3566 1747 
Q 3566 888 3137 398 
Q 2709 -91 1959 -91 
Q 1206 -91 779 398 
Q 353 888 353 1747 
Q 353 2609 779 3096 
Q 1206 3584 1959 3584 
z
" transform="scale(0.015625)"/>
       <path id="DejaVuSans-75" d="M 544 1381 
L 544 3500 
L 1119 3500 
L 1119 1403 
Q 1119 906 1312 657 
Q 1506 409 1894 409 
Q 2359 409 2629 706 
Q 2900 1003 2900 1516 
L 2900 3500 
L 3475 3500 
L 3475 0 
L 2900 0 
L 2900 538 
Q 2691 219 2414 64 
Q 2138 -91 1772 -91 
Q 1169 -91 856 284 
Q 544 659 544 1381 
z
M 1991 3584 
L 1991 3584 
z
" transform="scale(0.015625)"/>
       <path id="DejaVuSans-6e" d="M 3513 2113 
L 3513 0 
L 2938 0 
L 2938 2094 
Q 2938 2591 2744 2837 
Q 2550 3084 2163 3084 
Q 1697 3084 1428 2787 
Q 1159 2491 1159 1978 
L 1159 0 
L 581 0 
L 581 3500 
L 1159 3500 
L 1159 2956 
Q 1366 3272 1645 3428 
Q 1925 3584 2291 3584 
Q 2894 3584 3203 3211 
Q 3513 2838 3513 2113 
z
" transform="scale(0.015625)"/>
      </defs>
      <use xlink:href="#DejaVuSans-43"/>
      <use xlink:href="#DejaVuSans-6f" transform="translate(69.824219 0)"/>
      <use xlink:href="#DejaVuSans-75" transform="translate(131.005859 0)"/>
      <use xlink:href="#DejaVuSans-6e" transform="translate(194.384766 0)"/>
      <use xlink:href="#DejaVuSans-74" transform="translate(257.763672 0)"/>
     </g>
    </g>
   </g>
   <g id="line2d_31">
    <path d="M 83.43517 307.330614 
L 89.616449 330.019417 
L 95.797728 319.16825 
L 108.160286 328.046478 
L 117.432204 331.992356 
L 126.704123 331.005887 
L 139.06668 331.005887 
L 145.247959 331.005887 
L 151.429238 324.100599 
L 160.701157 331.992356 
L 169.973075 329.032947 
L 182.335633 327.060008 
L 194.69819 329.032947 
L 200.879469 330.019417 
L 207.060748 324.100599 
L 219.423306 327.060008 
L 225.604585 331.005887 
L 237.967143 331.005887 
L 244.148422 330.019417 
L 256.510979 331.005887 
L 265.782898 331.992356 
L 275.054816 329.032947 
L 281.236095 331.005887 
L 290.508013 331.992356 
L 299.779932 331.005887 
L 309.05185 331.992356 
L 318.323768 330.019417 
L 327.595687 331.992356 
L 336.867605 329.032947 
L 349.230163 327.060008 
L 355.411442 331.005887 
L 361.592721 327.060008 
L 367.773999 328.046478 
L 373.955278 330.019417 
L 386.317836 328.046478 
L 398.680394 327.060008 
L 411.042952 329.032947 
L 417.224231 328.046478 
L 423.405509 331.005887 
L 429.586788 330.019417 
L 435.768067 328.046478 
L 441.949346 326.073538 
L 448.130625 329.032947 
L 454.311904 331.005887 
L 460.493183 329.032947 
L 466.674462 331.005887 
L 472.855741 328.046478 
L 479.037019 331.005887 
L 485.218298 331.005887 
L 491.399577 330.019417 
L 503.762135 330.019417 
L 509.943414 331.005887 
L 516.124693 330.019417 
L 522.305972 330.019417 
L 528.487251 328.046478 
L 534.668529 331.005887 
L 540.849808 327.060008 
L 547.031087 330.019417 
L 553.212366 327.060008 
L 559.393645 326.073538 
L 565.574924 328.046478 
L 571.756203 330.019417 
L 577.937482 327.060008 
L 590.300039 330.019417 
L 596.481318 329.032947 
L 602.662597 324.100599 
L 608.843876 331.005887 
L 615.025155 320.15472 
L 621.206434 328.046478 
L 627.387713 330.019417 
L 633.568992 326.073538 
L 639.750271 320.15472 
L 645.931549 331.005887 
L 652.112828 328.046478 
L 658.294107 317.195311 
L 664.475386 319.16825 
L 670.656665 319.16825 
L 676.837944 320.15472 
L 683.019223 307.330614 
L 689.200502 319.16825 
L 695.381781 321.14119 
L 701.56306 316.208841 
L 707.744338 305.357674 
L 713.925617 329.032947 
L 720.106896 329.032947 
L 726.288175 331.005887 
L 732.469454 326.073538 
L 738.650733 320.15472 
L 744.832012 323.114129 
L 751.013291 308.317083 
L 757.19457 331.005887 
L 763.375848 327.060008 
L 769.557127 330.019417 
L 775.738406 321.14119 
L 781.919685 321.14119 
L 788.100964 217.561869 
L 794.282243 313.249432 
L 800.463522 49.862017 
L 806.644801 326.073538 
L 812.82608 324.100599 
" clip-path="url(#p11fcfe8c43)" style="fill: none; stroke: #1f77b4; stroke-width: 2; stroke-linecap: square"/>
    <defs>
     <path id="m5758555007" d="M 0 2 
C 0.530406 2 1.03916 1.789267 1.414214 1.414214 
C 1.789267 1.03916 2 0.530406 2 0 
C 2 -0.530406 1.789267 -1.03916 1.414214 -1.414214 
C 1.03916 -1.789267 0.530406 -2 0 -2 
C -0.530406 -2 -1.03916 -1.789267 -1.414214 -1.414214 
C -1.789267 -1.03916 -2 -0.530406 -2 0 
C -2 0.530406 -1.789267 1.03916 -1.414214 1.414214 
C -1.03916 1.789267 -0.530406 2 0 2 
z
" style="stroke: #1f77b4"/>
    </defs>
    <g clip-path="url(#p11fcfe8c43)">
     <use xlink:href="#m5758555007" x="83.43517" y="307.330614" style="fill: #1f77b4; stroke: #1f77b4"/>
     <use xlink:href="#m5758555007" x="89.616449" y="330.019417" style="fill: #1f77b4; stroke: #1f77b4"/>
     <use xlink:href="#m5758555007" x="95.797728" y="319.16825" style="fill: #1f77b4; stroke: #1f77b4"/>
     <use xlink:href="#m5758555007" x="108.160286" y="328.046478" style="fill: #1f77b4; stroke: #1f77b4"/>
     <use xlink:href="#m5758555007" x="117.432204" y="331.992356" style="fill: #1f77b4; stroke: #1f77b4"/>
     <use xlink:href="#m5758555007" x="126.704123" y="331.005887" style="fill: #1f77b4; stroke: #1f77b4"/>
     <use xlink:href="#m5758555007" x="139.06668" y="331.005887" style="fill: #1f77b4; stroke: #1f77b4"/>
     <use xlink:href="#m5758555007" x="145.247959" y="331.005887" style="fill: #1f77b4; stroke: #1f77b4"/>
     <use xlink:href="#m5758555007" x="151.429238" y="324.100599" style="fill: #1f77b4; stroke: #1f77b4"/>
     <use xlink:href="#m5758555007" x="160.701157" y="331.992356" style="fill: #1f77b4; stroke: #1f77b4"/>
     <use xlink:href="#m5758555007" x="169.973075" y="329.032947" style="fill: #1f77b4; stroke: #1f77b4"/>
     <use xlink:href="#m5758555007" x="182.335633" y="327.060008" style="fill: #1f77b4; stroke: #1f77b4"/>
     <use xlink:href="#m5758555007" x="194.69819" y="329.032947" style="fill: #1f77b4; stroke: #1f77b4"/>
     <use xlink:href="#m5758555007" x="200.879469" y="330.019417" style="fill: #1f77b4; stroke: #1f77b4"/>
     <use xlink:href="#m5758555007" x="207.060748" y="324.100599" style="fill: #1f77b4; stroke: #1f77b4"/>
     <use xlink:href="#m5758555007" x="219.423306" y="327.060008" style="fill: #1f77b4; stroke: #1f77b4"/>
     <use xlink:href="#m5758555007" x="225.604585" y="331.005887" style="fill: #1f77b4; stroke: #1f77b4"/>
     <use xlink:href="#m5758555007" x="237.967143" y="331.005887" style="fill: #1f77b4; stroke: #1f77b4"/>
     <use xlink:href="#m5758555007" x="244.148422" y="330.019417" style="fill: #1f77b4; stroke: #1f77b4"/>
     <use xlink:href="#m5758555007" x="256.510979" y="331.005887" style="fill: #1f77b4; stroke: #1f77b4"/>
     <use xlink:href="#m5758555007" x="265.782898" y="331.992356" style="fill: #1f77b4; stroke: #1f77b4"/>
     <use xlink:href="#m5758555007" x="275.054816" y="329.032947" style="fill: #1f77b4; stroke: #1f77b4"/>
     <use xlink:href="#m5758555007" x="281.236095" y="331.005887" style="fill: #1f77b4; stroke: #1f77b4"/>
     <use xlink:href="#m5758555007" x="290.508013" y="331.992356" style="fill: #1f77b4; stroke: #1f77b4"/>
     <use xlink:href="#m5758555007" x="299.779932" y="331.005887" style="fill: #1f77b4; stroke: #1f77b4"/>
     <use xlink:href="#m5758555007" x="309.05185" y="331.992356" style="fill: #1f77b4; stroke: #1f77b4"/>
     <use xlink:href="#m5758555007" x="318.323768" y="330.019417" style="fill: #1f77b4; stroke: #1f77b4"/>
     <use xlink:href="#m5758555007" x="327.595687" y="331.992356" style="fill: #1f77b4; stroke: #1f77b4"/>
     <use xlink:href="#m5758555007" x="336.867605" y="329.032947" style="fill: #1f77b4; stroke: #1f77b4"/>
     <use xlink:href="#m5758555007" x="349.230163" y="327.060008" style="fill: #1f77b4; stroke: #1f77b4"/>
     <use xlink:href="#m5758555007" x="355.411442" y="331.005887" style="fill: #1f77b4; stroke: #1f77b4"/>
     <use xlink:href="#m5758555007" x="361.592721" y="327.060008" style="fill: #1f77b4; stroke: #1f77b4"/>
     <use xlink:href="#m5758555007" x="367.773999" y="328.046478" style="fill: #1f77b4; stroke: #1f77b4"/>
     <use xlink:href="#m5758555007" x="373.955278" y="330.019417" style="fill: #1f77b4; stroke: #1f77b4"/>
     <use xlink:href="#m5758555007" x="386.317836" y="328.046478" style="fill: #1f77b4; stroke: #1f77b4"/>
     <use xlink:href="#m5758555007" x="398.680394" y="327.060008" style="fill: #1f77b4; stroke: #1f77b4"/>
     <use xlink:href="#m5758555007" x="411.042952" y="329.032947" style="fill: #1f77b4; stroke: #1f77b4"/>
     <use xlink:href="#m5758555007" x="417.224231" y="328.046478" style="fill: #1f77b4; stroke: #1f77b4"/>
     <use xlink:href="#m5758555007" x="423.405509" y="331.005887" style="fill: #1f77b4; stroke: #1f77b4"/>
     <use xlink:href="#m5758555007" x="429.586788" y="330.019417" style="fill: #1f77b4; stroke: #1f77b4"/>
     <use xlink:href="#m5758555007" x="435.768067" y="328.046478" style="fill: #1f77b4; stroke: #1f77b4"/>
     <use xlink:href="#m5758555007" x="441.949346" y="326.073538" style="fill: #1f77b4; stroke: #1f77b4"/>
     <use xlink:href="#m5758555007" x="448.130625" y="329.032947" style="fill: #1f77b4; stroke: #1f77b4"/>
     <use xlink:href="#m5758555007" x="454.311904" y="331.005887" style="fill: #1f77b4; stroke: #1f77b4"/>
     <use xlink:href="#m5758555007" x="460.493183" y="329.032947" style="fill: #1f77b4; stroke: #1f77b4"/>
     <use xlink:href="#m5758555007" x="466.674462" y="331.005887" style="fill: #1f77b4; stroke: #1f77b4"/>
     <use xlink:href="#m5758555007" x="472.855741" y="328.046478" style="fill: #1f77b4; stroke: #1f77b4"/>
     <use xlink:href="#m5758555007" x="479.037019" y="331.005887" style="fill: #1f77b4; stroke: #1f77b4"/>
     <use xlink:href="#m5758555007" x="485.218298" y="331.005887" style="fill: #1f77b4; stroke: #1f77b4"/>
     <use xlink:href="#m5758555007" x="491.399577" y="330.019417" style="fill: #1f77b4; stroke: #1f77b4"/>
     <use xlink:href="#m5758555007" x="503.762135" y="330.019417" style="fill: #1f77b4; stroke: #1f77b4"/>
     <use xlink:href="#m5758555007" x="509.943414" y="331.005887" style="fill: #1f77b4; stroke: #1f77b4"/>
     <use xlink:href="#m5758555007" x="516.124693" y="330.019417" style="fill: #1f77b4; stroke: #1f77b4"/>
     <use xlink:href="#m5758555007" x="522.305972" y="330.019417" style="fill: #1f77b4; stroke: #1f77b4"/>
     <use xlink:href="#m5758555007" x="528.487251" y="328.046478" style="fill: #1f77b4; stroke: #1f77b4"/>
     <use xlink:href="#m5758555007" x="534.668529" y="331.005887" style="fill: #1f77b4; stroke: #1f77b4"/>
     <use xlink:href="#m5758555007" x="540.849808" y="327.060008" style="fill: #1f77b4; stroke: #1f77b4"/>
     <use xlink:href="#m5758555007" x="547.031087" y="330.019417" style="fill: #1f77b4; stroke: #1f77b4"/>
     <use xlink:href="#m5758555007" x="553.212366" y="327.060008" style="fill: #1f77b4; stroke: #1f77b4"/>
     <use xlink:href="#m5758555007" x="559.393645" y="326.073538" style="fill: #1f77b4; stroke: #1f77b4"/>
     <use xlink:href="#m5758555007" x="565.574924" y="328.046478" style="fill: #1f77b4; stroke: #1f77b4"/>
     <use xlink:href="#m5758555007" x="571.756203" y="330.019417" style="fill: #1f77b4; stroke: #1f77b4"/>
     <use xlink:href="#m5758555007" x="577.937482" y="327.060008" style="fill: #1f77b4; stroke: #1f77b4"/>
     <use xlink:href="#m5758555007" x="590.300039" y="330.019417" style="fill: #1f77b4; stroke: #1f77b4"/>
     <use xlink:href="#m5758555007" x="596.481318" y="329.032947" style="fill: #1f77b4; stroke: #1f77b4"/>
     <use xlink:href="#m5758555007" x="602.662597" y="324.100599" style="fill: #1f77b4; stroke: #1f77b4"/>
     <use xlink:href="#m5758555007" x="608.843876" y="331.005887" style="fill: #1f77b4; stroke: #1f77b4"/>
     <use xlink:href="#m5758555007" x="615.025155" y="320.15472" style="fill: #1f77b4; stroke: #1f77b4"/>
     <use xlink:href="#m5758555007" x="621.206434" y="328.046478" style="fill: #1f77b4; stroke: #1f77b4"/>
     <use xlink:href="#m5758555007" x="627.387713" y="330.019417" style="fill: #1f77b4; stroke: #1f77b4"/>
     <use xlink:href="#m5758555007" x="633.568992" y="326.073538" style="fill: #1f77b4; stroke: #1f77b4"/>
     <use xlink:href="#m5758555007" x="639.750271" y="320.15472" style="fill: #1f77b4; stroke: #1f77b4"/>
     <use xlink:href="#m5758555007" x="645.931549" y="331.005887" style="fill: #1f77b4; stroke: #1f77b4"/>
     <use xlink:href="#m5758555007" x="652.112828" y="328.046478" style="fill: #1f77b4; stroke: #1f77b4"/>
     <use xlink:href="#m5758555007" x="658.294107" y="317.195311" style="fill: #1f77b4; stroke: #1f77b4"/>
     <use xlink:href="#m5758555007" x="664.475386" y="319.16825" style="fill: #1f77b4; stroke: #1f77b4"/>
     <use xlink:href="#m5758555007" x="670.656665" y="319.16825" style="fill: #1f77b4; stroke: #1f77b4"/>
     <use xlink:href="#m5758555007" x="676.837944" y="320.15472" style="fill: #1f77b4; stroke: #1f77b4"/>
     <use xlink:href="#m5758555007" x="683.019223" y="307.330614" style="fill: #1f77b4; stroke: #1f77b4"/>
     <use xlink:href="#m5758555007" x="689.200502" y="319.16825" style="fill: #1f77b4; stroke: #1f77b4"/>
     <use xlink:href="#m5758555007" x="695.381781" y="321.14119" style="fill: #1f77b4; stroke: #1f77b4"/>
     <use xlink:href="#m5758555007" x="701.56306" y="316.208841" style="fill: #1f77b4; stroke: #1f77b4"/>
     <use xlink:href="#m5758555007" x="707.744338" y="305.357674" style="fill: #1f77b4; stroke: #1f77b4"/>
     <use xlink:href="#m5758555007" x="713.925617" y="329.032947" style="fill: #1f77b4; stroke: #1f77b4"/>
     <use xlink:href="#m5758555007" x="720.106896" y="329.032947" style="fill: #1f77b4; stroke: #1f77b4"/>
     <use xlink:href="#m5758555007" x="726.288175" y="331.005887" style="fill: #1f77b4; stroke: #1f77b4"/>
     <use xlink:href="#m5758555007" x="732.469454" y="326.073538" style="fill: #1f77b4; stroke: #1f77b4"/>
     <use xlink:href="#m5758555007" x="738.650733" y="320.15472" style="fill: #1f77b4; stroke: #1f77b4"/>
     <use xlink:href="#m5758555007" x="744.832012" y="323.114129" style="fill: #1f77b4; stroke: #1f77b4"/>
     <use xlink:href="#m5758555007" x="751.013291" y="308.317083" style="fill: #1f77b4; stroke: #1f77b4"/>
     <use xlink:href="#m5758555007" x="757.19457" y="331.005887" style="fill: #1f77b4; stroke: #1f77b4"/>
     <use xlink:href="#m5758555007" x="763.375848" y="327.060008" style="fill: #1f77b4; stroke: #1f77b4"/>
     <use xlink:href="#m5758555007" x="769.557127" y="330.019417" style="fill: #1f77b4; stroke: #1f77b4"/>
     <use xlink:href="#m5758555007" x="775.738406" y="321.14119" style="fill: #1f77b4; stroke: #1f77b4"/>
     <use xlink:href="#m5758555007" x="781.919685" y="321.14119" style="fill: #1f77b4; stroke: #1f77b4"/>
     <use xlink:href="#m5758555007" x="788.100964" y="217.561869" style="fill: #1f77b4; stroke: #1f77b4"/>
     <use xlink:href="#m5758555007" x="794.282243" y="313.249432" style="fill: #1f77b4; stroke: #1f77b4"/>
     <use xlink:href="#m5758555007" x="800.463522" y="49.862017" style="fill: #1f77b4; stroke: #1f77b4"/>
     <use xlink:href="#m5758555007" x="806.644801" y="326.073538" style="fill: #1f77b4; stroke: #1f77b4"/>
     <use xlink:href="#m5758555007" x="812.82608" y="324.100599" style="fill: #1f77b4; stroke: #1f77b4"/>
    </g>
   </g>
   <g id="line2d_32">
    <path d="M 83.43517 315.222371 
L 89.616449 331.005887 
L 95.797728 321.14119 
L 108.160286 328.046478 
L 117.432204 331.992356 
L 126.704123 331.005887 
L 139.06668 331.005887 
L 145.247959 331.005887 
L 151.429238 326.073538 
L 160.701157 331.992356 
L 169.973075 329.032947 
L 182.335633 327.060008 
L 194.69819 329.032947 
L 200.879469 330.019417 
L 207.060748 324.100599 
L 219.423306 327.060008 
L 225.604585 331.005887 
L 237.967143 331.005887 
L 244.148422 330.019417 
L 256.510979 331.005887 
L 265.782898 331.992356 
L 275.054816 329.032947 
L 281.236095 331.005887 
L 290.508013 331.992356 
L 299.779932 331.005887 
L 309.05185 331.992356 
L 318.323768 331.005887 
L 327.595687 331.992356 
L 336.867605 329.032947 
L 349.230163 327.060008 
L 355.411442 331.005887 
L 361.592721 327.060008 
L 367.773999 330.019417 
L 373.955278 330.019417 
L 386.317836 328.046478 
L 398.680394 327.060008 
L 411.042952 329.032947 
L 417.224231 328.046478 
L 423.405509 331.005887 
L 429.586788 330.019417 
L 435.768067 328.046478 
L 441.949346 329.032947 
L 448.130625 329.032947 
L 454.311904 331.005887 
L 460.493183 329.032947 
L 466.674462 331.005887 
L 472.855741 328.046478 
L 479.037019 331.005887 
L 485.218298 331.005887 
L 491.399577 331.005887 
L 503.762135 330.019417 
L 509.943414 331.005887 
L 516.124693 330.019417 
L 522.305972 331.005887 
L 528.487251 328.046478 
L 534.668529 331.005887 
L 540.849808 328.046478 
L 547.031087 330.019417 
L 553.212366 328.046478 
L 559.393645 327.060008 
L 565.574924 329.032947 
L 571.756203 331.005887 
L 577.937482 329.032947 
L 590.300039 331.005887 
L 596.481318 331.005887 
L 602.662597 325.087068 
L 608.843876 331.005887 
L 615.025155 324.100599 
L 621.206434 329.032947 
L 627.387713 331.005887 
L 633.568992 326.073538 
L 639.750271 324.100599 
L 645.931549 331.005887 
L 652.112828 328.046478 
L 658.294107 317.195311 
L 664.475386 321.14119 
L 670.656665 322.127659 
L 676.837944 325.087068 
L 683.019223 315.222371 
L 689.200502 323.114129 
L 695.381781 323.114129 
L 701.56306 319.16825 
L 707.744338 315.222371 
L 713.925617 330.019417 
L 720.106896 329.032947 
L 726.288175 331.005887 
L 732.469454 327.060008 
L 738.650733 322.127659 
L 744.832012 326.073538 
L 751.013291 318.18178 
L 757.19457 331.005887 
L 763.375848 328.046478 
L 769.557127 330.019417 
L 775.738406 322.127659 
L 781.919685 323.114129 
L 788.100964 302.398265 
L 794.282243 321.14119 
L 800.463522 244.196552 
L 806.644801 327.060008 
L 812.82608 326.073538 
" clip-path="url(#p11fcfe8c43)" style="fill: none; stroke: #ff7f0e; stroke-width: 2; stroke-linecap: square"/>
    <defs>
     <path id="md4c34c4d40" d="M -2 2 
L 2 -2 
M -2 -2 
L 2 2 
" style="stroke: #ff7f0e"/>
    </defs>
    <g clip-path="url(#p11fcfe8c43)">
     <use xlink:href="#md4c34c4d40" x="83.43517" y="315.222371" style="fill: #ff7f0e; stroke: #ff7f0e"/>
     <use xlink:href="#md4c34c4d40" x="89.616449" y="331.005887" style="fill: #ff7f0e; stroke: #ff7f0e"/>
     <use xlink:href="#md4c34c4d40" x="95.797728" y="321.14119" style="fill: #ff7f0e; stroke: #ff7f0e"/>
     <use xlink:href="#md4c34c4d40" x="108.160286" y="328.046478" style="fill: #ff7f0e; stroke: #ff7f0e"/>
     <use xlink:href="#md4c34c4d40" x="117.432204" y="331.992356" style="fill: #ff7f0e; stroke: #ff7f0e"/>
     <use xlink:href="#md4c34c4d40" x="126.704123" y="331.005887" style="fill: #ff7f0e; stroke: #ff7f0e"/>
     <use xlink:href="#md4c34c4d40" x="139.06668" y="331.005887" style="fill: #ff7f0e; stroke: #ff7f0e"/>
     <use xlink:href="#md4c34c4d40" x="145.247959" y="331.005887" style="fill: #ff7f0e; stroke: #ff7f0e"/>
     <use xlink:href="#md4c34c4d40" x="151.429238" y="326.073538" style="fill: #ff7f0e; stroke: #ff7f0e"/>
     <use xlink:href="#md4c34c4d40" x="160.701157" y="331.992356" style="fill: #ff7f0e; stroke: #ff7f0e"/>
     <use xlink:href="#md4c34c4d40" x="169.973075" y="329.032947" style="fill: #ff7f0e; stroke: #ff7f0e"/>
     <use xlink:href="#md4c34c4d40" x="182.335633" y="327.060008" style="fill: #ff7f0e; stroke: #ff7f0e"/>
     <use xlink:href="#md4c34c4d40" x="194.69819" y="329.032947" style="fill: #ff7f0e; stroke: #ff7f0e"/>
     <use xlink:href="#md4c34c4d40" x="200.879469" y="330.019417" style="fill: #ff7f0e; stroke: #ff7f0e"/>
     <use xlink:href="#md4c34c4d40" x="207.060748" y="324.100599" style="fill: #ff7f0e; stroke: #ff7f0e"/>
     <use xlink:href="#md4c34c4d40" x="219.423306" y="327.060008" style="fill: #ff7f0e; stroke: #ff7f0e"/>
     <use xlink:href="#md4c34c4d40" x="225.604585" y="331.005887" style="fill: #ff7f0e; stroke: #ff7f0e"/>
     <use xlink:href="#md4c34c4d40" x="237.967143" y="331.005887" style="fill: #ff7f0e; stroke: #ff7f0e"/>
     <use xlink:href="#md4c34c4d40" x="244.148422" y="330.019417" style="fill: #ff7f0e; stroke: #ff7f0e"/>
     <use xlink:href="#md4c34c4d40" x="256.510979" y="331.005887" style="fill: #ff7f0e; stroke: #ff7f0e"/>
     <use xlink:href="#md4c34c4d40" x="265.782898" y="331.992356" style="fill: #ff7f0e; stroke: #ff7f0e"/>
     <use xlink:href="#md4c34c4d40" x="275.054816" y="329.032947" style="fill: #ff7f0e; stroke: #ff7f0e"/>
     <use xlink:href="#md4c34c4d40" x="281.236095" y="331.005887" style="fill: #ff7f0e; stroke: #ff7f0e"/>
     <use xlink:href="#md4c34c4d40" x="290.508013" y="331.992356" style="fill: #ff7f0e; stroke: #ff7f0e"/>
     <use xlink:href="#md4c34c4d40" x="299.779932" y="331.005887" style="fill: #ff7f0e; stroke: #ff7f0e"/>
     <use xlink:href="#md4c34c4d40" x="309.05185" y="331.992356" style="fill: #ff7f0e; stroke: #ff7f0e"/>
     <use xlink:href="#md4c34c4d40" x="318.323768" y="331.005887" style="fill: #ff7f0e; stroke: #ff7f0e"/>
     <use xlink:href="#md4c34c4d40" x="327.595687" y="331.992356" style="fill: #ff7f0e; stroke: #ff7f0e"/>
     <use xlink:href="#md4c34c4d40" x="336.867605" y="329.032947" style="fill: #ff7f0e; stroke: #ff7f0e"/>
     <use xlink:href="#md4c34c4d40" x="349.230163" y="327.060008" style="fill: #ff7f0e; stroke: #ff7f0e"/>
     <use xlink:href="#md4c34c4d40" x="355.411442" y="331.005887" style="fill: #ff7f0e; stroke: #ff7f0e"/>
     <use xlink:href="#md4c34c4d40" x="361.592721" y="327.060008" style="fill: #ff7f0e; stroke: #ff7f0e"/>
     <use xlink:href="#md4c34c4d40" x="367.773999" y="330.019417" style="fill: #ff7f0e; stroke: #ff7f0e"/>
     <use xlink:href="#md4c34c4d40" x="373.955278" y="330.019417" style="fill: #ff7f0e; stroke: #ff7f0e"/>
     <use xlink:href="#md4c34c4d40" x="386.317836" y="328.046478" style="fill: #ff7f0e; stroke: #ff7f0e"/>
     <use xlink:href="#md4c34c4d40" x="398.680394" y="327.060008" style="fill: #ff7f0e; stroke: #ff7f0e"/>
     <use xlink:href="#md4c34c4d40" x="411.042952" y="329.032947" style="fill: #ff7f0e; stroke: #ff7f0e"/>
     <use xlink:href="#md4c34c4d40" x="417.224231" y="328.046478" style="fill: #ff7f0e; stroke: #ff7f0e"/>
     <use xlink:href="#md4c34c4d40" x="423.405509" y="331.005887" style="fill: #ff7f0e; stroke: #ff7f0e"/>
     <use xlink:href="#md4c34c4d40" x="429.586788" y="330.019417" style="fill: #ff7f0e; stroke: #ff7f0e"/>
     <use xlink:href="#md4c34c4d40" x="435.768067" y="328.046478" style="fill: #ff7f0e; stroke: #ff7f0e"/>
     <use xlink:href="#md4c34c4d40" x="441.949346" y="329.032947" style="fill: #ff7f0e; stroke: #ff7f0e"/>
     <use xlink:href="#md4c34c4d40" x="448.130625" y="329.032947" style="fill: #ff7f0e; stroke: #ff7f0e"/>
     <use xlink:href="#md4c34c4d40" x="454.311904" y="331.005887" style="fill: #ff7f0e; stroke: #ff7f0e"/>
     <use xlink:href="#md4c34c4d40" x="460.493183" y="329.032947" style="fill: #ff7f0e; stroke: #ff7f0e"/>
     <use xlink:href="#md4c34c4d40" x="466.674462" y="331.005887" style="fill: #ff7f0e; stroke: #ff7f0e"/>
     <use xlink:href="#md4c34c4d40" x="472.855741" y="328.046478" style="fill: #ff7f0e; stroke: #ff7f0e"/>
     <use xlink:href="#md4c34c4d40" x="479.037019" y="331.005887" style="fill: #ff7f0e; stroke: #ff7f0e"/>
     <use xlink:href="#md4c34c4d40" x="485.218298" y="331.005887" style="fill: #ff7f0e; stroke: #ff7f0e"/>
     <use xlink:href="#md4c34c4d40" x="491.399577" y="331.005887" style="fill: #ff7f0e; stroke: #ff7f0e"/>
     <use xlink:href="#md4c34c4d40" x="503.762135" y="330.019417" style="fill: #ff7f0e; stroke: #ff7f0e"/>
     <use xlink:href="#md4c34c4d40" x="509.943414" y="331.005887" style="fill: #ff7f0e; stroke: #ff7f0e"/>
     <use xlink:href="#md4c34c4d40" x="516.124693" y="330.019417" style="fill: #ff7f0e; stroke: #ff7f0e"/>
     <use xlink:href="#md4c34c4d40" x="522.305972" y="331.005887" style="fill: #ff7f0e; stroke: #ff7f0e"/>
     <use xlink:href="#md4c34c4d40" x="528.487251" y="328.046478" style="fill: #ff7f0e; stroke: #ff7f0e"/>
     <use xlink:href="#md4c34c4d40" x="534.668529" y="331.005887" style="fill: #ff7f0e; stroke: #ff7f0e"/>
     <use xlink:href="#md4c34c4d40" x="540.849808" y="328.046478" style="fill: #ff7f0e; stroke: #ff7f0e"/>
     <use xlink:href="#md4c34c4d40" x="547.031087" y="330.019417" style="fill: #ff7f0e; stroke: #ff7f0e"/>
     <use xlink:href="#md4c34c4d40" x="553.212366" y="328.046478" style="fill: #ff7f0e; stroke: #ff7f0e"/>
     <use xlink:href="#md4c34c4d40" x="559.393645" y="327.060008" style="fill: #ff7f0e; stroke: #ff7f0e"/>
     <use xlink:href="#md4c34c4d40" x="565.574924" y="329.032947" style="fill: #ff7f0e; stroke: #ff7f0e"/>
     <use xlink:href="#md4c34c4d40" x="571.756203" y="331.005887" style="fill: #ff7f0e; stroke: #ff7f0e"/>
     <use xlink:href="#md4c34c4d40" x="577.937482" y="329.032947" style="fill: #ff7f0e; stroke: #ff7f0e"/>
     <use xlink:href="#md4c34c4d40" x="590.300039" y="331.005887" style="fill: #ff7f0e; stroke: #ff7f0e"/>
     <use xlink:href="#md4c34c4d40" x="596.481318" y="331.005887" style="fill: #ff7f0e; stroke: #ff7f0e"/>
     <use xlink:href="#md4c34c4d40" x="602.662597" y="325.087068" style="fill: #ff7f0e; stroke: #ff7f0e"/>
     <use xlink:href="#md4c34c4d40" x="608.843876" y="331.005887" style="fill: #ff7f0e; stroke: #ff7f0e"/>
     <use xlink:href="#md4c34c4d40" x="615.025155" y="324.100599" style="fill: #ff7f0e; stroke: #ff7f0e"/>
     <use xlink:href="#md4c34c4d40" x="621.206434" y="329.032947" style="fill: #ff7f0e; stroke: #ff7f0e"/>
     <use xlink:href="#md4c34c4d40" x="627.387713" y="331.005887" style="fill: #ff7f0e; stroke: #ff7f0e"/>
     <use xlink:href="#md4c34c4d40" x="633.568992" y="326.073538" style="fill: #ff7f0e; stroke: #ff7f0e"/>
     <use xlink:href="#md4c34c4d40" x="639.750271" y="324.100599" style="fill: #ff7f0e; stroke: #ff7f0e"/>
     <use xlink:href="#md4c34c4d40" x="645.931549" y="331.005887" style="fill: #ff7f0e; stroke: #ff7f0e"/>
     <use xlink:href="#md4c34c4d40" x="652.112828" y="328.046478" style="fill: #ff7f0e; stroke: #ff7f0e"/>
     <use xlink:href="#md4c34c4d40" x="658.294107" y="317.195311" style="fill: #ff7f0e; stroke: #ff7f0e"/>
     <use xlink:href="#md4c34c4d40" x="664.475386" y="321.14119" style="fill: #ff7f0e; stroke: #ff7f0e"/>
     <use xlink:href="#md4c34c4d40" x="670.656665" y="322.127659" style="fill: #ff7f0e; stroke: #ff7f0e"/>
     <use xlink:href="#md4c34c4d40" x="676.837944" y="325.087068" style="fill: #ff7f0e; stroke: #ff7f0e"/>
     <use xlink:href="#md4c34c4d40" x="683.019223" y="315.222371" style="fill: #ff7f0e; stroke: #ff7f0e"/>
     <use xlink:href="#md4c34c4d40" x="689.200502" y="323.114129" style="fill: #ff7f0e; stroke: #ff7f0e"/>
     <use xlink:href="#md4c34c4d40" x="695.381781" y="323.114129" style="fill: #ff7f0e; stroke: #ff7f0e"/>
     <use xlink:href="#md4c34c4d40" x="701.56306" y="319.16825" style="fill: #ff7f0e; stroke: #ff7f0e"/>
     <use xlink:href="#md4c34c4d40" x="707.744338" y="315.222371" style="fill: #ff7f0e; stroke: #ff7f0e"/>
     <use xlink:href="#md4c34c4d40" x="713.925617" y="330.019417" style="fill: #ff7f0e; stroke: #ff7f0e"/>
     <use xlink:href="#md4c34c4d40" x="720.106896" y="329.032947" style="fill: #ff7f0e; stroke: #ff7f0e"/>
     <use xlink:href="#md4c34c4d40" x="726.288175" y="331.005887" style="fill: #ff7f0e; stroke: #ff7f0e"/>
     <use xlink:href="#md4c34c4d40" x="732.469454" y="327.060008" style="fill: #ff7f0e; stroke: #ff7f0e"/>
     <use xlink:href="#md4c34c4d40" x="738.650733" y="322.127659" style="fill: #ff7f0e; stroke: #ff7f0e"/>
     <use xlink:href="#md4c34c4d40" x="744.832012" y="326.073538" style="fill: #ff7f0e; stroke: #ff7f0e"/>
     <use xlink:href="#md4c34c4d40" x="751.013291" y="318.18178" style="fill: #ff7f0e; stroke: #ff7f0e"/>
     <use xlink:href="#md4c34c4d40" x="757.19457" y="331.005887" style="fill: #ff7f0e; stroke: #ff7f0e"/>
     <use xlink:href="#md4c34c4d40" x="763.375848" y="328.046478" style="fill: #ff7f0e; stroke: #ff7f0e"/>
     <use xlink:href="#md4c34c4d40" x="769.557127" y="330.019417" style="fill: #ff7f0e; stroke: #ff7f0e"/>
     <use xlink:href="#md4c34c4d40" x="775.738406" y="322.127659" style="fill: #ff7f0e; stroke: #ff7f0e"/>
     <use xlink:href="#md4c34c4d40" x="781.919685" y="323.114129" style="fill: #ff7f0e; stroke: #ff7f0e"/>
     <use xlink:href="#md4c34c4d40" x="788.100964" y="302.398265" style="fill: #ff7f0e; stroke: #ff7f0e"/>
     <use xlink:href="#md4c34c4d40" x="794.282243" y="321.14119" style="fill: #ff7f0e; stroke: #ff7f0e"/>
     <use xlink:href="#md4c34c4d40" x="800.463522" y="244.196552" style="fill: #ff7f0e; stroke: #ff7f0e"/>
     <use xlink:href="#md4c34c4d40" x="806.644801" y="327.060008" style="fill: #ff7f0e; stroke: #ff7f0e"/>
     <use xlink:href="#md4c34c4d40" x="812.82608" y="326.073538" style="fill: #ff7f0e; stroke: #ff7f0e"/>
    </g>
   </g>
   <g id="patch_3">
    <path d="M 46.965625 346.098873 
L 46.965625 35.7555 
" style="fill: none; stroke: #000000; stroke-width: 0.8; stroke-linejoin: miter; stroke-linecap: square"/>
   </g>
   <g id="patch_4">
    <path d="M 849.295625 346.098873 
L 849.295625 35.7555 
" style="fill: none; stroke: #000000; stroke-width: 0.8; stroke-linejoin: miter; stroke-linecap: square"/>
   </g>
   <g id="patch_5">
    <path d="M 46.965625 346.098873 
L 849.295625 346.098873 
" style="fill: none; stroke: #000000; stroke-width: 0.8; stroke-linejoin: miter; stroke-linecap: square"/>
   </g>
   <g id="patch_6">
    <path d="M 46.965625 35.7555 
L 849.295625 35.7555 
" style="fill: none; stroke: #000000; stroke-width: 0.8; stroke-linejoin: miter; stroke-linecap: square"/>
   </g>
   <g id="text_18">
    <g id="patch_7">
     <path d="M 63.012225 75.328742 
L 241.1616 75.328742 
Q 245.6616 75.328742 245.6616 70.828742 
L 245.6616 41.962367 
Q 245.6616 37.462367 241.1616 37.462367 
L 63.012225 37.462367 
Q 58.512225 37.462367 58.512225 41.962367 
L 58.512225 70.828742 
Q 58.512225 75.328742 63.012225 75.328742 
z
" style="fill: #ffffff; opacity: 0.8; stroke: #000000; stroke-linejoin: miter"/>
    </g>
    <!-- Total Clones: 922 -->
    <g transform="translate(63.012225 48.800961) scale(0.09 -0.09)">
     <defs>
      <path id="DejaVuSans-54" d="M -19 4666 
L 3928 4666 
L 3928 4134 
L 2272 4134 
L 2272 0 
L 1638 0 
L 1638 4134 
L -19 4134 
L -19 4666 
z
" transform="scale(0.015625)"/>
      <path id="DejaVuSans-6c" d="M 603 4863 
L 1178 4863 
L 1178 0 
L 603 0 
L 603 4863 
z
" transform="scale(0.015625)"/>
      <path id="DejaVuSans-20" transform="scale(0.015625)"/>
      <path id="DejaVuSans-73" d="M 2834 3397 
L 2834 2853 
Q 2591 2978 2328 3040 
Q 2066 3103 1784 3103 
Q 1356 3103 1142 2972 
Q 928 2841 928 2578 
Q 928 2378 1081 2264 
Q 1234 2150 1697 2047 
L 1894 2003 
Q 2506 1872 2764 1633 
Q 3022 1394 3022 966 
Q 3022 478 2636 193 
Q 2250 -91 1575 -91 
Q 1294 -91 989 -36 
Q 684 19 347 128 
L 347 722 
Q 666 556 975 473 
Q 1284 391 1588 391 
Q 1994 391 2212 530 
Q 2431 669 2431 922 
Q 2431 1156 2273 1281 
Q 2116 1406 1581 1522 
L 1381 1569 
Q 847 1681 609 1914 
Q 372 2147 372 2553 
Q 372 3047 722 3315 
Q 1072 3584 1716 3584 
Q 2034 3584 2315 3537 
Q 2597 3491 2834 3397 
z
" transform="scale(0.015625)"/>
      <path id="DejaVuSans-3a" d="M 750 794 
L 1409 794 
L 1409 0 
L 750 0 
L 750 794 
z
M 750 3309 
L 1409 3309 
L 1409 2516 
L 750 2516 
L 750 3309 
z
" transform="scale(0.015625)"/>
     </defs>
     <use xlink:href="#DejaVuSans-54"/>
     <use xlink:href="#DejaVuSans-6f" transform="translate(44.083984 0)"/>
     <use xlink:href="#DejaVuSans-74" transform="translate(105.265625 0)"/>
     <use xlink:href="#DejaVuSans-61" transform="translate(144.474609 0)"/>
     <use xlink:href="#DejaVuSans-6c" transform="translate(205.753906 0)"/>
     <use xlink:href="#DejaVuSans-20" transform="translate(233.537109 0)"/>
     <use xlink:href="#DejaVuSans-43" transform="translate(265.324219 0)"/>
     <use xlink:href="#DejaVuSans-6c" transform="translate(335.148438 0)"/>
     <use xlink:href="#DejaVuSans-6f" transform="translate(362.931641 0)"/>
     <use xlink:href="#DejaVuSans-6e" transform="translate(424.113281 0)"/>
     <use xlink:href="#DejaVuSans-65" transform="translate(487.492188 0)"/>
     <use xlink:href="#DejaVuSans-73" transform="translate(549.015625 0)"/>
     <use xlink:href="#DejaVuSans-3a" transform="translate(601.115234 0)"/>
     <use xlink:href="#DejaVuSans-20" transform="translate(634.806641 0)"/>
     <use xlink:href="#DejaVuSans-39" transform="translate(666.59375 0)"/>
     <use xlink:href="#DejaVuSans-32" transform="translate(730.216797 0)"/>
     <use xlink:href="#DejaVuSans-32" transform="translate(793.839844 0)"/>
    </g>
    <!-- Total Unique: 528 -->
    <g transform="translate(63.012225 58.878992) scale(0.09 -0.09)">
     <defs>
      <path id="DejaVuSans-55" d="M 556 4666 
L 1191 4666 
L 1191 1831 
Q 1191 1081 1462 751 
Q 1734 422 2344 422 
Q 2950 422 3222 751 
Q 3494 1081 3494 1831 
L 3494 4666 
L 4128 4666 
L 4128 1753 
Q 4128 841 3676 375 
Q 3225 -91 2344 -91 
Q 1459 -91 1007 375 
Q 556 841 556 1753 
L 556 4666 
z
" transform="scale(0.015625)"/>
      <path id="DejaVuSans-69" d="M 603 3500 
L 1178 3500 
L 1178 0 
L 603 0 
L 603 3500 
z
M 603 4863 
L 1178 4863 
L 1178 4134 
L 603 4134 
L 603 4863 
z
" transform="scale(0.015625)"/>
      <path id="DejaVuSans-71" d="M 947 1747 
Q 947 1113 1208 752 
Q 1469 391 1925 391 
Q 2381 391 2643 752 
Q 2906 1113 2906 1747 
Q 2906 2381 2643 2742 
Q 2381 3103 1925 3103 
Q 1469 3103 1208 2742 
Q 947 2381 947 1747 
z
M 2906 525 
Q 2725 213 2448 61 
Q 2172 -91 1784 -91 
Q 1150 -91 751 415 
Q 353 922 353 1747 
Q 353 2572 751 3078 
Q 1150 3584 1784 3584 
Q 2172 3584 2448 3432 
Q 2725 3281 2906 2969 
L 2906 3500 
L 3481 3500 
L 3481 -1331 
L 2906 -1331 
L 2906 525 
z
" transform="scale(0.015625)"/>
     </defs>
     <use xlink:href="#DejaVuSans-54"/>
     <use xlink:href="#DejaVuSans-6f" transform="translate(44.083984 0)"/>
     <use xlink:href="#DejaVuSans-74" transform="translate(105.265625 0)"/>
     <use xlink:href="#DejaVuSans-61" transform="translate(144.474609 0)"/>
     <use xlink:href="#DejaVuSans-6c" transform="translate(205.753906 0)"/>
     <use xlink:href="#DejaVuSans-20" transform="translate(233.537109 0)"/>
     <use xlink:href="#DejaVuSans-55" transform="translate(265.324219 0)"/>
     <use xlink:href="#DejaVuSans-6e" transform="translate(338.517578 0)"/>
     <use xlink:href="#DejaVuSans-69" transform="translate(401.896484 0)"/>
     <use xlink:href="#DejaVuSans-71" transform="translate(429.679688 0)"/>
     <use xlink:href="#DejaVuSans-75" transform="translate(493.15625 0)"/>
     <use xlink:href="#DejaVuSans-65" transform="translate(556.535156 0)"/>
     <use xlink:href="#DejaVuSans-3a" transform="translate(618.058594 0)"/>
     <use xlink:href="#DejaVuSans-20" transform="translate(651.75 0)"/>
     <use xlink:href="#DejaVuSans-35" transform="translate(683.537109 0)"/>
     <use xlink:href="#DejaVuSans-32" transform="translate(747.160156 0)"/>
     <use xlink:href="#DejaVuSans-38" transform="translate(810.783203 0)"/>
    </g>
    <!-- Date Range: 2025-08-09 to 2025-12-05 -->
    <g transform="translate(63.012225 68.957024) scale(0.09 -0.09)">
     <defs>
      <path id="DejaVuSans-52" d="M 2841 2188 
Q 3044 2119 3236 1894 
Q 3428 1669 3622 1275 
L 4263 0 
L 3584 0 
L 2988 1197 
Q 2756 1666 2539 1819 
Q 2322 1972 1947 1972 
L 1259 1972 
L 1259 0 
L 628 0 
L 628 4666 
L 2053 4666 
Q 2853 4666 3247 4331 
Q 3641 3997 3641 3322 
Q 3641 2881 3436 2590 
Q 3231 2300 2841 2188 
z
M 1259 4147 
L 1259 2491 
L 2053 2491 
Q 2509 2491 2742 2702 
Q 2975 2913 2975 3322 
Q 2975 3731 2742 3939 
Q 2509 4147 2053 4147 
L 1259 4147 
z
" transform="scale(0.015625)"/>
      <path id="DejaVuSans-67" d="M 2906 1791 
Q 2906 2416 2648 2759 
Q 2391 3103 1925 3103 
Q 1463 3103 1205 2759 
Q 947 2416 947 1791 
Q 947 1169 1205 825 
Q 1463 481 1925 481 
Q 2391 481 2648 825 
Q 2906 1169 2906 1791 
z
M 3481 434 
Q 3481 -459 3084 -895 
Q 2688 -1331 1869 -1331 
Q 1566 -1331 1297 -1286 
Q 1028 -1241 775 -1147 
L 775 -588 
Q 1028 -725 1275 -790 
Q 1522 -856 1778 -856 
Q 2344 -856 2625 -561 
Q 2906 -266 2906 331 
L 2906 616 
Q 2728 306 2450 153 
Q 2172 0 1784 0 
Q 1141 0 747 490 
Q 353 981 353 1791 
Q 353 2603 747 3093 
Q 1141 3584 1784 3584 
Q 2172 3584 2450 3431 
Q 2728 3278 2906 2969 
L 2906 3500 
L 3481 3500 
L 3481 434 
z
" transform="scale(0.015625)"/>
     </defs>
     <use xlink:href="#DejaVuSans-44"/>
     <use xlink:href="#DejaVuSans-61" transform="translate(77.001953 0)"/>
     <use xlink:href="#DejaVuSans-74" transform="translate(138.28125 0)"/>
     <use xlink:href="#DejaVuSans-65" transform="translate(177.490234 0)"/>
     <use xlink:href="#DejaVuSans-20" transform="translate(239.013672 0)"/>
     <use xlink:href="#DejaVuSans-52" transform="translate(270.800781 0)"/>
     <use xlink:href="#DejaVuSans-61" transform="translate(338.033203 0)"/>
     <use xlink:href="#DejaVuSans-6e" transform="translate(399.3125 0)"/>
     <use xlink:href="#DejaVuSans-67" transform="translate(462.691406 0)"/>
     <use xlink:href="#DejaVuSans-65" transform="translate(526.167969 0)"/>
     <use xlink:href="#DejaVuSans-3a" transform="translate(587.691406 0)"/>
     <use xlink:href="#DejaVuSans-20" transform="translate(621.382812 0)"/>
     <use xlink:href="#DejaVuSans-32" transform="translate(653.169922 0)"/>
     <use xlink:href="#DejaVuSans-30" transform="translate(716.792969 0)"/>
     <use xlink:href="#DejaVuSans-32" transform="translate(780.416016 0)"/>
     <use xlink:href="#DejaVuSans-35" transform="translate(844.039062 0)"/>
     <use xlink:href="#DejaVuSans-2d" transform="translate(907.662109 0)"/>
     <use xlink:href="#DejaVuSans-30" transform="translate(943.746094 0)"/>
     <use xlink:href="#DejaVuSans-38" transform="translate(1007.369141 0)"/>
     <use xlink:href="#DejaVuSans-2d" transform="translate(1070.992188 0)"/>
     <use xlink:href="#DejaVuSans-30" transform="translate(1107.076172 0)"/>
     <use xlink:href="#DejaVuSans-39" transform="translate(1170.699219 0)"/>
     <use xlink:href="#DejaVuSans-20" transform="translate(1234.322266 0)"/>
     <use xlink:href="#DejaVuSans-74" transform="translate(1266.109375 0)"/>
     <use xlink:href="#DejaVuSans-6f" transform="translate(1305.318359 0)"/>
     <use xlink:href="#DejaVuSans-20" transform="translate(1366.5 0)"/>
     <use xlink:href="#DejaVuSans-32" transform="translate(1398.287109 0)"/>
     <use xlink:href="#DejaVuSans-30" transform="translate(1461.910156 0)"/>
     <use xlink:href="#DejaVuSans-32" transform="translate(1525.533203 0)"/>
     <use xlink:href="#DejaVuSans-35" transform="translate(1589.15625 0)"/>
     <use xlink:href="#DejaVuSans-2d" transform="translate(1652.779297 0)"/>
     <use xlink:href="#DejaVuSans-31" transform="translate(1688.863281 0)"/>
     <use xlink:href="#DejaVuSans-32" transform="translate(1752.486328 0)"/>
     <use xlink:href="#DejaVuSans-2d" transform="translate(1816.109375 0)"/>
     <use xlink:href="#DejaVuSans-30" transform="translate(1852.193359 0)"/>
     <use xlink:href="#DejaVuSans-35" transform="translate(1915.816406 0)"/>
    </g>
   </g>
   <g id="text_19">
    <!-- Clones Traffic for bloggg -->
    <g transform="translate(375.324375 16.318125) scale(0.12 -0.12)">
     <defs>
      <path id="DejaVuSans-72" d="M 2631 2963 
Q 2534 3019 2420 3045 
Q 2306 3072 2169 3072 
Q 1681 3072 1420 2755 
Q 1159 2438 1159 1844 
L 1159 0 
L 581 0 
L 581 3500 
L 1159 3500 
L 1159 2956 
Q 1341 3275 1631 3429 
Q 1922 3584 2338 3584 
Q 2397 3584 2469 3576 
Q 2541 3569 2628 3553 
L 2631 2963 
z
" transform="scale(0.015625)"/>
      <path id="DejaVuSans-66" d="M 2375 4863 
L 2375 4384 
L 1825 4384 
Q 1516 4384 1395 4259 
Q 1275 4134 1275 3809 
L 1275 3500 
L 2222 3500 
L 2222 3053 
L 1275 3053 
L 1275 0 
L 697 0 
L 697 3053 
L 147 3053 
L 147 3500 
L 697 3500 
L 697 3744 
Q 697 4328 969 4595 
Q 1241 4863 1831 4863 
L 2375 4863 
z
" transform="scale(0.015625)"/>
      <path id="DejaVuSans-63" d="M 3122 3366 
L 3122 2828 
Q 2878 2963 2633 3030 
Q 2388 3097 2138 3097 
Q 1578 3097 1268 2742 
Q 959 2388 959 1747 
Q 959 1106 1268 751 
Q 1578 397 2138 397 
Q 2388 397 2633 464 
Q 2878 531 3122 666 
L 3122 134 
Q 2881 22 2623 -34 
Q 2366 -91 2075 -91 
Q 1284 -91 818 406 
Q 353 903 353 1747 
Q 353 2603 823 3093 
Q 1294 3584 2113 3584 
Q 2378 3584 2631 3529 
Q 2884 3475 3122 3366 
z
" transform="scale(0.015625)"/>
      <path id="DejaVuSans-62" d="M 3116 1747 
Q 3116 2381 2855 2742 
Q 2594 3103 2138 3103 
Q 1681 3103 1420 2742 
Q 1159 2381 1159 1747 
Q 1159 1113 1420 752 
Q 1681 391 2138 391 
Q 2594 391 2855 752 
Q 3116 1113 3116 1747 
z
M 1159 2969 
Q 1341 3281 1617 3432 
Q 1894 3584 2278 3584 
Q 2916 3584 3314 3078 
Q 3713 2572 3713 1747 
Q 3713 922 3314 415 
Q 2916 -91 2278 -91 
Q 1894 -91 1617 61 
Q 1341 213 1159 525 
L 1159 0 
L 581 0 
L 581 4863 
L 1159 4863 
L 1159 2969 
z
" transform="scale(0.015625)"/>
     </defs>
     <use xlink:href="#DejaVuSans-43"/>
     <use xlink:href="#DejaVuSans-6c" transform="translate(69.824219 0)"/>
     <use xlink:href="#DejaVuSans-6f" transform="translate(97.607422 0)"/>
     <use xlink:href="#DejaVuSans-6e" transform="translate(158.789062 0)"/>
     <use xlink:href="#DejaVuSans-65" transform="translate(222.167969 0)"/>
     <use xlink:href="#DejaVuSans-73" transform="translate(283.691406 0)"/>
     <use xlink:href="#DejaVuSans-20" transform="translate(335.791016 0)"/>
     <use xlink:href="#DejaVuSans-54" transform="translate(367.578125 0)"/>
     <use xlink:href="#DejaVuSans-72" transform="translate(413.912109 0)"/>
     <use xlink:href="#DejaVuSans-61" transform="translate(455.025391 0)"/>
     <use xlink:href="#DejaVuSans-66" transform="translate(516.304688 0)"/>
     <use xlink:href="#DejaVuSans-66" transform="translate(551.509766 0)"/>
     <use xlink:href="#DejaVuSans-69" transform="translate(586.714844 0)"/>
     <use xlink:href="#DejaVuSans-63" transform="translate(614.498047 0)"/>
     <use xlink:href="#DejaVuSans-20" transform="translate(669.478516 0)"/>
     <use xlink:href="#DejaVuSans-66" transform="translate(701.265625 0)"/>
     <use xlink:href="#DejaVuSans-6f" transform="translate(736.470703 0)"/>
     <use xlink:href="#DejaVuSans-72" transform="translate(797.652344 0)"/>
     <use xlink:href="#DejaVuSans-20" transform="translate(838.765625 0)"/>
     <use xlink:href="#DejaVuSans-62" transform="translate(870.552734 0)"/>
     <use xlink:href="#DejaVuSans-6c" transform="translate(934.029297 0)"/>
     <use xlink:href="#DejaVuSans-6f" transform="translate(961.8125 0)"/>
     <use xlink:href="#DejaVuSans-67" transform="translate(1022.994141 0)"/>
     <use xlink:href="#DejaVuSans-67" transform="translate(1086.470703 0)"/>
     <use xlink:href="#DejaVuSans-67" transform="translate(1149.947266 0)"/>
    </g>
    <!-- (94 data points, 100 including gap fills) -->
    <g transform="translate(330.211875 29.7555) scale(0.12 -0.12)">
     <defs>
      <path id="DejaVuSans-28" d="M 1984 4856 
Q 1566 4138 1362 3434 
Q 1159 2731 1159 2009 
Q 1159 1288 1364 580 
Q 1569 -128 1984 -844 
L 1484 -844 
Q 1016 -109 783 600 
Q 550 1309 550 2009 
Q 550 2706 781 3412 
Q 1013 4119 1484 4856 
L 1984 4856 
z
" transform="scale(0.015625)"/>
      <path id="DejaVuSans-34" d="M 2419 4116 
L 825 1625 
L 2419 1625 
L 2419 4116 
z
M 2253 4666 
L 3047 4666 
L 3047 1625 
L 3713 1625 
L 3713 1100 
L 3047 1100 
L 3047 0 
L 2419 0 
L 2419 1100 
L 313 1100 
L 313 1709 
L 2253 4666 
z
" transform="scale(0.015625)"/>
      <path id="DejaVuSans-64" d="M 2906 2969 
L 2906 4863 
L 3481 4863 
L 3481 0 
L 2906 0 
L 2906 525 
Q 2725 213 2448 61 
Q 2172 -91 1784 -91 
Q 1150 -91 751 415 
Q 353 922 353 1747 
Q 353 2572 751 3078 
Q 1150 3584 1784 3584 
Q 2172 3584 2448 3432 
Q 2725 3281 2906 2969 
z
M 947 1747 
Q 947 1113 1208 752 
Q 1469 391 1925 391 
Q 2381 391 2643 752 
Q 2906 1113 2906 1747 
Q 2906 2381 2643 2742 
Q 2381 3103 1925 3103 
Q 1469 3103 1208 2742 
Q 947 2381 947 1747 
z
" transform="scale(0.015625)"/>
      <path id="DejaVuSans-70" d="M 1159 525 
L 1159 -1331 
L 581 -1331 
L 581 3500 
L 1159 3500 
L 1159 2969 
Q 1341 3281 1617 3432 
Q 1894 3584 2278 3584 
Q 2916 3584 3314 3078 
Q 3713 2572 3713 1747 
Q 3713 922 3314 415 
Q 2916 -91 2278 -91 
Q 1894 -91 1617 61 
Q 1341 213 1159 525 
z
M 3116 1747 
Q 3116 2381 2855 2742 
Q 2594 3103 2138 3103 
Q 1681 3103 1420 2742 
Q 1159 2381 1159 1747 
Q 1159 1113 1420 752 
Q 1681 391 2138 391 
Q 2594 391 2855 752 
Q 3116 1113 3116 1747 
z
" transform="scale(0.015625)"/>
      <path id="DejaVuSans-2c" d="M 750 794 
L 1409 794 
L 1409 256 
L 897 -744 
L 494 -744 
L 750 256 
L 750 794 
z
" transform="scale(0.015625)"/>
      <path id="DejaVuSans-29" d="M 513 4856 
L 1013 4856 
Q 1481 4119 1714 3412 
Q 1947 2706 1947 2009 
Q 1947 1309 1714 600 
Q 1481 -109 1013 -844 
L 513 -844 
Q 928 -128 1133 580 
Q 1338 1288 1338 2009 
Q 1338 2731 1133 3434 
Q 928 4138 513 4856 
z
" transform="scale(0.015625)"/>
     </defs>
     <use xlink:href="#DejaVuSans-28"/>
     <use xlink:href="#DejaVuSans-39" transform="translate(39.013672 0)"/>
     <use xlink:href="#DejaVuSans-34" transform="translate(102.636719 0)"/>
     <use xlink:href="#DejaVuSans-20" transform="translate(166.259766 0)"/>
     <use xlink:href="#DejaVuSans-64" transform="translate(198.046875 0)"/>
     <use xlink:href="#DejaVuSans-61" transform="translate(261.523438 0)"/>
     <use xlink:href="#DejaVuSans-74" transform="translate(322.802734 0)"/>
     <use xlink:href="#DejaVuSans-61" transform="translate(362.011719 0)"/>
     <use xlink:href="#DejaVuSans-20" transform="translate(423.291016 0)"/>
     <use xlink:href="#DejaVuSans-70" transform="translate(455.078125 0)"/>
     <use xlink:href="#DejaVuSans-6f" transform="translate(518.554688 0)"/>
     <use xlink:href="#DejaVuSans-69" transform="translate(579.736328 0)"/>
     <use xlink:href="#DejaVuSans-6e" transform="translate(607.519531 0)"/>
     <use xlink:href="#DejaVuSans-74" transform="translate(670.898438 0)"/>
     <use xlink:href="#DejaVuSans-73" transform="translate(710.107422 0)"/>
     <use xlink:href="#DejaVuSans-2c" transform="translate(762.207031 0)"/>
     <use xlink:href="#DejaVuSans-20" transform="translate(793.994141 0)"/>
     <use xlink:href="#DejaVuSans-31" transform="translate(825.78125 0)"/>
     <use xlink:href="#DejaVuSans-30" transform="translate(889.404297 0)"/>
     <use xlink:href="#DejaVuSans-30" transform="translate(953.027344 0)"/>
     <use xlink:href="#DejaVuSans-20" transform="translate(1016.650391 0)"/>
     <use xlink:href="#DejaVuSans-69" transform="translate(1048.4375 0)"/>
     <use xlink:href="#DejaVuSans-6e" transform="translate(1076.220703 0)"/>
     <use xlink:href="#DejaVuSans-63" transform="translate(1139.599609 0)"/>
     <use xlink:href="#DejaVuSans-6c" transform="translate(1194.580078 0)"/>
     <use xlink:href="#DejaVuSans-75" transform="translate(1222.363281 0)"/>
     <use xlink:href="#DejaVuSans-64" transform="translate(1285.742188 0)"/>
     <use xlink:href="#DejaVuSans-69" transform="translate(1349.21875 0)"/>
     <use xlink:href="#DejaVuSans-6e" transform="translate(1377.001953 0)"/>
     <use xlink:href="#DejaVuSans-67" transform="translate(1440.380859 0)"/>
     <use xlink:href="#DejaVuSans-20" transform="translate(1503.857422 0)"/>
     <use xlink:href="#DejaVuSans-67" transform="translate(1535.644531 0)"/>
     <use xlink:href="#DejaVuSans-61" transform="translate(1599.121094 0)"/>
     <use xlink:href="#DejaVuSans-70" transform="translate(1660.400391 0)"/>
     <use xlink:href="#DejaVuSans-20" transform="translate(1723.876953 0)"/>
     <use xlink:href="#DejaVuSans-66" transform="translate(1755.664062 0)"/>
     <use xlink:href="#DejaVuSans-69" transform="translate(1790.869141 0)"/>
     <use xlink:href="#DejaVuSans-6c" transform="translate(1818.652344 0)"/>
     <use xlink:href="#DejaVuSans-6c" transform="translate(1846.435547 0)"/>
     <use xlink:href="#DejaVuSans-73" transform="translate(1874.21875 0)"/>
     <use xlink:href="#DejaVuSans-29" transform="translate(1926.318359 0)"/>
    </g>
   </g>
   <g id="legend_1">
    <g id="patch_8">
     <path d="M 53.965625 207.105312 
L 121.239063 207.105312 
Q 123.239063 207.105312 123.239063 205.105312 
L 123.239063 176.749062 
Q 123.239063 174.749062 121.239063 174.749062 
L 53.965625 174.749062 
Q 51.965625 174.749062 51.965625 176.749062 
L 51.965625 205.105312 
Q 51.965625 207.105312 53.965625 207.105312 
z
" style="fill: #ffffff; opacity: 0.8; stroke: #cccccc; stroke-linejoin: miter"/>
    </g>
    <g id="line2d_33">
     <path d="M 55.965625 182.847499 
L 65.965625 182.847499 
L 75.965625 182.847499 
" style="fill: none; stroke: #1f77b4; stroke-width: 2; stroke-linecap: square"/>
     <g>
      <use xlink:href="#m5758555007" x="65.965625" y="182.847499" style="fill: #1f77b4; stroke: #1f77b4"/>
     </g>
    </g>
    <g id="text_20">
     <!-- Count -->
     <g transform="translate(83.965625 186.347499) scale(0.1 -0.1)">
      <use xlink:href="#DejaVuSans-43"/>
      <use xlink:href="#DejaVuSans-6f" transform="translate(69.824219 0)"/>
      <use xlink:href="#DejaVuSans-75" transform="translate(131.005859 0)"/>
      <use xlink:href="#DejaVuSans-6e" transform="translate(194.384766 0)"/>
      <use xlink:href="#DejaVuSans-74" transform="translate(257.763672 0)"/>
     </g>
    </g>
    <g id="line2d_34">
     <path d="M 55.965625 197.525624 
L 65.965625 197.525624 
L 75.965625 197.525624 
" style="fill: none; stroke: #ff7f0e; stroke-width: 2; stroke-linecap: square"/>
     <g>
      <use xlink:href="#md4c34c4d40" x="65.965625" y="197.525624" style="fill: #ff7f0e; stroke: #ff7f0e"/>
     </g>
    </g>
    <g id="text_21">
     <!-- Unique -->
     <g transform="translate(83.965625 201.025624) scale(0.1 -0.1)">
      <use xlink:href="#DejaVuSans-55"/>
      <use xlink:href="#DejaVuSans-6e" transform="translate(73.193359 0)"/>
      <use xlink:href="#DejaVuSans-69" transform="translate(136.572266 0)"/>
      <use xlink:href="#DejaVuSans-71" transform="translate(164.355469 0)"/>
      <use xlink:href="#DejaVuSans-75" transform="translate(227.832031 0)"/>
      <use xlink:href="#DejaVuSans-65" transform="translate(291.210938 0)"/>
     </g>
    </g>
   </g>
  </g>
 </g>
 <defs>
  <clipPath id="p11fcfe8c43">
   <rect x="46.965625" y="35.7555" width="802.33" height="310.343373"/>
  </clipPath>
 </defs>
</svg>
