<?xml version="1.0" encoding="utf-8" standalone="no"?>
<!DOCTYPE svg PUBLIC "-//W3C//DTD SVG 1.1//EN"
  "http://www.w3.org/Graphics/SVG/1.1/DTD/svg11.dtd">
<svg xmlns:xlink="http://www.w3.org/1999/xlink" width="856.433125pt" height="421.914419pt" viewBox="0 0 856.433125 421.914419" xmlns="http://www.w3.org/2000/svg" version="1.1">
 <metadata>
  <rdf:RDF xmlns:dc="http://purl.org/dc/elements/1.1/" xmlns:cc="http://creativecommons.org/ns#" xmlns:rdf="http://www.w3.org/1999/02/22-rdf-syntax-ns#">
   <cc:Work>
    <dc:type rdf:resource="http://purl.org/dc/dcmitype/StillImage"/>
    <dc:date>2025-12-05T18:26:49.932851</dc:date>
    <dc:format>image/svg+xml</dc:format>
    <dc:creator>
     <cc:Agent>
      <dc:title>Matplotlib v3.10.5, https://matplotlib.org/</dc:title>
     </cc:Agent>
    </dc:creator>
   </cc:Work>
  </rdf:RDF>
 </metadata>
 <defs>
  <style type="text/css">*{stroke-linejoin: round; stroke-linecap: butt}</style>
 </defs>
 <g id="figure_1">
  <g id="patch_1">
   <path d="M 0 421.914419 
L 856.433125 421.914419 
L 856.433125 0 
L 0 0 
z
" style="fill: #ffffff"/>
  </g>
  <g id="axes_1">
   <g id="patch_2">
    <path d="M 40.603125 346.098873 
L 849.233125 346.098873 
L 849.233125 35.7555 
L 40.603125 35.7555 
z
" style="fill: #ffffff"/>
   </g>
   <g id="matplotlib.axis_1">
    <g id="xtick_1">
     <g id="line2d_1">
      <path d="M 45.164077 346.098873 
L 45.164077 35.7555 
" clip-path="url(#p59d26a2995)" style="fill: none; stroke: #b0b0b0; stroke-opacity: 0.3; stroke-width: 0.8; stroke-linecap: square"/>
     </g>
     <g id="line2d_2">
      <defs>
       <path id="mbff2b6c564" d="M 0 0 
L 0 3.5 
" style="stroke: #000000; stroke-width: 0.8"/>
      </defs>
      <g>
       <use xlink:href="#mbff2b6c564" x="45.164077" y="346.098873" style="stroke: #000000; stroke-width: 0.8"/>
      </g>
     </g>
     <g id="text_1">
      <!-- 2025-07-15 -->
      <g transform="translate(26.568274 399.565733) rotate(-45) scale(0.1 -0.1)">
       <defs>
        <path id="DejaVuSans-32" d="M 1228 531 
L 3431 531 
L 3431 0 
L 469 0 
L 469 531 
Q 828 903 1448 1529 
Q 2069 2156 2228 2338 
Q 2531 2678 2651 2914 
Q 2772 3150 2772 3378 
Q 2772 3750 2511 3984 
Q 2250 4219 1831 4219 
Q 1534 4219 1204 4116 
Q 875 4013 500 3803 
L 500 4441 
Q 881 4594 1212 4672 
Q 1544 4750 1819 4750 
Q 2544 4750 2975 4387 
Q 3406 4025 3406 3419 
Q 3406 3131 3298 2873 
Q 3191 2616 2906 2266 
Q 2828 2175 2409 1742 
Q 1991 1309 1228 531 
z
" transform="scale(0.015625)"/>
        <path id="DejaVuSans-30" d="M 2034 4250 
Q 1547 4250 1301 3770 
Q 1056 3291 1056 2328 
Q 1056 1369 1301 889 
Q 1547 409 2034 409 
Q 2525 409 2770 889 
Q 3016 1369 3016 2328 
Q 3016 3291 2770 3770 
Q 2525 4250 2034 4250 
z
M 2034 4750 
Q 2819 4750 3233 4129 
Q 3647 3509 3647 2328 
Q 3647 1150 3233 529 
Q 2819 -91 2034 -91 
Q 1250 -91 836 529 
Q 422 1150 422 2328 
Q 422 3509 836 4129 
Q 1250 4750 2034 4750 
z
" transform="scale(0.015625)"/>
        <path id="DejaVuSans-35" d="M 691 4666 
L 3169 4666 
L 3169 4134 
L 1269 4134 
L 1269 2991 
Q 1406 3038 1543 3061 
Q 1681 3084 1819 3084 
Q 2600 3084 3056 2656 
Q 3513 2228 3513 1497 
Q 3513 744 3044 326 
Q 2575 -91 1722 -91 
Q 1428 -91 1123 -41 
Q 819 9 494 109 
L 494 744 
Q 775 591 1075 516 
Q 1375 441 1709 441 
Q 2250 441 2565 725 
Q 2881 1009 2881 1497 
Q 2881 1984 2565 2268 
Q 2250 2553 1709 2553 
Q 1456 2553 1204 2497 
Q 953 2441 691 2322 
L 691 4666 
z
" transform="scale(0.015625)"/>
        <path id="DejaVuSans-2d" d="M 313 2009 
L 1997 2009 
L 1997 1497 
L 313 1497 
L 313 2009 
z
" transform="scale(0.015625)"/>
        <path id="DejaVuSans-37" d="M 525 4666 
L 3525 4666 
L 3525 4397 
L 1831 0 
L 1172 0 
L 2766 4134 
L 525 4134 
L 525 4666 
z
" transform="scale(0.015625)"/>
        <path id="DejaVuSans-31" d="M 794 531 
L 1825 531 
L 1825 4091 
L 703 3866 
L 703 4441 
L 1819 4666 
L 2450 4666 
L 2450 531 
L 3481 531 
L 3481 0 
L 794 0 
L 794 531 
z
" transform="scale(0.015625)"/>
       </defs>
       <use xlink:href="#DejaVuSans-32"/>
       <use xlink:href="#DejaVuSans-30" transform="translate(63.623047 0)"/>
       <use xlink:href="#DejaVuSans-32" transform="translate(127.246094 0)"/>
       <use xlink:href="#DejaVuSans-35" transform="translate(190.869141 0)"/>
       <use xlink:href="#DejaVuSans-2d" transform="translate(254.492188 0)"/>
       <use xlink:href="#DejaVuSans-30" transform="translate(290.576172 0)"/>
       <use xlink:href="#DejaVuSans-37" transform="translate(354.199219 0)"/>
       <use xlink:href="#DejaVuSans-2d" transform="translate(417.822266 0)"/>
       <use xlink:href="#DejaVuSans-31" transform="translate(453.90625 0)"/>
       <use xlink:href="#DejaVuSans-35" transform="translate(517.529297 0)"/>
      </g>
     </g>
    </g>
    <g id="xtick_2">
     <g id="line2d_3">
      <path d="M 136.383122 346.098873 
L 136.383122 35.7555 
" clip-path="url(#p59d26a2995)" style="fill: none; stroke: #b0b0b0; stroke-opacity: 0.3; stroke-width: 0.8; stroke-linecap: square"/>
     </g>
     <g id="line2d_4">
      <g>
       <use xlink:href="#mbff2b6c564" x="136.383122" y="346.098873" style="stroke: #000000; stroke-width: 0.8"/>
      </g>
     </g>
     <g id="text_2">
      <!-- 2025-08-01 -->
      <g transform="translate(117.787318 399.565733) rotate(-45) scale(0.1 -0.1)">
       <defs>
        <path id="DejaVuSans-38" d="M 2034 2216 
Q 1584 2216 1326 1975 
Q 1069 1734 1069 1313 
Q 1069 891 1326 650 
Q 1584 409 2034 409 
Q 2484 409 2743 651 
Q 3003 894 3003 1313 
Q 3003 1734 2745 1975 
Q 2488 2216 2034 2216 
z
M 1403 2484 
Q 997 2584 770 2862 
Q 544 3141 544 3541 
Q 544 4100 942 4425 
Q 1341 4750 2034 4750 
Q 2731 4750 3128 4425 
Q 3525 4100 3525 3541 
Q 3525 3141 3298 2862 
Q 3072 2584 2669 2484 
Q 3125 2378 3379 2068 
Q 3634 1759 3634 1313 
Q 3634 634 3220 271 
Q 2806 -91 2034 -91 
Q 1263 -91 848 271 
Q 434 634 434 1313 
Q 434 1759 690 2068 
Q 947 2378 1403 2484 
z
M 1172 3481 
Q 1172 3119 1398 2916 
Q 1625 2713 2034 2713 
Q 2441 2713 2670 2916 
Q 2900 3119 2900 3481 
Q 2900 3844 2670 4047 
Q 2441 4250 2034 4250 
Q 1625 4250 1398 4047 
Q 1172 3844 1172 3481 
z
" transform="scale(0.015625)"/>
       </defs>
       <use xlink:href="#DejaVuSans-32"/>
       <use xlink:href="#DejaVuSans-30" transform="translate(63.623047 0)"/>
       <use xlink:href="#DejaVuSans-32" transform="translate(127.246094 0)"/>
       <use xlink:href="#DejaVuSans-35" transform="translate(190.869141 0)"/>
       <use xlink:href="#DejaVuSans-2d" transform="translate(254.492188 0)"/>
       <use xlink:href="#DejaVuSans-30" transform="translate(290.576172 0)"/>
       <use xlink:href="#DejaVuSans-38" transform="translate(354.199219 0)"/>
       <use xlink:href="#DejaVuSans-2d" transform="translate(417.822266 0)"/>
       <use xlink:href="#DejaVuSans-30" transform="translate(453.90625 0)"/>
       <use xlink:href="#DejaVuSans-31" transform="translate(517.529297 0)"/>
      </g>
     </g>
    </g>
    <g id="xtick_3">
     <g id="line2d_5">
      <path d="M 211.504688 346.098873 
L 211.504688 35.7555 
" clip-path="url(#p59d26a2995)" style="fill: none; stroke: #b0b0b0; stroke-opacity: 0.3; stroke-width: 0.8; stroke-linecap: square"/>
     </g>
     <g id="line2d_6">
      <g>
       <use xlink:href="#mbff2b6c564" x="211.504688" y="346.098873" style="stroke: #000000; stroke-width: 0.8"/>
      </g>
     </g>
     <g id="text_3">
      <!-- 2025-08-15 -->
      <g transform="translate(192.908884 399.565733) rotate(-45) scale(0.1 -0.1)">
       <use xlink:href="#DejaVuSans-32"/>
       <use xlink:href="#DejaVuSans-30" transform="translate(63.623047 0)"/>
       <use xlink:href="#DejaVuSans-32" transform="translate(127.246094 0)"/>
       <use xlink:href="#DejaVuSans-35" transform="translate(190.869141 0)"/>
       <use xlink:href="#DejaVuSans-2d" transform="translate(254.492188 0)"/>
       <use xlink:href="#DejaVuSans-30" transform="translate(290.576172 0)"/>
       <use xlink:href="#DejaVuSans-38" transform="translate(354.199219 0)"/>
       <use xlink:href="#DejaVuSans-2d" transform="translate(417.822266 0)"/>
       <use xlink:href="#DejaVuSans-31" transform="translate(453.90625 0)"/>
       <use xlink:href="#DejaVuSans-35" transform="translate(517.529297 0)"/>
      </g>
     </g>
    </g>
    <g id="xtick_4">
     <g id="line2d_7">
      <path d="M 302.723732 346.098873 
L 302.723732 35.7555 
" clip-path="url(#p59d26a2995)" style="fill: none; stroke: #b0b0b0; stroke-opacity: 0.3; stroke-width: 0.8; stroke-linecap: square"/>
     </g>
     <g id="line2d_8">
      <g>
       <use xlink:href="#mbff2b6c564" x="302.723732" y="346.098873" style="stroke: #000000; stroke-width: 0.8"/>
      </g>
     </g>
     <g id="text_4">
      <!-- 2025-09-01 -->
      <g transform="translate(284.127929 399.565733) rotate(-45) scale(0.1 -0.1)">
       <defs>
        <path id="DejaVuSans-39" d="M 703 97 
L 703 672 
Q 941 559 1184 500 
Q 1428 441 1663 441 
Q 2288 441 2617 861 
Q 2947 1281 2994 2138 
Q 2813 1869 2534 1725 
Q 2256 1581 1919 1581 
Q 1219 1581 811 2004 
Q 403 2428 403 3163 
Q 403 3881 828 4315 
Q 1253 4750 1959 4750 
Q 2769 4750 3195 4129 
Q 3622 3509 3622 2328 
Q 3622 1225 3098 567 
Q 2575 -91 1691 -91 
Q 1453 -91 1209 -44 
Q 966 3 703 97 
z
M 1959 2075 
Q 2384 2075 2632 2365 
Q 2881 2656 2881 3163 
Q 2881 3666 2632 3958 
Q 2384 4250 1959 4250 
Q 1534 4250 1286 3958 
Q 1038 3666 1038 3163 
Q 1038 2656 1286 2365 
Q 1534 2075 1959 2075 
z
" transform="scale(0.015625)"/>
       </defs>
       <use xlink:href="#DejaVuSans-32"/>
       <use xlink:href="#DejaVuSans-30" transform="translate(63.623047 0)"/>
       <use xlink:href="#DejaVuSans-32" transform="translate(127.246094 0)"/>
       <use xlink:href="#DejaVuSans-35" transform="translate(190.869141 0)"/>
       <use xlink:href="#DejaVuSans-2d" transform="translate(254.492188 0)"/>
       <use xlink:href="#DejaVuSans-30" transform="translate(290.576172 0)"/>
       <use xlink:href="#DejaVuSans-39" transform="translate(354.199219 0)"/>
       <use xlink:href="#DejaVuSans-2d" transform="translate(417.822266 0)"/>
       <use xlink:href="#DejaVuSans-30" transform="translate(453.90625 0)"/>
       <use xlink:href="#DejaVuSans-31" transform="translate(517.529297 0)"/>
      </g>
     </g>
    </g>
    <g id="xtick_5">
     <g id="line2d_9">
      <path d="M 377.845298 346.098873 
L 377.845298 35.7555 
" clip-path="url(#p59d26a2995)" style="fill: none; stroke: #b0b0b0; stroke-opacity: 0.3; stroke-width: 0.8; stroke-linecap: square"/>
     </g>
     <g id="line2d_10">
      <g>
       <use xlink:href="#mbff2b6c564" x="377.845298" y="346.098873" style="stroke: #000000; stroke-width: 0.8"/>
      </g>
     </g>
     <g id="text_5">
      <!-- 2025-09-15 -->
      <g transform="translate(359.249495 399.565733) rotate(-45) scale(0.1 -0.1)">
       <use xlink:href="#DejaVuSans-32"/>
       <use xlink:href="#DejaVuSans-30" transform="translate(63.623047 0)"/>
       <use xlink:href="#DejaVuSans-32" transform="translate(127.246094 0)"/>
       <use xlink:href="#DejaVuSans-35" transform="translate(190.869141 0)"/>
       <use xlink:href="#DejaVuSans-2d" transform="translate(254.492188 0)"/>
       <use xlink:href="#DejaVuSans-30" transform="translate(290.576172 0)"/>
       <use xlink:href="#DejaVuSans-39" transform="translate(354.199219 0)"/>
       <use xlink:href="#DejaVuSans-2d" transform="translate(417.822266 0)"/>
       <use xlink:href="#DejaVuSans-31" transform="translate(453.90625 0)"/>
       <use xlink:href="#DejaVuSans-35" transform="translate(517.529297 0)"/>
      </g>
     </g>
    </g>
    <g id="xtick_6">
     <g id="line2d_11">
      <path d="M 463.698517 346.098873 
L 463.698517 35.7555 
" clip-path="url(#p59d26a2995)" style="fill: none; stroke: #b0b0b0; stroke-opacity: 0.3; stroke-width: 0.8; stroke-linecap: square"/>
     </g>
     <g id="line2d_12">
      <g>
       <use xlink:href="#mbff2b6c564" x="463.698517" y="346.098873" style="stroke: #000000; stroke-width: 0.8"/>
      </g>
     </g>
     <g id="text_6">
      <!-- 2025-10-01 -->
      <g transform="translate(445.102713 399.565733) rotate(-45) scale(0.1 -0.1)">
       <use xlink:href="#DejaVuSans-32"/>
       <use xlink:href="#DejaVuSans-30" transform="translate(63.623047 0)"/>
       <use xlink:href="#DejaVuSans-32" transform="translate(127.246094 0)"/>
       <use xlink:href="#DejaVuSans-35" transform="translate(190.869141 0)"/>
       <use xlink:href="#DejaVuSans-2d" transform="translate(254.492188 0)"/>
       <use xlink:href="#DejaVuSans-31" transform="translate(290.576172 0)"/>
       <use xlink:href="#DejaVuSans-30" transform="translate(354.199219 0)"/>
       <use xlink:href="#DejaVuSans-2d" transform="translate(417.822266 0)"/>
       <use xlink:href="#DejaVuSans-30" transform="translate(453.90625 0)"/>
       <use xlink:href="#DejaVuSans-31" transform="translate(517.529297 0)"/>
      </g>
     </g>
    </g>
    <g id="xtick_7">
     <g id="line2d_13">
      <path d="M 538.820083 346.098873 
L 538.820083 35.7555 
" clip-path="url(#p59d26a2995)" style="fill: none; stroke: #b0b0b0; stroke-opacity: 0.3; stroke-width: 0.8; stroke-linecap: square"/>
     </g>
     <g id="line2d_14">
      <g>
       <use xlink:href="#mbff2b6c564" x="538.820083" y="346.098873" style="stroke: #000000; stroke-width: 0.8"/>
      </g>
     </g>
     <g id="text_7">
      <!-- 2025-10-15 -->
      <g transform="translate(520.224279 399.565733) rotate(-45) scale(0.1 -0.1)">
       <use xlink:href="#DejaVuSans-32"/>
       <use xlink:href="#DejaVuSans-30" transform="translate(63.623047 0)"/>
       <use xlink:href="#DejaVuSans-32" transform="translate(127.246094 0)"/>
       <use xlink:href="#DejaVuSans-35" transform="translate(190.869141 0)"/>
       <use xlink:href="#DejaVuSans-2d" transform="translate(254.492188 0)"/>
       <use xlink:href="#DejaVuSans-31" transform="translate(290.576172 0)"/>
       <use xlink:href="#DejaVuSans-30" transform="translate(354.199219 0)"/>
       <use xlink:href="#DejaVuSans-2d" transform="translate(417.822266 0)"/>
       <use xlink:href="#DejaVuSans-31" transform="translate(453.90625 0)"/>
       <use xlink:href="#DejaVuSans-35" transform="translate(517.529297 0)"/>
      </g>
     </g>
    </g>
    <g id="xtick_8">
     <g id="line2d_15">
      <path d="M 630.039127 346.098873 
L 630.039127 35.7555 
" clip-path="url(#p59d26a2995)" style="fill: none; stroke: #b0b0b0; stroke-opacity: 0.3; stroke-width: 0.8; stroke-linecap: square"/>
     </g>
     <g id="line2d_16">
      <g>
       <use xlink:href="#mbff2b6c564" x="630.039127" y="346.098873" style="stroke: #000000; stroke-width: 0.8"/>
      </g>
     </g>
     <g id="text_8">
      <!-- 2025-11-01 -->
      <g transform="translate(611.443323 399.565733) rotate(-45) scale(0.1 -0.1)">
       <use xlink:href="#DejaVuSans-32"/>
       <use xlink:href="#DejaVuSans-30" transform="translate(63.623047 0)"/>
       <use xlink:href="#DejaVuSans-32" transform="translate(127.246094 0)"/>
       <use xlink:href="#DejaVuSans-35" transform="translate(190.869141 0)"/>
       <use xlink:href="#DejaVuSans-2d" transform="translate(254.492188 0)"/>
       <use xlink:href="#DejaVuSans-31" transform="translate(290.576172 0)"/>
       <use xlink:href="#DejaVuSans-31" transform="translate(354.199219 0)"/>
       <use xlink:href="#DejaVuSans-2d" transform="translate(417.822266 0)"/>
       <use xlink:href="#DejaVuSans-30" transform="translate(453.90625 0)"/>
       <use xlink:href="#DejaVuSans-31" transform="translate(517.529297 0)"/>
      </g>
     </g>
    </g>
    <g id="xtick_9">
     <g id="line2d_17">
      <path d="M 705.160693 346.098873 
L 705.160693 35.7555 
" clip-path="url(#p59d26a2995)" style="fill: none; stroke: #b0b0b0; stroke-opacity: 0.3; stroke-width: 0.8; stroke-linecap: square"/>
     </g>
     <g id="line2d_18">
      <g>
       <use xlink:href="#mbff2b6c564" x="705.160693" y="346.098873" style="stroke: #000000; stroke-width: 0.8"/>
      </g>
     </g>
     <g id="text_9">
      <!-- 2025-11-15 -->
      <g transform="translate(686.56489 399.565733) rotate(-45) scale(0.1 -0.1)">
       <use xlink:href="#DejaVuSans-32"/>
       <use xlink:href="#DejaVuSans-30" transform="translate(63.623047 0)"/>
       <use xlink:href="#DejaVuSans-32" transform="translate(127.246094 0)"/>
       <use xlink:href="#DejaVuSans-35" transform="translate(190.869141 0)"/>
       <use xlink:href="#DejaVuSans-2d" transform="translate(254.492188 0)"/>
       <use xlink:href="#DejaVuSans-31" transform="translate(290.576172 0)"/>
       <use xlink:href="#DejaVuSans-31" transform="translate(354.199219 0)"/>
       <use xlink:href="#DejaVuSans-2d" transform="translate(417.822266 0)"/>
       <use xlink:href="#DejaVuSans-31" transform="translate(453.90625 0)"/>
       <use xlink:href="#DejaVuSans-35" transform="translate(517.529297 0)"/>
      </g>
     </g>
    </g>
    <g id="xtick_10">
     <g id="line2d_19">
      <path d="M 791.013911 346.098873 
L 791.013911 35.7555 
" clip-path="url(#p59d26a2995)" style="fill: none; stroke: #b0b0b0; stroke-opacity: 0.3; stroke-width: 0.8; stroke-linecap: square"/>
     </g>
     <g id="line2d_20">
      <g>
       <use xlink:href="#mbff2b6c564" x="791.013911" y="346.098873" style="stroke: #000000; stroke-width: 0.8"/>
      </g>
     </g>
     <g id="text_10">
      <!-- 2025-12-01 -->
      <g transform="translate(772.418108 399.565733) rotate(-45) scale(0.1 -0.1)">
       <use xlink:href="#DejaVuSans-32"/>
       <use xlink:href="#DejaVuSans-30" transform="translate(63.623047 0)"/>
       <use xlink:href="#DejaVuSans-32" transform="translate(127.246094 0)"/>
       <use xlink:href="#DejaVuSans-35" transform="translate(190.869141 0)"/>
       <use xlink:href="#DejaVuSans-2d" transform="translate(254.492188 0)"/>
       <use xlink:href="#DejaVuSans-31" transform="translate(290.576172 0)"/>
       <use xlink:href="#DejaVuSans-32" transform="translate(354.199219 0)"/>
       <use xlink:href="#DejaVuSans-2d" transform="translate(417.822266 0)"/>
       <use xlink:href="#DejaVuSans-30" transform="translate(453.90625 0)"/>
       <use xlink:href="#DejaVuSans-31" transform="translate(517.529297 0)"/>
      </g>
     </g>
    </g>
    <g id="text_11">
     <!-- Date -->
     <g transform="translate(432.967344 412.634731) scale(0.1 -0.1)">
      <defs>
       <path id="DejaVuSans-44" d="M 1259 4147 
L 1259 519 
L 2022 519 
Q 2988 519 3436 956 
Q 3884 1394 3884 2338 
Q 3884 3275 3436 3711 
Q 2988 4147 2022 4147 
L 1259 4147 
z
M 628 4666 
L 1925 4666 
Q 3281 4666 3915 4102 
Q 4550 3538 4550 2338 
Q 4550 1131 3912 565 
Q 3275 0 1925 0 
L 628 0 
L 628 4666 
z
" transform="scale(0.015625)"/>
       <path id="DejaVuSans-61" d="M 2194 1759 
Q 1497 1759 1228 1600 
Q 959 1441 959 1056 
Q 959 750 1161 570 
Q 1363 391 1709 391 
Q 2188 391 2477 730 
Q 2766 1069 2766 1631 
L 2766 1759 
L 2194 1759 
z
M 3341 1997 
L 3341 0 
L 2766 0 
L 2766 531 
Q 2569 213 2275 61 
Q 1981 -91 1556 -91 
Q 1019 -91 701 211 
Q 384 513 384 1019 
Q 384 1609 779 1909 
Q 1175 2209 1959 2209 
L 2766 2209 
L 2766 2266 
Q 2766 2663 2505 2880 
Q 2244 3097 1772 3097 
Q 1472 3097 1187 3025 
Q 903 2953 641 2809 
L 641 3341 
Q 956 3463 1253 3523 
Q 1550 3584 1831 3584 
Q 2591 3584 2966 3190 
Q 3341 2797 3341 1997 
z
" transform="scale(0.015625)"/>
       <path id="DejaVuSans-74" d="M 1172 4494 
L 1172 3500 
L 2356 3500 
L 2356 3053 
L 1172 3053 
L 1172 1153 
Q 1172 725 1289 603 
Q 1406 481 1766 481 
L 2356 481 
L 2356 0 
L 1766 0 
Q 1100 0 847 248 
Q 594 497 594 1153 
L 594 3053 
L 172 3053 
L 172 3500 
L 594 3500 
L 594 4494 
L 1172 4494 
z
" transform="scale(0.015625)"/>
       <path id="DejaVuSans-65" d="M 3597 1894 
L 3597 1613 
L 953 1613 
Q 991 1019 1311 708 
Q 1631 397 2203 397 
Q 2534 397 2845 478 
Q 3156 559 3463 722 
L 3463 178 
Q 3153 47 2828 -22 
Q 2503 -91 2169 -91 
Q 1331 -91 842 396 
Q 353 884 353 1716 
Q 353 2575 817 3079 
Q 1281 3584 2069 3584 
Q 2775 3584 3186 3129 
Q 3597 2675 3597 1894 
z
M 3022 2063 
Q 3016 2534 2758 2815 
Q 2500 3097 2075 3097 
Q 1594 3097 1305 2825 
Q 1016 2553 972 2059 
L 3022 2063 
z
" transform="scale(0.015625)"/>
      </defs>
      <use xlink:href="#DejaVuSans-44"/>
      <use xlink:href="#DejaVuSans-61" transform="translate(77.001953 0)"/>
      <use xlink:href="#DejaVuSans-74" transform="translate(138.28125 0)"/>
      <use xlink:href="#DejaVuSans-65" transform="translate(177.490234 0)"/>
     </g>
    </g>
   </g>
   <g id="matplotlib.axis_2">
    <g id="ytick_1">
     <g id="line2d_21">
      <path d="M 40.603125 331.992356 
L 849.233125 331.992356 
" clip-path="url(#p59d26a2995)" style="fill: none; stroke: #b0b0b0; stroke-opacity: 0.3; stroke-width: 0.8; stroke-linecap: square"/>
     </g>
     <g id="line2d_22">
      <defs>
       <path id="m97b56d7d47" d="M 0 0 
L -3.5 0 
" style="stroke: #000000; stroke-width: 0.8"/>
      </defs>
      <g>
       <use xlink:href="#m97b56d7d47" x="40.603125" y="331.992356" style="stroke: #000000; stroke-width: 0.8"/>
      </g>
     </g>
     <g id="text_12">
      <!-- 0 -->
      <g transform="translate(27.240625 335.791575) scale(0.1 -0.1)">
       <use xlink:href="#DejaVuSans-30"/>
      </g>
     </g>
    </g>
    <g id="ytick_2">
     <g id="line2d_23">
      <path d="M 40.603125 287.909491 
L 849.233125 287.909491 
" clip-path="url(#p59d26a2995)" style="fill: none; stroke: #b0b0b0; stroke-opacity: 0.3; stroke-width: 0.8; stroke-linecap: square"/>
     </g>
     <g id="line2d_24">
      <g>
       <use xlink:href="#m97b56d7d47" x="40.603125" y="287.909491" style="stroke: #000000; stroke-width: 0.8"/>
      </g>
     </g>
     <g id="text_13">
      <!-- 10 -->
      <g transform="translate(20.878125 291.70871) scale(0.1 -0.1)">
       <use xlink:href="#DejaVuSans-31"/>
       <use xlink:href="#DejaVuSans-30" transform="translate(63.623047 0)"/>
      </g>
     </g>
    </g>
    <g id="ytick_3">
     <g id="line2d_25">
      <path d="M 40.603125 243.826625 
L 849.233125 243.826625 
" clip-path="url(#p59d26a2995)" style="fill: none; stroke: #b0b0b0; stroke-opacity: 0.3; stroke-width: 0.8; stroke-linecap: square"/>
     </g>
     <g id="line2d_26">
      <g>
       <use xlink:href="#m97b56d7d47" x="40.603125" y="243.826625" style="stroke: #000000; stroke-width: 0.8"/>
      </g>
     </g>
     <g id="text_14">
      <!-- 20 -->
      <g transform="translate(20.878125 247.625844) scale(0.1 -0.1)">
       <use xlink:href="#DejaVuSans-32"/>
       <use xlink:href="#DejaVuSans-30" transform="translate(63.623047 0)"/>
      </g>
     </g>
    </g>
    <g id="ytick_4">
     <g id="line2d_27">
      <path d="M 40.603125 199.74376 
L 849.233125 199.74376 
" clip-path="url(#p59d26a2995)" style="fill: none; stroke: #b0b0b0; stroke-opacity: 0.3; stroke-width: 0.8; stroke-linecap: square"/>
     </g>
     <g id="line2d_28">
      <g>
       <use xlink:href="#m97b56d7d47" x="40.603125" y="199.74376" style="stroke: #000000; stroke-width: 0.8"/>
      </g>
     </g>
     <g id="text_15">
      <!-- 30 -->
      <g transform="translate(20.878125 203.542979) scale(0.1 -0.1)">
       <defs>
        <path id="DejaVuSans-33" d="M 2597 2516 
Q 3050 2419 3304 2112 
Q 3559 1806 3559 1356 
Q 3559 666 3084 287 
Q 2609 -91 1734 -91 
Q 1441 -91 1130 -33 
Q 819 25 488 141 
L 488 750 
Q 750 597 1062 519 
Q 1375 441 1716 441 
Q 2309 441 2620 675 
Q 2931 909 2931 1356 
Q 2931 1769 2642 2001 
Q 2353 2234 1838 2234 
L 1294 2234 
L 1294 2753 
L 1863 2753 
Q 2328 2753 2575 2939 
Q 2822 3125 2822 3475 
Q 2822 3834 2567 4026 
Q 2313 4219 1838 4219 
Q 1578 4219 1281 4162 
Q 984 4106 628 3988 
L 628 4550 
Q 988 4650 1302 4700 
Q 1616 4750 1894 4750 
Q 2613 4750 3031 4423 
Q 3450 4097 3450 3541 
Q 3450 3153 3228 2886 
Q 3006 2619 2597 2516 
z
" transform="scale(0.015625)"/>
       </defs>
       <use xlink:href="#DejaVuSans-33"/>
       <use xlink:href="#DejaVuSans-30" transform="translate(63.623047 0)"/>
      </g>
     </g>
    </g>
    <g id="ytick_5">
     <g id="line2d_29">
      <path d="M 40.603125 155.660894 
L 849.233125 155.660894 
" clip-path="url(#p59d26a2995)" style="fill: none; stroke: #b0b0b0; stroke-opacity: 0.3; stroke-width: 0.8; stroke-linecap: square"/>
     </g>
     <g id="line2d_30">
      <g>
       <use xlink:href="#m97b56d7d47" x="40.603125" y="155.660894" style="stroke: #000000; stroke-width: 0.8"/>
      </g>
     </g>
     <g id="text_16">
      <!-- 40 -->
      <g transform="translate(20.878125 159.460113) scale(0.1 -0.1)">
       <defs>
        <path id="DejaVuSans-34" d="M 2419 4116 
L 825 1625 
L 2419 1625 
L 2419 4116 
z
M 2253 4666 
L 3047 4666 
L 3047 1625 
L 3713 1625 
L 3713 1100 
L 3047 1100 
L 3047 0 
L 2419 0 
L 2419 1100 
L 313 1100 
L 313 1709 
L 2253 4666 
z
" transform="scale(0.015625)"/>
       </defs>
       <use xlink:href="#DejaVuSans-34"/>
       <use xlink:href="#DejaVuSans-30" transform="translate(63.623047 0)"/>
      </g>
     </g>
    </g>
    <g id="ytick_6">
     <g id="line2d_31">
      <path d="M 40.603125 111.578029 
L 849.233125 111.578029 
" clip-path="url(#p59d26a2995)" style="fill: none; stroke: #b0b0b0; stroke-opacity: 0.3; stroke-width: 0.8; stroke-linecap: square"/>
     </g>
     <g id="line2d_32">
      <g>
       <use xlink:href="#m97b56d7d47" x="40.603125" y="111.578029" style="stroke: #000000; stroke-width: 0.8"/>
      </g>
     </g>
     <g id="text_17">
      <!-- 50 -->
      <g transform="translate(20.878125 115.377247) scale(0.1 -0.1)">
       <use xlink:href="#DejaVuSans-35"/>
       <use xlink:href="#DejaVuSans-30" transform="translate(63.623047 0)"/>
      </g>
     </g>
    </g>
    <g id="ytick_7">
     <g id="line2d_33">
      <path d="M 40.603125 67.495163 
L 849.233125 67.495163 
" clip-path="url(#p59d26a2995)" style="fill: none; stroke: #b0b0b0; stroke-opacity: 0.3; stroke-width: 0.8; stroke-linecap: square"/>
     </g>
     <g id="line2d_34">
      <g>
       <use xlink:href="#m97b56d7d47" x="40.603125" y="67.495163" style="stroke: #000000; stroke-width: 0.8"/>
      </g>
     </g>
     <g id="text_18">
      <!-- 60 -->
      <g transform="translate(20.878125 71.294382) scale(0.1 -0.1)">
       <defs>
        <path id="DejaVuSans-36" d="M 2113 2584 
Q 1688 2584 1439 2293 
Q 1191 2003 1191 1497 
Q 1191 994 1439 701 
Q 1688 409 2113 409 
Q 2538 409 2786 701 
Q 3034 994 3034 1497 
Q 3034 2003 2786 2293 
Q 2538 2584 2113 2584 
z
M 3366 4563 
L 3366 3988 
Q 3128 4100 2886 4159 
Q 2644 4219 2406 4219 
Q 1781 4219 1451 3797 
Q 1122 3375 1075 2522 
Q 1259 2794 1537 2939 
Q 1816 3084 2150 3084 
Q 2853 3084 3261 2657 
Q 3669 2231 3669 1497 
Q 3669 778 3244 343 
Q 2819 -91 2113 -91 
Q 1303 -91 875 529 
Q 447 1150 447 2328 
Q 447 3434 972 4092 
Q 1497 4750 2381 4750 
Q 2619 4750 2861 4703 
Q 3103 4656 3366 4563 
z
" transform="scale(0.015625)"/>
       </defs>
       <use xlink:href="#DejaVuSans-36"/>
       <use xlink:href="#DejaVuSans-30" transform="translate(63.623047 0)"/>
      </g>
     </g>
    </g>
    <g id="text_19">
     <!-- Count -->
     <g transform="translate(14.798438 205.775624) rotate(-90) scale(0.1 -0.1)">
      <defs>
       <path id="DejaVuSans-43" d="M 4122 4306 
L 4122 3641 
Q 3803 3938 3442 4084 
Q 3081 4231 2675 4231 
Q 1875 4231 1450 3742 
Q 1025 3253 1025 2328 
Q 1025 1406 1450 917 
Q 1875 428 2675 428 
Q 3081 428 3442 575 
Q 3803 722 4122 1019 
L 4122 359 
Q 3791 134 3420 21 
Q 3050 -91 2638 -91 
Q 1578 -91 968 557 
Q 359 1206 359 2328 
Q 359 3453 968 4101 
Q 1578 4750 2638 4750 
Q 3056 4750 3426 4639 
Q 3797 4528 4122 4306 
z
" transform="scale(0.015625)"/>
       <path id="DejaVuSans-6f" d="M 1959 3097 
Q 1497 3097 1228 2736 
Q 959 2375 959 1747 
Q 959 1119 1226 758 
Q 1494 397 1959 397 
Q 2419 397 2687 759 
Q 2956 1122 2956 1747 
Q 2956 2369 2687 2733 
Q 2419 3097 1959 3097 
z
M 1959 3584 
Q 2709 3584 3137 3096 
Q 3566 2609 3566 1747 
Q 3566 888 3137 398 
Q 2709 -91 1959 -91 
Q 1206 -91 779 398 
Q 353 888 353 1747 
Q 353 2609 779 3096 
Q 1206 3584 1959 3584 
z
" transform="scale(0.015625)"/>
       <path id="DejaVuSans-75" d="M 544 1381 
L 544 3500 
L 1119 3500 
L 1119 1403 
Q 1119 906 1312 657 
Q 1506 409 1894 409 
Q 2359 409 2629 706 
Q 2900 1003 2900 1516 
L 2900 3500 
L 3475 3500 
L 3475 0 
L 2900 0 
L 2900 538 
Q 2691 219 2414 64 
Q 2138 -91 1772 -91 
Q 1169 -91 856 284 
Q 544 659 544 1381 
z
M 1991 3584 
L 1991 3584 
z
" transform="scale(0.015625)"/>
       <path id="DejaVuSans-6e" d="M 3513 2113 
L 3513 0 
L 2938 0 
L 2938 2094 
Q 2938 2591 2744 2837 
Q 2550 3084 2163 3084 
Q 1697 3084 1428 2787 
Q 1159 2491 1159 1978 
L 1159 0 
L 581 0 
L 581 3500 
L 1159 3500 
L 1159 2956 
Q 1366 3272 1645 3428 
Q 1925 3584 2291 3584 
Q 2894 3584 3203 3211 
Q 3513 2838 3513 2113 
z
" transform="scale(0.015625)"/>
      </defs>
      <use xlink:href="#DejaVuSans-43"/>
      <use xlink:href="#DejaVuSans-6f" transform="translate(69.824219 0)"/>
      <use xlink:href="#DejaVuSans-75" transform="translate(131.005859 0)"/>
      <use xlink:href="#DejaVuSans-6e" transform="translate(194.384766 0)"/>
      <use xlink:href="#DejaVuSans-74" transform="translate(257.763672 0)"/>
     </g>
    </g>
   </g>
   <g id="line2d_35">
    <path d="M 77.359034 305.542637 
L 82.72486 283.501204 
L 88.090686 186.5189 
L 93.456513 248.234912 
L 98.822339 292.317777 
L 104.188165 230.601766 
L 109.553991 204.152046 
L 114.919817 226.193479 
L 120.285643 252.643198 
L 125.651469 243.826625 
L 131.017296 226.193479 
L 136.383122 287.909491 
L 141.748948 314.35921 
L 147.114774 327.58407 
L 152.4806 327.58407 
L 160.529339 331.992356 
L 168.578079 301.134351 
L 173.943905 327.58407 
L 179.309731 309.950924 
L 198.090122 331.992356 
L 216.870514 296.726064 
L 222.23634 327.58407 
L 232.967992 331.992356 
L 243.699645 327.58407 
L 259.797123 331.992356 
L 275.894601 283.501204 
L 281.260428 327.58407 
L 286.626254 327.58407 
L 291.99208 296.726064 
L 297.357906 305.542637 
L 305.406645 331.992356 
L 313.455384 168.885754 
L 324.187037 327.58407 
L 342.967428 331.992356 
L 361.74782 270.276345 
L 377.845298 331.992356 
L 393.942777 261.459772 
L 399.308603 279.092918 
L 404.674429 296.726064 
L 410.040255 327.58407 
L 415.406081 248.234912 
L 420.771907 327.58407 
L 431.50356 327.58407 
L 442.235212 331.992356 
L 452.966864 318.767497 
L 458.33269 283.501204 
L 463.698517 327.58407 
L 469.064343 327.58407 
L 479.795995 331.992356 
L 490.527647 226.193479 
L 495.893473 287.909491 
L 501.2593 314.35921 
L 522.722604 331.992356 
L 544.185909 296.726064 
L 554.917561 257.051485 
L 560.283387 133.619462 
L 565.649213 257.051485 
L 571.015039 327.58407 
L 576.380866 327.58407 
L 581.746692 318.767497 
L 587.112518 261.459772 
L 595.161257 331.992356 
L 603.209996 314.35921 
L 608.575822 323.175783 
L 613.941649 283.501204 
L 621.990388 331.992356 
L 630.039127 287.909491 
L 640.770779 314.35921 
L 646.136605 270.276345 
L 651.502432 221.785193 
L 656.868258 204.152046 
L 662.234084 318.767497 
L 672.965736 49.862017 
L 678.331562 287.909491 
L 683.697388 283.501204 
L 689.063215 208.560333 
L 694.429041 287.909491 
L 699.794867 301.134351 
L 705.160693 327.58407 
L 710.526519 279.092918 
L 715.892345 287.909491 
L 721.258171 292.317777 
L 726.623998 204.152046 
L 731.989824 318.767497 
L 742.721476 279.092918 
L 748.087302 239.418339 
L 753.453128 287.909491 
L 758.818954 323.175783 
L 764.184781 208.560333 
L 769.550607 217.376906 
L 774.916433 177.702327 
L 780.282259 115.986315 
L 785.648085 186.5189 
L 791.013911 102.761456 
L 796.379737 217.376906 
L 801.745564 173.294041 
L 807.11139 168.885754 
L 812.477216 230.601766 
" clip-path="url(#p59d26a2995)" style="fill: none; stroke: #1f77b4; stroke-width: 2; stroke-linecap: square"/>
    <defs>
     <path id="m93a2cbd814" d="M 0 2 
C 0.530406 2 1.03916 1.789267 1.414214 1.414214 
C 1.789267 1.03916 2 0.530406 2 0 
C 2 -0.530406 1.789267 -1.03916 1.414214 -1.414214 
C 1.03916 -1.789267 0.530406 -2 0 -2 
C -0.530406 -2 -1.03916 -1.789267 -1.414214 -1.414214 
C -1.789267 -1.03916 -2 -0.530406 -2 0 
C -2 0.530406 -1.789267 1.03916 -1.414214 1.414214 
C -1.03916 1.789267 -0.530406 2 0 2 
z
" style="stroke: #1f77b4"/>
    </defs>
    <g clip-path="url(#p59d26a2995)">
     <use xlink:href="#m93a2cbd814" x="77.359034" y="305.542637" style="fill: #1f77b4; stroke: #1f77b4"/>
     <use xlink:href="#m93a2cbd814" x="82.72486" y="283.501204" style="fill: #1f77b4; stroke: #1f77b4"/>
     <use xlink:href="#m93a2cbd814" x="88.090686" y="186.5189" style="fill: #1f77b4; stroke: #1f77b4"/>
     <use xlink:href="#m93a2cbd814" x="93.456513" y="248.234912" style="fill: #1f77b4; stroke: #1f77b4"/>
     <use xlink:href="#m93a2cbd814" x="98.822339" y="292.317777" style="fill: #1f77b4; stroke: #1f77b4"/>
     <use xlink:href="#m93a2cbd814" x="104.188165" y="230.601766" style="fill: #1f77b4; stroke: #1f77b4"/>
     <use xlink:href="#m93a2cbd814" x="109.553991" y="204.152046" style="fill: #1f77b4; stroke: #1f77b4"/>
     <use xlink:href="#m93a2cbd814" x="114.919817" y="226.193479" style="fill: #1f77b4; stroke: #1f77b4"/>
     <use xlink:href="#m93a2cbd814" x="120.285643" y="252.643198" style="fill: #1f77b4; stroke: #1f77b4"/>
     <use xlink:href="#m93a2cbd814" x="125.651469" y="243.826625" style="fill: #1f77b4; stroke: #1f77b4"/>
     <use xlink:href="#m93a2cbd814" x="131.017296" y="226.193479" style="fill: #1f77b4; stroke: #1f77b4"/>
     <use xlink:href="#m93a2cbd814" x="136.383122" y="287.909491" style="fill: #1f77b4; stroke: #1f77b4"/>
     <use xlink:href="#m93a2cbd814" x="141.748948" y="314.35921" style="fill: #1f77b4; stroke: #1f77b4"/>
     <use xlink:href="#m93a2cbd814" x="147.114774" y="327.58407" style="fill: #1f77b4; stroke: #1f77b4"/>
     <use xlink:href="#m93a2cbd814" x="152.4806" y="327.58407" style="fill: #1f77b4; stroke: #1f77b4"/>
     <use xlink:href="#m93a2cbd814" x="160.529339" y="331.992356" style="fill: #1f77b4; stroke: #1f77b4"/>
     <use xlink:href="#m93a2cbd814" x="168.578079" y="301.134351" style="fill: #1f77b4; stroke: #1f77b4"/>
     <use xlink:href="#m93a2cbd814" x="173.943905" y="327.58407" style="fill: #1f77b4; stroke: #1f77b4"/>
     <use xlink:href="#m93a2cbd814" x="179.309731" y="309.950924" style="fill: #1f77b4; stroke: #1f77b4"/>
     <use xlink:href="#m93a2cbd814" x="198.090122" y="331.992356" style="fill: #1f77b4; stroke: #1f77b4"/>
     <use xlink:href="#m93a2cbd814" x="216.870514" y="296.726064" style="fill: #1f77b4; stroke: #1f77b4"/>
     <use xlink:href="#m93a2cbd814" x="222.23634" y="327.58407" style="fill: #1f77b4; stroke: #1f77b4"/>
     <use xlink:href="#m93a2cbd814" x="232.967992" y="331.992356" style="fill: #1f77b4; stroke: #1f77b4"/>
     <use xlink:href="#m93a2cbd814" x="243.699645" y="327.58407" style="fill: #1f77b4; stroke: #1f77b4"/>
     <use xlink:href="#m93a2cbd814" x="259.797123" y="331.992356" style="fill: #1f77b4; stroke: #1f77b4"/>
     <use xlink:href="#m93a2cbd814" x="275.894601" y="283.501204" style="fill: #1f77b4; stroke: #1f77b4"/>
     <use xlink:href="#m93a2cbd814" x="281.260428" y="327.58407" style="fill: #1f77b4; stroke: #1f77b4"/>
     <use xlink:href="#m93a2cbd814" x="286.626254" y="327.58407" style="fill: #1f77b4; stroke: #1f77b4"/>
     <use xlink:href="#m93a2cbd814" x="291.99208" y="296.726064" style="fill: #1f77b4; stroke: #1f77b4"/>
     <use xlink:href="#m93a2cbd814" x="297.357906" y="305.542637" style="fill: #1f77b4; stroke: #1f77b4"/>
     <use xlink:href="#m93a2cbd814" x="305.406645" y="331.992356" style="fill: #1f77b4; stroke: #1f77b4"/>
     <use xlink:href="#m93a2cbd814" x="313.455384" y="168.885754" style="fill: #1f77b4; stroke: #1f77b4"/>
     <use xlink:href="#m93a2cbd814" x="324.187037" y="327.58407" style="fill: #1f77b4; stroke: #1f77b4"/>
     <use xlink:href="#m93a2cbd814" x="342.967428" y="331.992356" style="fill: #1f77b4; stroke: #1f77b4"/>
     <use xlink:href="#m93a2cbd814" x="361.74782" y="270.276345" style="fill: #1f77b4; stroke: #1f77b4"/>
     <use xlink:href="#m93a2cbd814" x="377.845298" y="331.992356" style="fill: #1f77b4; stroke: #1f77b4"/>
     <use xlink:href="#m93a2cbd814" x="393.942777" y="261.459772" style="fill: #1f77b4; stroke: #1f77b4"/>
     <use xlink:href="#m93a2cbd814" x="399.308603" y="279.092918" style="fill: #1f77b4; stroke: #1f77b4"/>
     <use xlink:href="#m93a2cbd814" x="404.674429" y="296.726064" style="fill: #1f77b4; stroke: #1f77b4"/>
     <use xlink:href="#m93a2cbd814" x="410.040255" y="327.58407" style="fill: #1f77b4; stroke: #1f77b4"/>
     <use xlink:href="#m93a2cbd814" x="415.406081" y="248.234912" style="fill: #1f77b4; stroke: #1f77b4"/>
     <use xlink:href="#m93a2cbd814" x="420.771907" y="327.58407" style="fill: #1f77b4; stroke: #1f77b4"/>
     <use xlink:href="#m93a2cbd814" x="431.50356" y="327.58407" style="fill: #1f77b4; stroke: #1f77b4"/>
     <use xlink:href="#m93a2cbd814" x="442.235212" y="331.992356" style="fill: #1f77b4; stroke: #1f77b4"/>
     <use xlink:href="#m93a2cbd814" x="452.966864" y="318.767497" style="fill: #1f77b4; stroke: #1f77b4"/>
     <use xlink:href="#m93a2cbd814" x="458.33269" y="283.501204" style="fill: #1f77b4; stroke: #1f77b4"/>
     <use xlink:href="#m93a2cbd814" x="463.698517" y="327.58407" style="fill: #1f77b4; stroke: #1f77b4"/>
     <use xlink:href="#m93a2cbd814" x="469.064343" y="327.58407" style="fill: #1f77b4; stroke: #1f77b4"/>
     <use xlink:href="#m93a2cbd814" x="479.795995" y="331.992356" style="fill: #1f77b4; stroke: #1f77b4"/>
     <use xlink:href="#m93a2cbd814" x="490.527647" y="226.193479" style="fill: #1f77b4; stroke: #1f77b4"/>
     <use xlink:href="#m93a2cbd814" x="495.893473" y="287.909491" style="fill: #1f77b4; stroke: #1f77b4"/>
     <use xlink:href="#m93a2cbd814" x="501.2593" y="314.35921" style="fill: #1f77b4; stroke: #1f77b4"/>
     <use xlink:href="#m93a2cbd814" x="522.722604" y="331.992356" style="fill: #1f77b4; stroke: #1f77b4"/>
     <use xlink:href="#m93a2cbd814" x="544.185909" y="296.726064" style="fill: #1f77b4; stroke: #1f77b4"/>
     <use xlink:href="#m93a2cbd814" x="554.917561" y="257.051485" style="fill: #1f77b4; stroke: #1f77b4"/>
     <use xlink:href="#m93a2cbd814" x="560.283387" y="133.619462" style="fill: #1f77b4; stroke: #1f77b4"/>
     <use xlink:href="#m93a2cbd814" x="565.649213" y="257.051485" style="fill: #1f77b4; stroke: #1f77b4"/>
     <use xlink:href="#m93a2cbd814" x="571.015039" y="327.58407" style="fill: #1f77b4; stroke: #1f77b4"/>
     <use xlink:href="#m93a2cbd814" x="576.380866" y="327.58407" style="fill: #1f77b4; stroke: #1f77b4"/>
     <use xlink:href="#m93a2cbd814" x="581.746692" y="318.767497" style="fill: #1f77b4; stroke: #1f77b4"/>
     <use xlink:href="#m93a2cbd814" x="587.112518" y="261.459772" style="fill: #1f77b4; stroke: #1f77b4"/>
     <use xlink:href="#m93a2cbd814" x="595.161257" y="331.992356" style="fill: #1f77b4; stroke: #1f77b4"/>
     <use xlink:href="#m93a2cbd814" x="603.209996" y="314.35921" style="fill: #1f77b4; stroke: #1f77b4"/>
     <use xlink:href="#m93a2cbd814" x="608.575822" y="323.175783" style="fill: #1f77b4; stroke: #1f77b4"/>
     <use xlink:href="#m93a2cbd814" x="613.941649" y="283.501204" style="fill: #1f77b4; stroke: #1f77b4"/>
     <use xlink:href="#m93a2cbd814" x="621.990388" y="331.992356" style="fill: #1f77b4; stroke: #1f77b4"/>
     <use xlink:href="#m93a2cbd814" x="630.039127" y="287.909491" style="fill: #1f77b4; stroke: #1f77b4"/>
     <use xlink:href="#m93a2cbd814" x="640.770779" y="314.35921" style="fill: #1f77b4; stroke: #1f77b4"/>
     <use xlink:href="#m93a2cbd814" x="646.136605" y="270.276345" style="fill: #1f77b4; stroke: #1f77b4"/>
     <use xlink:href="#m93a2cbd814" x="651.502432" y="221.785193" style="fill: #1f77b4; stroke: #1f77b4"/>
     <use xlink:href="#m93a2cbd814" x="656.868258" y="204.152046" style="fill: #1f77b4; stroke: #1f77b4"/>
     <use xlink:href="#m93a2cbd814" x="662.234084" y="318.767497" style="fill: #1f77b4; stroke: #1f77b4"/>
     <use xlink:href="#m93a2cbd814" x="672.965736" y="49.862017" style="fill: #1f77b4; stroke: #1f77b4"/>
     <use xlink:href="#m93a2cbd814" x="678.331562" y="287.909491" style="fill: #1f77b4; stroke: #1f77b4"/>
     <use xlink:href="#m93a2cbd814" x="683.697388" y="283.501204" style="fill: #1f77b4; stroke: #1f77b4"/>
     <use xlink:href="#m93a2cbd814" x="689.063215" y="208.560333" style="fill: #1f77b4; stroke: #1f77b4"/>
     <use xlink:href="#m93a2cbd814" x="694.429041" y="287.909491" style="fill: #1f77b4; stroke: #1f77b4"/>
     <use xlink:href="#m93a2cbd814" x="699.794867" y="301.134351" style="fill: #1f77b4; stroke: #1f77b4"/>
     <use xlink:href="#m93a2cbd814" x="705.160693" y="327.58407" style="fill: #1f77b4; stroke: #1f77b4"/>
     <use xlink:href="#m93a2cbd814" x="710.526519" y="279.092918" style="fill: #1f77b4; stroke: #1f77b4"/>
     <use xlink:href="#m93a2cbd814" x="715.892345" y="287.909491" style="fill: #1f77b4; stroke: #1f77b4"/>
     <use xlink:href="#m93a2cbd814" x="721.258171" y="292.317777" style="fill: #1f77b4; stroke: #1f77b4"/>
     <use xlink:href="#m93a2cbd814" x="726.623998" y="204.152046" style="fill: #1f77b4; stroke: #1f77b4"/>
     <use xlink:href="#m93a2cbd814" x="731.989824" y="318.767497" style="fill: #1f77b4; stroke: #1f77b4"/>
     <use xlink:href="#m93a2cbd814" x="742.721476" y="279.092918" style="fill: #1f77b4; stroke: #1f77b4"/>
     <use xlink:href="#m93a2cbd814" x="748.087302" y="239.418339" style="fill: #1f77b4; stroke: #1f77b4"/>
     <use xlink:href="#m93a2cbd814" x="753.453128" y="287.909491" style="fill: #1f77b4; stroke: #1f77b4"/>
     <use xlink:href="#m93a2cbd814" x="758.818954" y="323.175783" style="fill: #1f77b4; stroke: #1f77b4"/>
     <use xlink:href="#m93a2cbd814" x="764.184781" y="208.560333" style="fill: #1f77b4; stroke: #1f77b4"/>
     <use xlink:href="#m93a2cbd814" x="769.550607" y="217.376906" style="fill: #1f77b4; stroke: #1f77b4"/>
     <use xlink:href="#m93a2cbd814" x="774.916433" y="177.702327" style="fill: #1f77b4; stroke: #1f77b4"/>
     <use xlink:href="#m93a2cbd814" x="780.282259" y="115.986315" style="fill: #1f77b4; stroke: #1f77b4"/>
     <use xlink:href="#m93a2cbd814" x="785.648085" y="186.5189" style="fill: #1f77b4; stroke: #1f77b4"/>
     <use xlink:href="#m93a2cbd814" x="791.013911" y="102.761456" style="fill: #1f77b4; stroke: #1f77b4"/>
     <use xlink:href="#m93a2cbd814" x="796.379737" y="217.376906" style="fill: #1f77b4; stroke: #1f77b4"/>
     <use xlink:href="#m93a2cbd814" x="801.745564" y="173.294041" style="fill: #1f77b4; stroke: #1f77b4"/>
     <use xlink:href="#m93a2cbd814" x="807.11139" y="168.885754" style="fill: #1f77b4; stroke: #1f77b4"/>
     <use xlink:href="#m93a2cbd814" x="812.477216" y="230.601766" style="fill: #1f77b4; stroke: #1f77b4"/>
    </g>
   </g>
   <g id="line2d_36">
    <path d="M 77.359034 327.58407 
L 82.72486 327.58407 
L 88.090686 323.175783 
L 93.456513 327.58407 
L 98.822339 327.58407 
L 104.188165 327.58407 
L 109.553991 327.58407 
L 114.919817 327.58407 
L 120.285643 327.58407 
L 125.651469 327.58407 
L 131.017296 327.58407 
L 136.383122 327.58407 
L 141.748948 327.58407 
L 147.114774 327.58407 
L 152.4806 327.58407 
L 160.529339 331.992356 
L 168.578079 327.58407 
L 173.943905 327.58407 
L 179.309731 318.767497 
L 198.090122 331.992356 
L 216.870514 327.58407 
L 222.23634 327.58407 
L 232.967992 331.992356 
L 243.699645 327.58407 
L 259.797123 331.992356 
L 275.894601 327.58407 
L 281.260428 327.58407 
L 286.626254 327.58407 
L 291.99208 327.58407 
L 297.357906 327.58407 
L 305.406645 331.992356 
L 313.455384 327.58407 
L 324.187037 327.58407 
L 342.967428 331.992356 
L 361.74782 327.58407 
L 377.845298 331.992356 
L 393.942777 327.58407 
L 399.308603 327.58407 
L 404.674429 327.58407 
L 410.040255 327.58407 
L 415.406081 327.58407 
L 420.771907 327.58407 
L 431.50356 327.58407 
L 442.235212 331.992356 
L 452.966864 327.58407 
L 458.33269 327.58407 
L 463.698517 327.58407 
L 469.064343 327.58407 
L 479.795995 331.992356 
L 490.527647 327.58407 
L 495.893473 327.58407 
L 501.2593 327.58407 
L 522.722604 331.992356 
L 544.185909 327.58407 
L 554.917561 327.58407 
L 560.283387 327.58407 
L 565.649213 327.58407 
L 571.015039 327.58407 
L 576.380866 327.58407 
L 581.746692 327.58407 
L 587.112518 327.58407 
L 595.161257 331.992356 
L 603.209996 327.58407 
L 608.575822 327.58407 
L 613.941649 327.58407 
L 621.990388 331.992356 
L 630.039127 327.58407 
L 640.770779 327.58407 
L 646.136605 323.175783 
L 651.502432 323.175783 
L 656.868258 327.58407 
L 662.234084 327.58407 
L 672.965736 327.58407 
L 678.331562 327.58407 
L 683.697388 327.58407 
L 689.063215 327.58407 
L 694.429041 327.58407 
L 699.794867 327.58407 
L 705.160693 327.58407 
L 710.526519 327.58407 
L 715.892345 327.58407 
L 721.258171 327.58407 
L 726.623998 327.58407 
L 731.989824 323.175783 
L 742.721476 323.175783 
L 748.087302 327.58407 
L 753.453128 327.58407 
L 758.818954 327.58407 
L 764.184781 323.175783 
L 769.550607 301.134351 
L 774.916433 301.134351 
L 780.282259 305.542637 
L 785.648085 327.58407 
L 791.013911 309.950924 
L 796.379737 309.950924 
L 801.745564 309.950924 
L 807.11139 309.950924 
L 812.477216 314.35921 
" clip-path="url(#p59d26a2995)" style="fill: none; stroke: #ff7f0e; stroke-width: 2; stroke-linecap: square"/>
    <defs>
     <path id="m940473ee0a" d="M -2 2 
L 2 -2 
M -2 -2 
L 2 2 
" style="stroke: #ff7f0e"/>
    </defs>
    <g clip-path="url(#p59d26a2995)">
     <use xlink:href="#m940473ee0a" x="77.359034" y="327.58407" style="fill: #ff7f0e; stroke: #ff7f0e"/>
     <use xlink:href="#m940473ee0a" x="82.72486" y="327.58407" style="fill: #ff7f0e; stroke: #ff7f0e"/>
     <use xlink:href="#m940473ee0a" x="88.090686" y="323.175783" style="fill: #ff7f0e; stroke: #ff7f0e"/>
     <use xlink:href="#m940473ee0a" x="93.456513" y="327.58407" style="fill: #ff7f0e; stroke: #ff7f0e"/>
     <use xlink:href="#m940473ee0a" x="98.822339" y="327.58407" style="fill: #ff7f0e; stroke: #ff7f0e"/>
     <use xlink:href="#m940473ee0a" x="104.188165" y="327.58407" style="fill: #ff7f0e; stroke: #ff7f0e"/>
     <use xlink:href="#m940473ee0a" x="109.553991" y="327.58407" style="fill: #ff7f0e; stroke: #ff7f0e"/>
     <use xlink:href="#m940473ee0a" x="114.919817" y="327.58407" style="fill: #ff7f0e; stroke: #ff7f0e"/>
     <use xlink:href="#m940473ee0a" x="120.285643" y="327.58407" style="fill: #ff7f0e; stroke: #ff7f0e"/>
     <use xlink:href="#m940473ee0a" x="125.651469" y="327.58407" style="fill: #ff7f0e; stroke: #ff7f0e"/>
     <use xlink:href="#m940473ee0a" x="131.017296" y="327.58407" style="fill: #ff7f0e; stroke: #ff7f0e"/>
     <use xlink:href="#m940473ee0a" x="136.383122" y="327.58407" style="fill: #ff7f0e; stroke: #ff7f0e"/>
     <use xlink:href="#m940473ee0a" x="141.748948" y="327.58407" style="fill: #ff7f0e; stroke: #ff7f0e"/>
     <use xlink:href="#m940473ee0a" x="147.114774" y="327.58407" style="fill: #ff7f0e; stroke: #ff7f0e"/>
     <use xlink:href="#m940473ee0a" x="152.4806" y="327.58407" style="fill: #ff7f0e; stroke: #ff7f0e"/>
     <use xlink:href="#m940473ee0a" x="160.529339" y="331.992356" style="fill: #ff7f0e; stroke: #ff7f0e"/>
     <use xlink:href="#m940473ee0a" x="168.578079" y="327.58407" style="fill: #ff7f0e; stroke: #ff7f0e"/>
     <use xlink:href="#m940473ee0a" x="173.943905" y="327.58407" style="fill: #ff7f0e; stroke: #ff7f0e"/>
     <use xlink:href="#m940473ee0a" x="179.309731" y="318.767497" style="fill: #ff7f0e; stroke: #ff7f0e"/>
     <use xlink:href="#m940473ee0a" x="198.090122" y="331.992356" style="fill: #ff7f0e; stroke: #ff7f0e"/>
     <use xlink:href="#m940473ee0a" x="216.870514" y="327.58407" style="fill: #ff7f0e; stroke: #ff7f0e"/>
     <use xlink:href="#m940473ee0a" x="222.23634" y="327.58407" style="fill: #ff7f0e; stroke: #ff7f0e"/>
     <use xlink:href="#m940473ee0a" x="232.967992" y="331.992356" style="fill: #ff7f0e; stroke: #ff7f0e"/>
     <use xlink:href="#m940473ee0a" x="243.699645" y="327.58407" style="fill: #ff7f0e; stroke: #ff7f0e"/>
     <use xlink:href="#m940473ee0a" x="259.797123" y="331.992356" style="fill: #ff7f0e; stroke: #ff7f0e"/>
     <use xlink:href="#m940473ee0a" x="275.894601" y="327.58407" style="fill: #ff7f0e; stroke: #ff7f0e"/>
     <use xlink:href="#m940473ee0a" x="281.260428" y="327.58407" style="fill: #ff7f0e; stroke: #ff7f0e"/>
     <use xlink:href="#m940473ee0a" x="286.626254" y="327.58407" style="fill: #ff7f0e; stroke: #ff7f0e"/>
     <use xlink:href="#m940473ee0a" x="291.99208" y="327.58407" style="fill: #ff7f0e; stroke: #ff7f0e"/>
     <use xlink:href="#m940473ee0a" x="297.357906" y="327.58407" style="fill: #ff7f0e; stroke: #ff7f0e"/>
     <use xlink:href="#m940473ee0a" x="305.406645" y="331.992356" style="fill: #ff7f0e; stroke: #ff7f0e"/>
     <use xlink:href="#m940473ee0a" x="313.455384" y="327.58407" style="fill: #ff7f0e; stroke: #ff7f0e"/>
     <use xlink:href="#m940473ee0a" x="324.187037" y="327.58407" style="fill: #ff7f0e; stroke: #ff7f0e"/>
     <use xlink:href="#m940473ee0a" x="342.967428" y="331.992356" style="fill: #ff7f0e; stroke: #ff7f0e"/>
     <use xlink:href="#m940473ee0a" x="361.74782" y="327.58407" style="fill: #ff7f0e; stroke: #ff7f0e"/>
     <use xlink:href="#m940473ee0a" x="377.845298" y="331.992356" style="fill: #ff7f0e; stroke: #ff7f0e"/>
     <use xlink:href="#m940473ee0a" x="393.942777" y="327.58407" style="fill: #ff7f0e; stroke: #ff7f0e"/>
     <use xlink:href="#m940473ee0a" x="399.308603" y="327.58407" style="fill: #ff7f0e; stroke: #ff7f0e"/>
     <use xlink:href="#m940473ee0a" x="404.674429" y="327.58407" style="fill: #ff7f0e; stroke: #ff7f0e"/>
     <use xlink:href="#m940473ee0a" x="410.040255" y="327.58407" style="fill: #ff7f0e; stroke: #ff7f0e"/>
     <use xlink:href="#m940473ee0a" x="415.406081" y="327.58407" style="fill: #ff7f0e; stroke: #ff7f0e"/>
     <use xlink:href="#m940473ee0a" x="420.771907" y="327.58407" style="fill: #ff7f0e; stroke: #ff7f0e"/>
     <use xlink:href="#m940473ee0a" x="431.50356" y="327.58407" style="fill: #ff7f0e; stroke: #ff7f0e"/>
     <use xlink:href="#m940473ee0a" x="442.235212" y="331.992356" style="fill: #ff7f0e; stroke: #ff7f0e"/>
     <use xlink:href="#m940473ee0a" x="452.966864" y="327.58407" style="fill: #ff7f0e; stroke: #ff7f0e"/>
     <use xlink:href="#m940473ee0a" x="458.33269" y="327.58407" style="fill: #ff7f0e; stroke: #ff7f0e"/>
     <use xlink:href="#m940473ee0a" x="463.698517" y="327.58407" style="fill: #ff7f0e; stroke: #ff7f0e"/>
     <use xlink:href="#m940473ee0a" x="469.064343" y="327.58407" style="fill: #ff7f0e; stroke: #ff7f0e"/>
     <use xlink:href="#m940473ee0a" x="479.795995" y="331.992356" style="fill: #ff7f0e; stroke: #ff7f0e"/>
     <use xlink:href="#m940473ee0a" x="490.527647" y="327.58407" style="fill: #ff7f0e; stroke: #ff7f0e"/>
     <use xlink:href="#m940473ee0a" x="495.893473" y="327.58407" style="fill: #ff7f0e; stroke: #ff7f0e"/>
     <use xlink:href="#m940473ee0a" x="501.2593" y="327.58407" style="fill: #ff7f0e; stroke: #ff7f0e"/>
     <use xlink:href="#m940473ee0a" x="522.722604" y="331.992356" style="fill: #ff7f0e; stroke: #ff7f0e"/>
     <use xlink:href="#m940473ee0a" x="544.185909" y="327.58407" style="fill: #ff7f0e; stroke: #ff7f0e"/>
     <use xlink:href="#m940473ee0a" x="554.917561" y="327.58407" style="fill: #ff7f0e; stroke: #ff7f0e"/>
     <use xlink:href="#m940473ee0a" x="560.283387" y="327.58407" style="fill: #ff7f0e; stroke: #ff7f0e"/>
     <use xlink:href="#m940473ee0a" x="565.649213" y="327.58407" style="fill: #ff7f0e; stroke: #ff7f0e"/>
     <use xlink:href="#m940473ee0a" x="571.015039" y="327.58407" style="fill: #ff7f0e; stroke: #ff7f0e"/>
     <use xlink:href="#m940473ee0a" x="576.380866" y="327.58407" style="fill: #ff7f0e; stroke: #ff7f0e"/>
     <use xlink:href="#m940473ee0a" x="581.746692" y="327.58407" style="fill: #ff7f0e; stroke: #ff7f0e"/>
     <use xlink:href="#m940473ee0a" x="587.112518" y="327.58407" style="fill: #ff7f0e; stroke: #ff7f0e"/>
     <use xlink:href="#m940473ee0a" x="595.161257" y="331.992356" style="fill: #ff7f0e; stroke: #ff7f0e"/>
     <use xlink:href="#m940473ee0a" x="603.209996" y="327.58407" style="fill: #ff7f0e; stroke: #ff7f0e"/>
     <use xlink:href="#m940473ee0a" x="608.575822" y="327.58407" style="fill: #ff7f0e; stroke: #ff7f0e"/>
     <use xlink:href="#m940473ee0a" x="613.941649" y="327.58407" style="fill: #ff7f0e; stroke: #ff7f0e"/>
     <use xlink:href="#m940473ee0a" x="621.990388" y="331.992356" style="fill: #ff7f0e; stroke: #ff7f0e"/>
     <use xlink:href="#m940473ee0a" x="630.039127" y="327.58407" style="fill: #ff7f0e; stroke: #ff7f0e"/>
     <use xlink:href="#m940473ee0a" x="640.770779" y="327.58407" style="fill: #ff7f0e; stroke: #ff7f0e"/>
     <use xlink:href="#m940473ee0a" x="646.136605" y="323.175783" style="fill: #ff7f0e; stroke: #ff7f0e"/>
     <use xlink:href="#m940473ee0a" x="651.502432" y="323.175783" style="fill: #ff7f0e; stroke: #ff7f0e"/>
     <use xlink:href="#m940473ee0a" x="656.868258" y="327.58407" style="fill: #ff7f0e; stroke: #ff7f0e"/>
     <use xlink:href="#m940473ee0a" x="662.234084" y="327.58407" style="fill: #ff7f0e; stroke: #ff7f0e"/>
     <use xlink:href="#m940473ee0a" x="672.965736" y="327.58407" style="fill: #ff7f0e; stroke: #ff7f0e"/>
     <use xlink:href="#m940473ee0a" x="678.331562" y="327.58407" style="fill: #ff7f0e; stroke: #ff7f0e"/>
     <use xlink:href="#m940473ee0a" x="683.697388" y="327.58407" style="fill: #ff7f0e; stroke: #ff7f0e"/>
     <use xlink:href="#m940473ee0a" x="689.063215" y="327.58407" style="fill: #ff7f0e; stroke: #ff7f0e"/>
     <use xlink:href="#m940473ee0a" x="694.429041" y="327.58407" style="fill: #ff7f0e; stroke: #ff7f0e"/>
     <use xlink:href="#m940473ee0a" x="699.794867" y="327.58407" style="fill: #ff7f0e; stroke: #ff7f0e"/>
     <use xlink:href="#m940473ee0a" x="705.160693" y="327.58407" style="fill: #ff7f0e; stroke: #ff7f0e"/>
     <use xlink:href="#m940473ee0a" x="710.526519" y="327.58407" style="fill: #ff7f0e; stroke: #ff7f0e"/>
     <use xlink:href="#m940473ee0a" x="715.892345" y="327.58407" style="fill: #ff7f0e; stroke: #ff7f0e"/>
     <use xlink:href="#m940473ee0a" x="721.258171" y="327.58407" style="fill: #ff7f0e; stroke: #ff7f0e"/>
     <use xlink:href="#m940473ee0a" x="726.623998" y="327.58407" style="fill: #ff7f0e; stroke: #ff7f0e"/>
     <use xlink:href="#m940473ee0a" x="731.989824" y="323.175783" style="fill: #ff7f0e; stroke: #ff7f0e"/>
     <use xlink:href="#m940473ee0a" x="742.721476" y="323.175783" style="fill: #ff7f0e; stroke: #ff7f0e"/>
     <use xlink:href="#m940473ee0a" x="748.087302" y="327.58407" style="fill: #ff7f0e; stroke: #ff7f0e"/>
     <use xlink:href="#m940473ee0a" x="753.453128" y="327.58407" style="fill: #ff7f0e; stroke: #ff7f0e"/>
     <use xlink:href="#m940473ee0a" x="758.818954" y="327.58407" style="fill: #ff7f0e; stroke: #ff7f0e"/>
     <use xlink:href="#m940473ee0a" x="764.184781" y="323.175783" style="fill: #ff7f0e; stroke: #ff7f0e"/>
     <use xlink:href="#m940473ee0a" x="769.550607" y="301.134351" style="fill: #ff7f0e; stroke: #ff7f0e"/>
     <use xlink:href="#m940473ee0a" x="774.916433" y="301.134351" style="fill: #ff7f0e; stroke: #ff7f0e"/>
     <use xlink:href="#m940473ee0a" x="780.282259" y="305.542637" style="fill: #ff7f0e; stroke: #ff7f0e"/>
     <use xlink:href="#m940473ee0a" x="785.648085" y="327.58407" style="fill: #ff7f0e; stroke: #ff7f0e"/>
     <use xlink:href="#m940473ee0a" x="791.013911" y="309.950924" style="fill: #ff7f0e; stroke: #ff7f0e"/>
     <use xlink:href="#m940473ee0a" x="796.379737" y="309.950924" style="fill: #ff7f0e; stroke: #ff7f0e"/>
     <use xlink:href="#m940473ee0a" x="801.745564" y="309.950924" style="fill: #ff7f0e; stroke: #ff7f0e"/>
     <use xlink:href="#m940473ee0a" x="807.11139" y="309.950924" style="fill: #ff7f0e; stroke: #ff7f0e"/>
     <use xlink:href="#m940473ee0a" x="812.477216" y="314.35921" style="fill: #ff7f0e; stroke: #ff7f0e"/>
    </g>
   </g>
   <g id="patch_3">
    <path d="M 40.603125 346.098873 
L 40.603125 35.7555 
" style="fill: none; stroke: #000000; stroke-width: 0.8; stroke-linejoin: miter; stroke-linecap: square"/>
   </g>
   <g id="patch_4">
    <path d="M 849.233125 346.098873 
L 849.233125 35.7555 
" style="fill: none; stroke: #000000; stroke-width: 0.8; stroke-linejoin: miter; stroke-linecap: square"/>
   </g>
   <g id="patch_5">
    <path d="M 40.603125 346.098873 
L 849.233125 346.098873 
" style="fill: none; stroke: #000000; stroke-width: 0.8; stroke-linejoin: miter; stroke-linecap: square"/>
   </g>
   <g id="patch_6">
    <path d="M 40.603125 35.7555 
L 849.233125 35.7555 
" style="fill: none; stroke: #000000; stroke-width: 0.8; stroke-linejoin: miter; stroke-linecap: square"/>
   </g>
   <g id="text_20">
    <g id="patch_7">
     <path d="M 56.775725 75.328742 
L 234.9251 75.328742 
Q 239.4251 75.328742 239.4251 70.828742 
L 239.4251 41.962367 
Q 239.4251 37.462367 234.9251 37.462367 
L 56.775725 37.462367 
Q 52.275725 37.462367 52.275725 41.962367 
L 52.275725 70.828742 
Q 52.275725 75.328742 56.775725 75.328742 
z
" style="fill: #ffffff; opacity: 0.8; stroke: #000000; stroke-linejoin: miter"/>
    </g>
    <!-- Total Views: 1240 -->
    <g transform="translate(56.775725 48.800961) scale(0.09 -0.09)">
     <defs>
      <path id="DejaVuSans-54" d="M -19 4666 
L 3928 4666 
L 3928 4134 
L 2272 4134 
L 2272 0 
L 1638 0 
L 1638 4134 
L -19 4134 
L -19 4666 
z
" transform="scale(0.015625)"/>
      <path id="DejaVuSans-6c" d="M 603 4863 
L 1178 4863 
L 1178 0 
L 603 0 
L 603 4863 
z
" transform="scale(0.015625)"/>
      <path id="DejaVuSans-20" transform="scale(0.015625)"/>
      <path id="DejaVuSans-56" d="M 1831 0 
L 50 4666 
L 709 4666 
L 2188 738 
L 3669 4666 
L 4325 4666 
L 2547 0 
L 1831 0 
z
" transform="scale(0.015625)"/>
      <path id="DejaVuSans-69" d="M 603 3500 
L 1178 3500 
L 1178 0 
L 603 0 
L 603 3500 
z
M 603 4863 
L 1178 4863 
L 1178 4134 
L 603 4134 
L 603 4863 
z
" transform="scale(0.015625)"/>
      <path id="DejaVuSans-77" d="M 269 3500 
L 844 3500 
L 1563 769 
L 2278 3500 
L 2956 3500 
L 3675 769 
L 4391 3500 
L 4966 3500 
L 4050 0 
L 3372 0 
L 2619 2869 
L 1863 0 
L 1184 0 
L 269 3500 
z
" transform="scale(0.015625)"/>
      <path id="DejaVuSans-73" d="M 2834 3397 
L 2834 2853 
Q 2591 2978 2328 3040 
Q 2066 3103 1784 3103 
Q 1356 3103 1142 2972 
Q 928 2841 928 2578 
Q 928 2378 1081 2264 
Q 1234 2150 1697 2047 
L 1894 2003 
Q 2506 1872 2764 1633 
Q 3022 1394 3022 966 
Q 3022 478 2636 193 
Q 2250 -91 1575 -91 
Q 1294 -91 989 -36 
Q 684 19 347 128 
L 347 722 
Q 666 556 975 473 
Q 1284 391 1588 391 
Q 1994 391 2212 530 
Q 2431 669 2431 922 
Q 2431 1156 2273 1281 
Q 2116 1406 1581 1522 
L 1381 1569 
Q 847 1681 609 1914 
Q 372 2147 372 2553 
Q 372 3047 722 3315 
Q 1072 3584 1716 3584 
Q 2034 3584 2315 3537 
Q 2597 3491 2834 3397 
z
" transform="scale(0.015625)"/>
      <path id="DejaVuSans-3a" d="M 750 794 
L 1409 794 
L 1409 0 
L 750 0 
L 750 794 
z
M 750 3309 
L 1409 3309 
L 1409 2516 
L 750 2516 
L 750 3309 
z
" transform="scale(0.015625)"/>
     </defs>
     <use xlink:href="#DejaVuSans-54"/>
     <use xlink:href="#DejaVuSans-6f" transform="translate(44.083984 0)"/>
     <use xlink:href="#DejaVuSans-74" transform="translate(105.265625 0)"/>
     <use xlink:href="#DejaVuSans-61" transform="translate(144.474609 0)"/>
     <use xlink:href="#DejaVuSans-6c" transform="translate(205.753906 0)"/>
     <use xlink:href="#DejaVuSans-20" transform="translate(233.537109 0)"/>
     <use xlink:href="#DejaVuSans-56" transform="translate(265.324219 0)"/>
     <use xlink:href="#DejaVuSans-69" transform="translate(331.482422 0)"/>
     <use xlink:href="#DejaVuSans-65" transform="translate(359.265625 0)"/>
     <use xlink:href="#DejaVuSans-77" transform="translate(420.789062 0)"/>
     <use xlink:href="#DejaVuSans-73" transform="translate(502.576172 0)"/>
     <use xlink:href="#DejaVuSans-3a" transform="translate(554.675781 0)"/>
     <use xlink:href="#DejaVuSans-20" transform="translate(588.367188 0)"/>
     <use xlink:href="#DejaVuSans-31" transform="translate(620.154297 0)"/>
     <use xlink:href="#DejaVuSans-32" transform="translate(683.777344 0)"/>
     <use xlink:href="#DejaVuSans-34" transform="translate(747.400391 0)"/>
     <use xlink:href="#DejaVuSans-30" transform="translate(811.023438 0)"/>
    </g>
    <!-- Total Unique: 130 -->
    <g transform="translate(56.775725 58.878992) scale(0.09 -0.09)">
     <defs>
      <path id="DejaVuSans-55" d="M 556 4666 
L 1191 4666 
L 1191 1831 
Q 1191 1081 1462 751 
Q 1734 422 2344 422 
Q 2950 422 3222 751 
Q 3494 1081 3494 1831 
L 3494 4666 
L 4128 4666 
L 4128 1753 
Q 4128 841 3676 375 
Q 3225 -91 2344 -91 
Q 1459 -91 1007 375 
Q 556 841 556 1753 
L 556 4666 
z
" transform="scale(0.015625)"/>
      <path id="DejaVuSans-71" d="M 947 1747 
Q 947 1113 1208 752 
Q 1469 391 1925 391 
Q 2381 391 2643 752 
Q 2906 1113 2906 1747 
Q 2906 2381 2643 2742 
Q 2381 3103 1925 3103 
Q 1469 3103 1208 2742 
Q 947 2381 947 1747 
z
M 2906 525 
Q 2725 213 2448 61 
Q 2172 -91 1784 -91 
Q 1150 -91 751 415 
Q 353 922 353 1747 
Q 353 2572 751 3078 
Q 1150 3584 1784 3584 
Q 2172 3584 2448 3432 
Q 2725 3281 2906 2969 
L 2906 3500 
L 3481 3500 
L 3481 -1331 
L 2906 -1331 
L 2906 525 
z
" transform="scale(0.015625)"/>
     </defs>
     <use xlink:href="#DejaVuSans-54"/>
     <use xlink:href="#DejaVuSans-6f" transform="translate(44.083984 0)"/>
     <use xlink:href="#DejaVuSans-74" transform="translate(105.265625 0)"/>
     <use xlink:href="#DejaVuSans-61" transform="translate(144.474609 0)"/>
     <use xlink:href="#DejaVuSans-6c" transform="translate(205.753906 0)"/>
     <use xlink:href="#DejaVuSans-20" transform="translate(233.537109 0)"/>
     <use xlink:href="#DejaVuSans-55" transform="translate(265.324219 0)"/>
     <use xlink:href="#DejaVuSans-6e" transform="translate(338.517578 0)"/>
     <use xlink:href="#DejaVuSans-69" transform="translate(401.896484 0)"/>
     <use xlink:href="#DejaVuSans-71" transform="translate(429.679688 0)"/>
     <use xlink:href="#DejaVuSans-75" transform="translate(493.15625 0)"/>
     <use xlink:href="#DejaVuSans-65" transform="translate(556.535156 0)"/>
     <use xlink:href="#DejaVuSans-3a" transform="translate(618.058594 0)"/>
     <use xlink:href="#DejaVuSans-20" transform="translate(651.75 0)"/>
     <use xlink:href="#DejaVuSans-31" transform="translate(683.537109 0)"/>
     <use xlink:href="#DejaVuSans-33" transform="translate(747.160156 0)"/>
     <use xlink:href="#DejaVuSans-30" transform="translate(810.783203 0)"/>
    </g>
    <!-- Date Range: 2025-07-21 to 2025-12-05 -->
    <g transform="translate(56.775725 68.957024) scale(0.09 -0.09)">
     <defs>
      <path id="DejaVuSans-52" d="M 2841 2188 
Q 3044 2119 3236 1894 
Q 3428 1669 3622 1275 
L 4263 0 
L 3584 0 
L 2988 1197 
Q 2756 1666 2539 1819 
Q 2322 1972 1947 1972 
L 1259 1972 
L 1259 0 
L 628 0 
L 628 4666 
L 2053 4666 
Q 2853 4666 3247 4331 
Q 3641 3997 3641 3322 
Q 3641 2881 3436 2590 
Q 3231 2300 2841 2188 
z
M 1259 4147 
L 1259 2491 
L 2053 2491 
Q 2509 2491 2742 2702 
Q 2975 2913 2975 3322 
Q 2975 3731 2742 3939 
Q 2509 4147 2053 4147 
L 1259 4147 
z
" transform="scale(0.015625)"/>
      <path id="DejaVuSans-67" d="M 2906 1791 
Q 2906 2416 2648 2759 
Q 2391 3103 1925 3103 
Q 1463 3103 1205 2759 
Q 947 2416 947 1791 
Q 947 1169 1205 825 
Q 1463 481 1925 481 
Q 2391 481 2648 825 
Q 2906 1169 2906 1791 
z
M 3481 434 
Q 3481 -459 3084 -895 
Q 2688 -1331 1869 -1331 
Q 1566 -1331 1297 -1286 
Q 1028 -1241 775 -1147 
L 775 -588 
Q 1028 -725 1275 -790 
Q 1522 -856 1778 -856 
Q 2344 -856 2625 -561 
Q 2906 -266 2906 331 
L 2906 616 
Q 2728 306 2450 153 
Q 2172 0 1784 0 
Q 1141 0 747 490 
Q 353 981 353 1791 
Q 353 2603 747 3093 
Q 1141 3584 1784 3584 
Q 2172 3584 2450 3431 
Q 2728 3278 2906 2969 
L 2906 3500 
L 3481 3500 
L 3481 434 
z
" transform="scale(0.015625)"/>
     </defs>
     <use xlink:href="#DejaVuSans-44"/>
     <use xlink:href="#DejaVuSans-61" transform="translate(77.001953 0)"/>
     <use xlink:href="#DejaVuSans-74" transform="translate(138.28125 0)"/>
     <use xlink:href="#DejaVuSans-65" transform="translate(177.490234 0)"/>
     <use xlink:href="#DejaVuSans-20" transform="translate(239.013672 0)"/>
     <use xlink:href="#DejaVuSans-52" transform="translate(270.800781 0)"/>
     <use xlink:href="#DejaVuSans-61" transform="translate(338.033203 0)"/>
     <use xlink:href="#DejaVuSans-6e" transform="translate(399.3125 0)"/>
     <use xlink:href="#DejaVuSans-67" transform="translate(462.691406 0)"/>
     <use xlink:href="#DejaVuSans-65" transform="translate(526.167969 0)"/>
     <use xlink:href="#DejaVuSans-3a" transform="translate(587.691406 0)"/>
     <use xlink:href="#DejaVuSans-20" transform="translate(621.382812 0)"/>
     <use xlink:href="#DejaVuSans-32" transform="translate(653.169922 0)"/>
     <use xlink:href="#DejaVuSans-30" transform="translate(716.792969 0)"/>
     <use xlink:href="#DejaVuSans-32" transform="translate(780.416016 0)"/>
     <use xlink:href="#DejaVuSans-35" transform="translate(844.039062 0)"/>
     <use xlink:href="#DejaVuSans-2d" transform="translate(907.662109 0)"/>
     <use xlink:href="#DejaVuSans-30" transform="translate(943.746094 0)"/>
     <use xlink:href="#DejaVuSans-37" transform="translate(1007.369141 0)"/>
     <use xlink:href="#DejaVuSans-2d" transform="translate(1070.992188 0)"/>
     <use xlink:href="#DejaVuSans-32" transform="translate(1107.076172 0)"/>
     <use xlink:href="#DejaVuSans-31" transform="translate(1170.699219 0)"/>
     <use xlink:href="#DejaVuSans-20" transform="translate(1234.322266 0)"/>
     <use xlink:href="#DejaVuSans-74" transform="translate(1266.109375 0)"/>
     <use xlink:href="#DejaVuSans-6f" transform="translate(1305.318359 0)"/>
     <use xlink:href="#DejaVuSans-20" transform="translate(1366.5 0)"/>
     <use xlink:href="#DejaVuSans-32" transform="translate(1398.287109 0)"/>
     <use xlink:href="#DejaVuSans-30" transform="translate(1461.910156 0)"/>
     <use xlink:href="#DejaVuSans-32" transform="translate(1525.533203 0)"/>
     <use xlink:href="#DejaVuSans-35" transform="translate(1589.15625 0)"/>
     <use xlink:href="#DejaVuSans-2d" transform="translate(1652.779297 0)"/>
     <use xlink:href="#DejaVuSans-31" transform="translate(1688.863281 0)"/>
     <use xlink:href="#DejaVuSans-32" transform="translate(1752.486328 0)"/>
     <use xlink:href="#DejaVuSans-2d" transform="translate(1816.109375 0)"/>
     <use xlink:href="#DejaVuSans-30" transform="translate(1852.193359 0)"/>
     <use xlink:href="#DejaVuSans-35" transform="translate(1915.816406 0)"/>
    </g>
   </g>
   <g id="text_21">
    <!-- Views Traffic for blogg -->
    <g transform="translate(378.708125 16.318125) scale(0.12 -0.12)">
     <defs>
      <path id="DejaVuSans-72" d="M 2631 2963 
Q 2534 3019 2420 3045 
Q 2306 3072 2169 3072 
Q 1681 3072 1420 2755 
Q 1159 2438 1159 1844 
L 1159 0 
L 581 0 
L 581 3500 
L 1159 3500 
L 1159 2956 
Q 1341 3275 1631 3429 
Q 1922 3584 2338 3584 
Q 2397 3584 2469 3576 
Q 2541 3569 2628 3553 
L 2631 2963 
z
" transform="scale(0.015625)"/>
      <path id="DejaVuSans-66" d="M 2375 4863 
L 2375 4384 
L 1825 4384 
Q 1516 4384 1395 4259 
Q 1275 4134 1275 3809 
L 1275 3500 
L 2222 3500 
L 2222 3053 
L 1275 3053 
L 1275 0 
L 697 0 
L 697 3053 
L 147 3053 
L 147 3500 
L 697 3500 
L 697 3744 
Q 697 4328 969 4595 
Q 1241 4863 1831 4863 
L 2375 4863 
z
" transform="scale(0.015625)"/>
      <path id="DejaVuSans-63" d="M 3122 3366 
L 3122 2828 
Q 2878 2963 2633 3030 
Q 2388 3097 2138 3097 
Q 1578 3097 1268 2742 
Q 959 2388 959 1747 
Q 959 1106 1268 751 
Q 1578 397 2138 397 
Q 2388 397 2633 464 
Q 2878 531 3122 666 
L 3122 134 
Q 2881 22 2623 -34 
Q 2366 -91 2075 -91 
Q 1284 -91 818 406 
Q 353 903 353 1747 
Q 353 2603 823 3093 
Q 1294 3584 2113 3584 
Q 2378 3584 2631 3529 
Q 2884 3475 3122 3366 
z
" transform="scale(0.015625)"/>
      <path id="DejaVuSans-62" d="M 3116 1747 
Q 3116 2381 2855 2742 
Q 2594 3103 2138 3103 
Q 1681 3103 1420 2742 
Q 1159 2381 1159 1747 
Q 1159 1113 1420 752 
Q 1681 391 2138 391 
Q 2594 391 2855 752 
Q 3116 1113 3116 1747 
z
M 1159 2969 
Q 1341 3281 1617 3432 
Q 1894 3584 2278 3584 
Q 2916 3584 3314 3078 
Q 3713 2572 3713 1747 
Q 3713 922 3314 415 
Q 2916 -91 2278 -91 
Q 1894 -91 1617 61 
Q 1341 213 1159 525 
L 1159 0 
L 581 0 
L 581 4863 
L 1159 4863 
L 1159 2969 
z
" transform="scale(0.015625)"/>
     </defs>
     <use xlink:href="#DejaVuSans-56"/>
     <use xlink:href="#DejaVuSans-69" transform="translate(66.158203 0)"/>
     <use xlink:href="#DejaVuSans-65" transform="translate(93.941406 0)"/>
     <use xlink:href="#DejaVuSans-77" transform="translate(155.464844 0)"/>
     <use xlink:href="#DejaVuSans-73" transform="translate(237.251953 0)"/>
     <use xlink:href="#DejaVuSans-20" transform="translate(289.351562 0)"/>
     <use xlink:href="#DejaVuSans-54" transform="translate(321.138672 0)"/>
     <use xlink:href="#DejaVuSans-72" transform="translate(367.472656 0)"/>
     <use xlink:href="#DejaVuSans-61" transform="translate(408.585938 0)"/>
     <use xlink:href="#DejaVuSans-66" transform="translate(469.865234 0)"/>
     <use xlink:href="#DejaVuSans-66" transform="translate(505.070312 0)"/>
     <use xlink:href="#DejaVuSans-69" transform="translate(540.275391 0)"/>
     <use xlink:href="#DejaVuSans-63" transform="translate(568.058594 0)"/>
     <use xlink:href="#DejaVuSans-20" transform="translate(623.039062 0)"/>
     <use xlink:href="#DejaVuSans-66" transform="translate(654.826172 0)"/>
     <use xlink:href="#DejaVuSans-6f" transform="translate(690.03125 0)"/>
     <use xlink:href="#DejaVuSans-72" transform="translate(751.212891 0)"/>
     <use xlink:href="#DejaVuSans-20" transform="translate(792.326172 0)"/>
     <use xlink:href="#DejaVuSans-62" transform="translate(824.113281 0)"/>
     <use xlink:href="#DejaVuSans-6c" transform="translate(887.589844 0)"/>
     <use xlink:href="#DejaVuSans-6f" transform="translate(915.373047 0)"/>
     <use xlink:href="#DejaVuSans-67" transform="translate(976.554688 0)"/>
     <use xlink:href="#DejaVuSans-67" transform="translate(1040.03125 0)"/>
    </g>
    <!-- (86 data points, 98 including gap fills) -->
    <g transform="translate(330.816875 29.7555) scale(0.12 -0.12)">
     <defs>
      <path id="DejaVuSans-28" d="M 1984 4856 
Q 1566 4138 1362 3434 
Q 1159 2731 1159 2009 
Q 1159 1288 1364 580 
Q 1569 -128 1984 -844 
L 1484 -844 
Q 1016 -109 783 600 
Q 550 1309 550 2009 
Q 550 2706 781 3412 
Q 1013 4119 1484 4856 
L 1984 4856 
z
" transform="scale(0.015625)"/>
      <path id="DejaVuSans-64" d="M 2906 2969 
L 2906 4863 
L 3481 4863 
L 3481 0 
L 2906 0 
L 2906 525 
Q 2725 213 2448 61 
Q 2172 -91 1784 -91 
Q 1150 -91 751 415 
Q 353 922 353 1747 
Q 353 2572 751 3078 
Q 1150 3584 1784 3584 
Q 2172 3584 2448 3432 
Q 2725 3281 2906 2969 
z
M 947 1747 
Q 947 1113 1208 752 
Q 1469 391 1925 391 
Q 2381 391 2643 752 
Q 2906 1113 2906 1747 
Q 2906 2381 2643 2742 
Q 2381 3103 1925 3103 
Q 1469 3103 1208 2742 
Q 947 2381 947 1747 
z
" transform="scale(0.015625)"/>
      <path id="DejaVuSans-70" d="M 1159 525 
L 1159 -1331 
L 581 -1331 
L 581 3500 
L 1159 3500 
L 1159 2969 
Q 1341 3281 1617 3432 
Q 1894 3584 2278 3584 
Q 2916 3584 3314 3078 
Q 3713 2572 3713 1747 
Q 3713 922 3314 415 
Q 2916 -91 2278 -91 
Q 1894 -91 1617 61 
Q 1341 213 1159 525 
z
M 3116 1747 
Q 3116 2381 2855 2742 
Q 2594 3103 2138 3103 
Q 1681 3103 1420 2742 
Q 1159 2381 1159 1747 
Q 1159 1113 1420 752 
Q 1681 391 2138 391 
Q 2594 391 2855 752 
Q 3116 1113 3116 1747 
z
" transform="scale(0.015625)"/>
      <path id="DejaVuSans-2c" d="M 750 794 
L 1409 794 
L 1409 256 
L 897 -744 
L 494 -744 
L 750 256 
L 750 794 
z
" transform="scale(0.015625)"/>
      <path id="DejaVuSans-29" d="M 513 4856 
L 1013 4856 
Q 1481 4119 1714 3412 
Q 1947 2706 1947 2009 
Q 1947 1309 1714 600 
Q 1481 -109 1013 -844 
L 513 -844 
Q 928 -128 1133 580 
Q 1338 1288 1338 2009 
Q 1338 2731 1133 3434 
Q 928 4138 513 4856 
z
" transform="scale(0.015625)"/>
     </defs>
     <use xlink:href="#DejaVuSans-28"/>
     <use xlink:href="#DejaVuSans-38" transform="translate(39.013672 0)"/>
     <use xlink:href="#DejaVuSans-36" transform="translate(102.636719 0)"/>
     <use xlink:href="#DejaVuSans-20" transform="translate(166.259766 0)"/>
     <use xlink:href="#DejaVuSans-64" transform="translate(198.046875 0)"/>
     <use xlink:href="#DejaVuSans-61" transform="translate(261.523438 0)"/>
     <use xlink:href="#DejaVuSans-74" transform="translate(322.802734 0)"/>
     <use xlink:href="#DejaVuSans-61" transform="translate(362.011719 0)"/>
     <use xlink:href="#DejaVuSans-20" transform="translate(423.291016 0)"/>
     <use xlink:href="#DejaVuSans-70" transform="translate(455.078125 0)"/>
     <use xlink:href="#DejaVuSans-6f" transform="translate(518.554688 0)"/>
     <use xlink:href="#DejaVuSans-69" transform="translate(579.736328 0)"/>
     <use xlink:href="#DejaVuSans-6e" transform="translate(607.519531 0)"/>
     <use xlink:href="#DejaVuSans-74" transform="translate(670.898438 0)"/>
     <use xlink:href="#DejaVuSans-73" transform="translate(710.107422 0)"/>
     <use xlink:href="#DejaVuSans-2c" transform="translate(762.207031 0)"/>
     <use xlink:href="#DejaVuSans-20" transform="translate(793.994141 0)"/>
     <use xlink:href="#DejaVuSans-39" transform="translate(825.78125 0)"/>
     <use xlink:href="#DejaVuSans-38" transform="translate(889.404297 0)"/>
     <use xlink:href="#DejaVuSans-20" transform="translate(953.027344 0)"/>
     <use xlink:href="#DejaVuSans-69" transform="translate(984.814453 0)"/>
     <use xlink:href="#DejaVuSans-6e" transform="translate(1012.597656 0)"/>
     <use xlink:href="#DejaVuSans-63" transform="translate(1075.976562 0)"/>
     <use xlink:href="#DejaVuSans-6c" transform="translate(1130.957031 0)"/>
     <use xlink:href="#DejaVuSans-75" transform="translate(1158.740234 0)"/>
     <use xlink:href="#DejaVuSans-64" transform="translate(1222.119141 0)"/>
     <use xlink:href="#DejaVuSans-69" transform="translate(1285.595703 0)"/>
     <use xlink:href="#DejaVuSans-6e" transform="translate(1313.378906 0)"/>
     <use xlink:href="#DejaVuSans-67" transform="translate(1376.757812 0)"/>
     <use xlink:href="#DejaVuSans-20" transform="translate(1440.234375 0)"/>
     <use xlink:href="#DejaVuSans-67" transform="translate(1472.021484 0)"/>
     <use xlink:href="#DejaVuSans-61" transform="translate(1535.498047 0)"/>
     <use xlink:href="#DejaVuSans-70" transform="translate(1596.777344 0)"/>
     <use xlink:href="#DejaVuSans-20" transform="translate(1660.253906 0)"/>
     <use xlink:href="#DejaVuSans-66" transform="translate(1692.041016 0)"/>
     <use xlink:href="#DejaVuSans-69" transform="translate(1727.246094 0)"/>
     <use xlink:href="#DejaVuSans-6c" transform="translate(1755.029297 0)"/>
     <use xlink:href="#DejaVuSans-6c" transform="translate(1782.8125 0)"/>
     <use xlink:href="#DejaVuSans-73" transform="translate(1810.595703 0)"/>
     <use xlink:href="#DejaVuSans-29" transform="translate(1862.695312 0)"/>
    </g>
   </g>
   <g id="legend_1">
    <g id="patch_8">
     <path d="M 774.959688 73.11175 
L 842.233125 73.11175 
Q 844.233125 73.11175 844.233125 71.11175 
L 844.233125 42.7555 
Q 844.233125 40.7555 842.233125 40.7555 
L 774.959688 40.7555 
Q 772.959688 40.7555 772.959688 42.7555 
L 772.959688 71.11175 
Q 772.959688 73.11175 774.959688 73.11175 
z
" style="fill: #ffffff; opacity: 0.8; stroke: #cccccc; stroke-linejoin: miter"/>
    </g>
    <g id="line2d_37">
     <path d="M 776.959688 48.853937 
L 786.959688 48.853937 
L 796.959688 48.853937 
" style="fill: none; stroke: #1f77b4; stroke-width: 2; stroke-linecap: square"/>
     <g>
      <use xlink:href="#m93a2cbd814" x="786.959688" y="48.853937" style="fill: #1f77b4; stroke: #1f77b4"/>
     </g>
    </g>
    <g id="text_22">
     <!-- Count -->
     <g transform="translate(804.959688 52.353937) scale(0.1 -0.1)">
      <use xlink:href="#DejaVuSans-43"/>
      <use xlink:href="#DejaVuSans-6f" transform="translate(69.824219 0)"/>
      <use xlink:href="#DejaVuSans-75" transform="translate(131.005859 0)"/>
      <use xlink:href="#DejaVuSans-6e" transform="translate(194.384766 0)"/>
      <use xlink:href="#DejaVuSans-74" transform="translate(257.763672 0)"/>
     </g>
    </g>
    <g id="line2d_38">
     <path d="M 776.959688 63.532062 
L 786.959688 63.532062 
L 796.959688 63.532062 
" style="fill: none; stroke: #ff7f0e; stroke-width: 2; stroke-linecap: square"/>
     <g>
      <use xlink:href="#m940473ee0a" x="786.959688" y="63.532062" style="fill: #ff7f0e; stroke: #ff7f0e"/>
     </g>
    </g>
    <g id="text_23">
     <!-- Unique -->
     <g transform="translate(804.959688 67.032062) scale(0.1 -0.1)">
      <use xlink:href="#DejaVuSans-55"/>
      <use xlink:href="#DejaVuSans-6e" transform="translate(73.193359 0)"/>
      <use xlink:href="#DejaVuSans-69" transform="translate(136.572266 0)"/>
      <use xlink:href="#DejaVuSans-71" transform="translate(164.355469 0)"/>
      <use xlink:href="#DejaVuSans-75" transform="translate(227.832031 0)"/>
      <use xlink:href="#DejaVuSans-65" transform="translate(291.210938 0)"/>
     </g>
    </g>
   </g>
  </g>
 </g>
 <defs>
  <clipPath id="p59d26a2995">
   <rect x="40.603125" y="35.7555" width="808.63" height="310.343373"/>
  </clipPath>
 </defs>
</svg>
