<?xml version="1.0" encoding="utf-8" standalone="no"?>
<!DOCTYPE svg PUBLIC "-//W3C//DTD SVG 1.1//EN"
  "http://www.w3.org/Graphics/SVG/1.1/DTD/svg11.dtd">
<svg xmlns:xlink="http://www.w3.org/1999/xlink" width="856.495625pt" height="421.978058pt" viewBox="0 0 856.495625 421.978058" xmlns="http://www.w3.org/2000/svg" version="1.1">
 <metadata>
  <rdf:RDF xmlns:dc="http://purl.org/dc/elements/1.1/" xmlns:cc="http://creativecommons.org/ns#" xmlns:rdf="http://www.w3.org/1999/02/22-rdf-syntax-ns#">
   <cc:Work>
    <dc:type rdf:resource="http://purl.org/dc/dcmitype/StillImage"/>
    <dc:date>2025-10-24T16:44:32.816987</dc:date>
    <dc:format>image/svg+xml</dc:format>
    <dc:creator>
     <cc:Agent>
      <dc:title>Matplotlib v3.10.5, https://matplotlib.org/</dc:title>
     </cc:Agent>
    </dc:creator>
   </cc:Work>
  </rdf:RDF>
 </metadata>
 <defs>
  <style type="text/css">*{stroke-linejoin: round; stroke-linecap: butt}</style>
 </defs>
 <g id="figure_1">
  <g id="patch_1">
   <path d="M 0 421.978058 
L 856.495625 421.978058 
L 856.495625 0 
L 0 0 
z
" style="fill: #ffffff"/>
  </g>
  <g id="axes_1">
   <g id="patch_2">
    <path d="M 46.965625 346.162513 
L 849.295625 346.162513 
L 849.295625 35.7555 
L 46.965625 35.7555 
z
" style="fill: #ffffff"/>
   </g>
   <g id="matplotlib.axis_1">
    <g id="xtick_1">
     <g id="line2d_1">
      <path d="M 83.43517 346.162513 
L 83.43517 35.7555 
" clip-path="url(#p1affc38535)" style="fill: none; stroke: #b0b0b0; stroke-opacity: 0.3; stroke-width: 0.8; stroke-linecap: square"/>
     </g>
     <g id="line2d_2">
      <defs>
       <path id="m17f8656244" d="M 0 0 
L 0 3.5 
" style="stroke: #000000; stroke-width: 0.8"/>
      </defs>
      <g>
       <use xlink:href="#m17f8656244" x="83.43517" y="346.162513" style="stroke: #000000; stroke-width: 0.8"/>
      </g>
     </g>
     <g id="text_1">
      <!-- 2025-08-01 -->
      <g transform="translate(64.839367 399.629372) rotate(-45) scale(0.1 -0.1)">
       <defs>
        <path id="DejaVuSans-32" d="M 1228 531 
L 3431 531 
L 3431 0 
L 469 0 
L 469 531 
Q 828 903 1448 1529 
Q 2069 2156 2228 2338 
Q 2531 2678 2651 2914 
Q 2772 3150 2772 3378 
Q 2772 3750 2511 3984 
Q 2250 4219 1831 4219 
Q 1534 4219 1204 4116 
Q 875 4013 500 3803 
L 500 4441 
Q 881 4594 1212 4672 
Q 1544 4750 1819 4750 
Q 2544 4750 2975 4387 
Q 3406 4025 3406 3419 
Q 3406 3131 3298 2873 
Q 3191 2616 2906 2266 
Q 2828 2175 2409 1742 
Q 1991 1309 1228 531 
z
" transform="scale(0.015625)"/>
        <path id="DejaVuSans-30" d="M 2034 4250 
Q 1547 4250 1301 3770 
Q 1056 3291 1056 2328 
Q 1056 1369 1301 889 
Q 1547 409 2034 409 
Q 2525 409 2770 889 
Q 3016 1369 3016 2328 
Q 3016 3291 2770 3770 
Q 2525 4250 2034 4250 
z
M 2034 4750 
Q 2819 4750 3233 4129 
Q 3647 3509 3647 2328 
Q 3647 1150 3233 529 
Q 2819 -91 2034 -91 
Q 1250 -91 836 529 
Q 422 1150 422 2328 
Q 422 3509 836 4129 
Q 1250 4750 2034 4750 
z
" transform="scale(0.015625)"/>
        <path id="DejaVuSans-35" d="M 691 4666 
L 3169 4666 
L 3169 4134 
L 1269 4134 
L 1269 2991 
Q 1406 3038 1543 3061 
Q 1681 3084 1819 3084 
Q 2600 3084 3056 2656 
Q 3513 2228 3513 1497 
Q 3513 744 3044 326 
Q 2575 -91 1722 -91 
Q 1428 -91 1123 -41 
Q 819 9 494 109 
L 494 744 
Q 775 591 1075 516 
Q 1375 441 1709 441 
Q 2250 441 2565 725 
Q 2881 1009 2881 1497 
Q 2881 1984 2565 2268 
Q 2250 2553 1709 2553 
Q 1456 2553 1204 2497 
Q 953 2441 691 2322 
L 691 4666 
z
" transform="scale(0.015625)"/>
        <path id="DejaVuSans-2d" d="M 313 2009 
L 1997 2009 
L 1997 1497 
L 313 1497 
L 313 2009 
z
" transform="scale(0.015625)"/>
        <path id="DejaVuSans-38" d="M 2034 2216 
Q 1584 2216 1326 1975 
Q 1069 1734 1069 1313 
Q 1069 891 1326 650 
Q 1584 409 2034 409 
Q 2484 409 2743 651 
Q 3003 894 3003 1313 
Q 3003 1734 2745 1975 
Q 2488 2216 2034 2216 
z
M 1403 2484 
Q 997 2584 770 2862 
Q 544 3141 544 3541 
Q 544 4100 942 4425 
Q 1341 4750 2034 4750 
Q 2731 4750 3128 4425 
Q 3525 4100 3525 3541 
Q 3525 3141 3298 2862 
Q 3072 2584 2669 2484 
Q 3125 2378 3379 2068 
Q 3634 1759 3634 1313 
Q 3634 634 3220 271 
Q 2806 -91 2034 -91 
Q 1263 -91 848 271 
Q 434 634 434 1313 
Q 434 1759 690 2068 
Q 947 2378 1403 2484 
z
M 1172 3481 
Q 1172 3119 1398 2916 
Q 1625 2713 2034 2713 
Q 2441 2713 2670 2916 
Q 2900 3119 2900 3481 
Q 2900 3844 2670 4047 
Q 2441 4250 2034 4250 
Q 1625 4250 1398 4047 
Q 1172 3844 1172 3481 
z
" transform="scale(0.015625)"/>
        <path id="DejaVuSans-31" d="M 794 531 
L 1825 531 
L 1825 4091 
L 703 3866 
L 703 4441 
L 1819 4666 
L 2450 4666 
L 2450 531 
L 3481 531 
L 3481 0 
L 794 0 
L 794 531 
z
" transform="scale(0.015625)"/>
       </defs>
       <use xlink:href="#DejaVuSans-32"/>
       <use xlink:href="#DejaVuSans-30" transform="translate(63.623047 0)"/>
       <use xlink:href="#DejaVuSans-32" transform="translate(127.246094 0)"/>
       <use xlink:href="#DejaVuSans-35" transform="translate(190.869141 0)"/>
       <use xlink:href="#DejaVuSans-2d" transform="translate(254.492188 0)"/>
       <use xlink:href="#DejaVuSans-30" transform="translate(290.576172 0)"/>
       <use xlink:href="#DejaVuSans-38" transform="translate(354.199219 0)"/>
       <use xlink:href="#DejaVuSans-2d" transform="translate(417.822266 0)"/>
       <use xlink:href="#DejaVuSans-30" transform="translate(453.90625 0)"/>
       <use xlink:href="#DejaVuSans-31" transform="translate(517.529297 0)"/>
      </g>
     </g>
    </g>
    <g id="xtick_2">
     <g id="line2d_3">
      <path d="M 211.07858 346.162513 
L 211.07858 35.7555 
" clip-path="url(#p1affc38535)" style="fill: none; stroke: #b0b0b0; stroke-opacity: 0.3; stroke-width: 0.8; stroke-linecap: square"/>
     </g>
     <g id="line2d_4">
      <g>
       <use xlink:href="#m17f8656244" x="211.07858" y="346.162513" style="stroke: #000000; stroke-width: 0.8"/>
      </g>
     </g>
     <g id="text_2">
      <!-- 2025-08-15 -->
      <g transform="translate(192.482776 399.629372) rotate(-45) scale(0.1 -0.1)">
       <use xlink:href="#DejaVuSans-32"/>
       <use xlink:href="#DejaVuSans-30" transform="translate(63.623047 0)"/>
       <use xlink:href="#DejaVuSans-32" transform="translate(127.246094 0)"/>
       <use xlink:href="#DejaVuSans-35" transform="translate(190.869141 0)"/>
       <use xlink:href="#DejaVuSans-2d" transform="translate(254.492188 0)"/>
       <use xlink:href="#DejaVuSans-30" transform="translate(290.576172 0)"/>
       <use xlink:href="#DejaVuSans-38" transform="translate(354.199219 0)"/>
       <use xlink:href="#DejaVuSans-2d" transform="translate(417.822266 0)"/>
       <use xlink:href="#DejaVuSans-31" transform="translate(453.90625 0)"/>
       <use xlink:href="#DejaVuSans-35" transform="translate(517.529297 0)"/>
      </g>
     </g>
    </g>
    <g id="xtick_3">
     <g id="line2d_5">
      <path d="M 366.074148 346.162513 
L 366.074148 35.7555 
" clip-path="url(#p1affc38535)" style="fill: none; stroke: #b0b0b0; stroke-opacity: 0.3; stroke-width: 0.8; stroke-linecap: square"/>
     </g>
     <g id="line2d_6">
      <g>
       <use xlink:href="#m17f8656244" x="366.074148" y="346.162513" style="stroke: #000000; stroke-width: 0.8"/>
      </g>
     </g>
     <g id="text_3">
      <!-- 2025-09-01 -->
      <g transform="translate(347.478344 399.629372) rotate(-45) scale(0.1 -0.1)">
       <defs>
        <path id="DejaVuSans-39" d="M 703 97 
L 703 672 
Q 941 559 1184 500 
Q 1428 441 1663 441 
Q 2288 441 2617 861 
Q 2947 1281 2994 2138 
Q 2813 1869 2534 1725 
Q 2256 1581 1919 1581 
Q 1219 1581 811 2004 
Q 403 2428 403 3163 
Q 403 3881 828 4315 
Q 1253 4750 1959 4750 
Q 2769 4750 3195 4129 
Q 3622 3509 3622 2328 
Q 3622 1225 3098 567 
Q 2575 -91 1691 -91 
Q 1453 -91 1209 -44 
Q 966 3 703 97 
z
M 1959 2075 
Q 2384 2075 2632 2365 
Q 2881 2656 2881 3163 
Q 2881 3666 2632 3958 
Q 2384 4250 1959 4250 
Q 1534 4250 1286 3958 
Q 1038 3666 1038 3163 
Q 1038 2656 1286 2365 
Q 1534 2075 1959 2075 
z
" transform="scale(0.015625)"/>
       </defs>
       <use xlink:href="#DejaVuSans-32"/>
       <use xlink:href="#DejaVuSans-30" transform="translate(63.623047 0)"/>
       <use xlink:href="#DejaVuSans-32" transform="translate(127.246094 0)"/>
       <use xlink:href="#DejaVuSans-35" transform="translate(190.869141 0)"/>
       <use xlink:href="#DejaVuSans-2d" transform="translate(254.492188 0)"/>
       <use xlink:href="#DejaVuSans-30" transform="translate(290.576172 0)"/>
       <use xlink:href="#DejaVuSans-39" transform="translate(354.199219 0)"/>
       <use xlink:href="#DejaVuSans-2d" transform="translate(417.822266 0)"/>
       <use xlink:href="#DejaVuSans-30" transform="translate(453.90625 0)"/>
       <use xlink:href="#DejaVuSans-31" transform="translate(517.529297 0)"/>
      </g>
     </g>
    </g>
    <g id="xtick_4">
     <g id="line2d_7">
      <path d="M 493.717557 346.162513 
L 493.717557 35.7555 
" clip-path="url(#p1affc38535)" style="fill: none; stroke: #b0b0b0; stroke-opacity: 0.3; stroke-width: 0.8; stroke-linecap: square"/>
     </g>
     <g id="line2d_8">
      <g>
       <use xlink:href="#m17f8656244" x="493.717557" y="346.162513" style="stroke: #000000; stroke-width: 0.8"/>
      </g>
     </g>
     <g id="text_4">
      <!-- 2025-09-15 -->
      <g transform="translate(475.121753 399.629372) rotate(-45) scale(0.1 -0.1)">
       <use xlink:href="#DejaVuSans-32"/>
       <use xlink:href="#DejaVuSans-30" transform="translate(63.623047 0)"/>
       <use xlink:href="#DejaVuSans-32" transform="translate(127.246094 0)"/>
       <use xlink:href="#DejaVuSans-35" transform="translate(190.869141 0)"/>
       <use xlink:href="#DejaVuSans-2d" transform="translate(254.492188 0)"/>
       <use xlink:href="#DejaVuSans-30" transform="translate(290.576172 0)"/>
       <use xlink:href="#DejaVuSans-39" transform="translate(354.199219 0)"/>
       <use xlink:href="#DejaVuSans-2d" transform="translate(417.822266 0)"/>
       <use xlink:href="#DejaVuSans-31" transform="translate(453.90625 0)"/>
       <use xlink:href="#DejaVuSans-35" transform="translate(517.529297 0)"/>
      </g>
     </g>
    </g>
    <g id="xtick_5">
     <g id="line2d_9">
      <path d="M 639.595739 346.162513 
L 639.595739 35.7555 
" clip-path="url(#p1affc38535)" style="fill: none; stroke: #b0b0b0; stroke-opacity: 0.3; stroke-width: 0.8; stroke-linecap: square"/>
     </g>
     <g id="line2d_10">
      <g>
       <use xlink:href="#m17f8656244" x="639.595739" y="346.162513" style="stroke: #000000; stroke-width: 0.8"/>
      </g>
     </g>
     <g id="text_5">
      <!-- 2025-10-01 -->
      <g transform="translate(620.999935 399.629372) rotate(-45) scale(0.1 -0.1)">
       <use xlink:href="#DejaVuSans-32"/>
       <use xlink:href="#DejaVuSans-30" transform="translate(63.623047 0)"/>
       <use xlink:href="#DejaVuSans-32" transform="translate(127.246094 0)"/>
       <use xlink:href="#DejaVuSans-35" transform="translate(190.869141 0)"/>
       <use xlink:href="#DejaVuSans-2d" transform="translate(254.492188 0)"/>
       <use xlink:href="#DejaVuSans-31" transform="translate(290.576172 0)"/>
       <use xlink:href="#DejaVuSans-30" transform="translate(354.199219 0)"/>
       <use xlink:href="#DejaVuSans-2d" transform="translate(417.822266 0)"/>
       <use xlink:href="#DejaVuSans-30" transform="translate(453.90625 0)"/>
       <use xlink:href="#DejaVuSans-31" transform="translate(517.529297 0)"/>
      </g>
     </g>
    </g>
    <g id="xtick_6">
     <g id="line2d_11">
      <path d="M 767.239148 346.162513 
L 767.239148 35.7555 
" clip-path="url(#p1affc38535)" style="fill: none; stroke: #b0b0b0; stroke-opacity: 0.3; stroke-width: 0.8; stroke-linecap: square"/>
     </g>
     <g id="line2d_12">
      <g>
       <use xlink:href="#m17f8656244" x="767.239148" y="346.162513" style="stroke: #000000; stroke-width: 0.8"/>
      </g>
     </g>
     <g id="text_6">
      <!-- 2025-10-15 -->
      <g transform="translate(748.643344 399.629372) rotate(-45) scale(0.1 -0.1)">
       <use xlink:href="#DejaVuSans-32"/>
       <use xlink:href="#DejaVuSans-30" transform="translate(63.623047 0)"/>
       <use xlink:href="#DejaVuSans-32" transform="translate(127.246094 0)"/>
       <use xlink:href="#DejaVuSans-35" transform="translate(190.869141 0)"/>
       <use xlink:href="#DejaVuSans-2d" transform="translate(254.492188 0)"/>
       <use xlink:href="#DejaVuSans-31" transform="translate(290.576172 0)"/>
       <use xlink:href="#DejaVuSans-30" transform="translate(354.199219 0)"/>
       <use xlink:href="#DejaVuSans-2d" transform="translate(417.822266 0)"/>
       <use xlink:href="#DejaVuSans-31" transform="translate(453.90625 0)"/>
       <use xlink:href="#DejaVuSans-35" transform="translate(517.529297 0)"/>
      </g>
     </g>
    </g>
    <g id="text_7">
     <!-- Date -->
     <g transform="translate(436.179844 412.698371) scale(0.1 -0.1)">
      <defs>
       <path id="DejaVuSans-44" d="M 1259 4147 
L 1259 519 
L 2022 519 
Q 2988 519 3436 956 
Q 3884 1394 3884 2338 
Q 3884 3275 3436 3711 
Q 2988 4147 2022 4147 
L 1259 4147 
z
M 628 4666 
L 1925 4666 
Q 3281 4666 3915 4102 
Q 4550 3538 4550 2338 
Q 4550 1131 3912 565 
Q 3275 0 1925 0 
L 628 0 
L 628 4666 
z
" transform="scale(0.015625)"/>
       <path id="DejaVuSans-61" d="M 2194 1759 
Q 1497 1759 1228 1600 
Q 959 1441 959 1056 
Q 959 750 1161 570 
Q 1363 391 1709 391 
Q 2188 391 2477 730 
Q 2766 1069 2766 1631 
L 2766 1759 
L 2194 1759 
z
M 3341 1997 
L 3341 0 
L 2766 0 
L 2766 531 
Q 2569 213 2275 61 
Q 1981 -91 1556 -91 
Q 1019 -91 701 211 
Q 384 513 384 1019 
Q 384 1609 779 1909 
Q 1175 2209 1959 2209 
L 2766 2209 
L 2766 2266 
Q 2766 2663 2505 2880 
Q 2244 3097 1772 3097 
Q 1472 3097 1187 3025 
Q 903 2953 641 2809 
L 641 3341 
Q 956 3463 1253 3523 
Q 1550 3584 1831 3584 
Q 2591 3584 2966 3190 
Q 3341 2797 3341 1997 
z
" transform="scale(0.015625)"/>
       <path id="DejaVuSans-74" d="M 1172 4494 
L 1172 3500 
L 2356 3500 
L 2356 3053 
L 1172 3053 
L 1172 1153 
Q 1172 725 1289 603 
Q 1406 481 1766 481 
L 2356 481 
L 2356 0 
L 1766 0 
Q 1100 0 847 248 
Q 594 497 594 1153 
L 594 3053 
L 172 3053 
L 172 3500 
L 594 3500 
L 594 4494 
L 1172 4494 
z
" transform="scale(0.015625)"/>
       <path id="DejaVuSans-65" d="M 3597 1894 
L 3597 1613 
L 953 1613 
Q 991 1019 1311 708 
Q 1631 397 2203 397 
Q 2534 397 2845 478 
Q 3156 559 3463 722 
L 3463 178 
Q 3153 47 2828 -22 
Q 2503 -91 2169 -91 
Q 1331 -91 842 396 
Q 353 884 353 1716 
Q 353 2575 817 3079 
Q 1281 3584 2069 3584 
Q 2775 3584 3186 3129 
Q 3597 2675 3597 1894 
z
M 3022 2063 
Q 3016 2534 2758 2815 
Q 2500 3097 2075 3097 
Q 1594 3097 1305 2825 
Q 1016 2553 972 2059 
L 3022 2063 
z
" transform="scale(0.015625)"/>
      </defs>
      <use xlink:href="#DejaVuSans-44"/>
      <use xlink:href="#DejaVuSans-61" transform="translate(77.001953 0)"/>
      <use xlink:href="#DejaVuSans-74" transform="translate(138.28125 0)"/>
      <use xlink:href="#DejaVuSans-65" transform="translate(177.490234 0)"/>
     </g>
    </g>
   </g>
   <g id="matplotlib.axis_2">
    <g id="ytick_1">
     <g id="line2d_13">
      <path d="M 46.965625 332.053103 
L 849.295625 332.053103 
" clip-path="url(#p1affc38535)" style="fill: none; stroke: #b0b0b0; stroke-opacity: 0.3; stroke-width: 0.8; stroke-linecap: square"/>
     </g>
     <g id="line2d_14">
      <defs>
       <path id="m95b3ff37a1" d="M 0 0 
L -3.5 0 
" style="stroke: #000000; stroke-width: 0.8"/>
      </defs>
      <g>
       <use xlink:href="#m95b3ff37a1" x="46.965625" y="332.053103" style="stroke: #000000; stroke-width: 0.8"/>
      </g>
     </g>
     <g id="text_8">
      <!-- 0 -->
      <g transform="translate(33.603125 335.852322) scale(0.1 -0.1)">
       <use xlink:href="#DejaVuSans-30"/>
      </g>
     </g>
    </g>
    <g id="ytick_2">
     <g id="line2d_15">
      <path d="M 46.965625 287.961198 
L 849.295625 287.961198 
" clip-path="url(#p1affc38535)" style="fill: none; stroke: #b0b0b0; stroke-opacity: 0.3; stroke-width: 0.8; stroke-linecap: square"/>
     </g>
     <g id="line2d_16">
      <g>
       <use xlink:href="#m95b3ff37a1" x="46.965625" y="287.961198" style="stroke: #000000; stroke-width: 0.8"/>
      </g>
     </g>
     <g id="text_9">
      <!-- 20 -->
      <g transform="translate(27.240625 291.760417) scale(0.1 -0.1)">
       <use xlink:href="#DejaVuSans-32"/>
       <use xlink:href="#DejaVuSans-30" transform="translate(63.623047 0)"/>
      </g>
     </g>
    </g>
    <g id="ytick_3">
     <g id="line2d_17">
      <path d="M 46.965625 243.869293 
L 849.295625 243.869293 
" clip-path="url(#p1affc38535)" style="fill: none; stroke: #b0b0b0; stroke-opacity: 0.3; stroke-width: 0.8; stroke-linecap: square"/>
     </g>
     <g id="line2d_18">
      <g>
       <use xlink:href="#m95b3ff37a1" x="46.965625" y="243.869293" style="stroke: #000000; stroke-width: 0.8"/>
      </g>
     </g>
     <g id="text_10">
      <!-- 40 -->
      <g transform="translate(27.240625 247.668512) scale(0.1 -0.1)">
       <defs>
        <path id="DejaVuSans-34" d="M 2419 4116 
L 825 1625 
L 2419 1625 
L 2419 4116 
z
M 2253 4666 
L 3047 4666 
L 3047 1625 
L 3713 1625 
L 3713 1100 
L 3047 1100 
L 3047 0 
L 2419 0 
L 2419 1100 
L 313 1100 
L 313 1709 
L 2253 4666 
z
" transform="scale(0.015625)"/>
       </defs>
       <use xlink:href="#DejaVuSans-34"/>
       <use xlink:href="#DejaVuSans-30" transform="translate(63.623047 0)"/>
      </g>
     </g>
    </g>
    <g id="ytick_4">
     <g id="line2d_19">
      <path d="M 46.965625 199.777388 
L 849.295625 199.777388 
" clip-path="url(#p1affc38535)" style="fill: none; stroke: #b0b0b0; stroke-opacity: 0.3; stroke-width: 0.8; stroke-linecap: square"/>
     </g>
     <g id="line2d_20">
      <g>
       <use xlink:href="#m95b3ff37a1" x="46.965625" y="199.777388" style="stroke: #000000; stroke-width: 0.8"/>
      </g>
     </g>
     <g id="text_11">
      <!-- 60 -->
      <g transform="translate(27.240625 203.576606) scale(0.1 -0.1)">
       <defs>
        <path id="DejaVuSans-36" d="M 2113 2584 
Q 1688 2584 1439 2293 
Q 1191 2003 1191 1497 
Q 1191 994 1439 701 
Q 1688 409 2113 409 
Q 2538 409 2786 701 
Q 3034 994 3034 1497 
Q 3034 2003 2786 2293 
Q 2538 2584 2113 2584 
z
M 3366 4563 
L 3366 3988 
Q 3128 4100 2886 4159 
Q 2644 4219 2406 4219 
Q 1781 4219 1451 3797 
Q 1122 3375 1075 2522 
Q 1259 2794 1537 2939 
Q 1816 3084 2150 3084 
Q 2853 3084 3261 2657 
Q 3669 2231 3669 1497 
Q 3669 778 3244 343 
Q 2819 -91 2113 -91 
Q 1303 -91 875 529 
Q 447 1150 447 2328 
Q 447 3434 972 4092 
Q 1497 4750 2381 4750 
Q 2619 4750 2861 4703 
Q 3103 4656 3366 4563 
z
" transform="scale(0.015625)"/>
       </defs>
       <use xlink:href="#DejaVuSans-36"/>
       <use xlink:href="#DejaVuSans-30" transform="translate(63.623047 0)"/>
      </g>
     </g>
    </g>
    <g id="ytick_5">
     <g id="line2d_21">
      <path d="M 46.965625 155.685482 
L 849.295625 155.685482 
" clip-path="url(#p1affc38535)" style="fill: none; stroke: #b0b0b0; stroke-opacity: 0.3; stroke-width: 0.8; stroke-linecap: square"/>
     </g>
     <g id="line2d_22">
      <g>
       <use xlink:href="#m95b3ff37a1" x="46.965625" y="155.685482" style="stroke: #000000; stroke-width: 0.8"/>
      </g>
     </g>
     <g id="text_12">
      <!-- 80 -->
      <g transform="translate(27.240625 159.484701) scale(0.1 -0.1)">
       <use xlink:href="#DejaVuSans-38"/>
       <use xlink:href="#DejaVuSans-30" transform="translate(63.623047 0)"/>
      </g>
     </g>
    </g>
    <g id="ytick_6">
     <g id="line2d_23">
      <path d="M 46.965625 111.593577 
L 849.295625 111.593577 
" clip-path="url(#p1affc38535)" style="fill: none; stroke: #b0b0b0; stroke-opacity: 0.3; stroke-width: 0.8; stroke-linecap: square"/>
     </g>
     <g id="line2d_24">
      <g>
       <use xlink:href="#m95b3ff37a1" x="46.965625" y="111.593577" style="stroke: #000000; stroke-width: 0.8"/>
      </g>
     </g>
     <g id="text_13">
      <!-- 100 -->
      <g transform="translate(20.878125 115.392796) scale(0.1 -0.1)">
       <use xlink:href="#DejaVuSans-31"/>
       <use xlink:href="#DejaVuSans-30" transform="translate(63.623047 0)"/>
       <use xlink:href="#DejaVuSans-30" transform="translate(127.246094 0)"/>
      </g>
     </g>
    </g>
    <g id="ytick_7">
     <g id="line2d_25">
      <path d="M 46.965625 67.501672 
L 849.295625 67.501672 
" clip-path="url(#p1affc38535)" style="fill: none; stroke: #b0b0b0; stroke-opacity: 0.3; stroke-width: 0.8; stroke-linecap: square"/>
     </g>
     <g id="line2d_26">
      <g>
       <use xlink:href="#m95b3ff37a1" x="46.965625" y="67.501672" style="stroke: #000000; stroke-width: 0.8"/>
      </g>
     </g>
     <g id="text_14">
      <!-- 120 -->
      <g transform="translate(20.878125 71.300891) scale(0.1 -0.1)">
       <use xlink:href="#DejaVuSans-31"/>
       <use xlink:href="#DejaVuSans-32" transform="translate(63.623047 0)"/>
       <use xlink:href="#DejaVuSans-30" transform="translate(127.246094 0)"/>
      </g>
     </g>
    </g>
    <g id="text_15">
     <!-- Count -->
     <g transform="translate(14.798437 205.807444) rotate(-90) scale(0.1 -0.1)">
      <defs>
       <path id="DejaVuSans-43" d="M 4122 4306 
L 4122 3641 
Q 3803 3938 3442 4084 
Q 3081 4231 2675 4231 
Q 1875 4231 1450 3742 
Q 1025 3253 1025 2328 
Q 1025 1406 1450 917 
Q 1875 428 2675 428 
Q 3081 428 3442 575 
Q 3803 722 4122 1019 
L 4122 359 
Q 3791 134 3420 21 
Q 3050 -91 2638 -91 
Q 1578 -91 968 557 
Q 359 1206 359 2328 
Q 359 3453 968 4101 
Q 1578 4750 2638 4750 
Q 3056 4750 3426 4639 
Q 3797 4528 4122 4306 
z
" transform="scale(0.015625)"/>
       <path id="DejaVuSans-6f" d="M 1959 3097 
Q 1497 3097 1228 2736 
Q 959 2375 959 1747 
Q 959 1119 1226 758 
Q 1494 397 1959 397 
Q 2419 397 2687 759 
Q 2956 1122 2956 1747 
Q 2956 2369 2687 2733 
Q 2419 3097 1959 3097 
z
M 1959 3584 
Q 2709 3584 3137 3096 
Q 3566 2609 3566 1747 
Q 3566 888 3137 398 
Q 2709 -91 1959 -91 
Q 1206 -91 779 398 
Q 353 888 353 1747 
Q 353 2609 779 3096 
Q 1206 3584 1959 3584 
z
" transform="scale(0.015625)"/>
       <path id="DejaVuSans-75" d="M 544 1381 
L 544 3500 
L 1119 3500 
L 1119 1403 
Q 1119 906 1312 657 
Q 1506 409 1894 409 
Q 2359 409 2629 706 
Q 2900 1003 2900 1516 
L 2900 3500 
L 3475 3500 
L 3475 0 
L 2900 0 
L 2900 538 
Q 2691 219 2414 64 
Q 2138 -91 1772 -91 
Q 1169 -91 856 284 
Q 544 659 544 1381 
z
M 1991 3584 
L 1991 3584 
z
" transform="scale(0.015625)"/>
       <path id="DejaVuSans-6e" d="M 3513 2113 
L 3513 0 
L 2938 0 
L 2938 2094 
Q 2938 2591 2744 2837 
Q 2550 3084 2163 3084 
Q 1697 3084 1428 2787 
Q 1159 2491 1159 1978 
L 1159 0 
L 581 0 
L 581 3500 
L 1159 3500 
L 1159 2956 
Q 1366 3272 1645 3428 
Q 1925 3584 2291 3584 
Q 2894 3584 3203 3211 
Q 3513 2838 3513 2113 
z
" transform="scale(0.015625)"/>
      </defs>
      <use xlink:href="#DejaVuSans-43"/>
      <use xlink:href="#DejaVuSans-6f" transform="translate(69.824219 0)"/>
      <use xlink:href="#DejaVuSans-75" transform="translate(131.005859 0)"/>
      <use xlink:href="#DejaVuSans-6e" transform="translate(194.384766 0)"/>
      <use xlink:href="#DejaVuSans-74" transform="translate(257.763672 0)"/>
     </g>
    </g>
   </g>
   <g id="line2d_27">
    <path d="M 83.43517 298.984174 
L 92.552557 290.165793 
L 101.669943 329.848508 
L 110.78733 290.165793 
L 119.904716 268.119841 
L 129.022102 290.165793 
L 138.139489 263.71065 
L 147.256875 226.232531 
L 156.374261 49.86491 
L 165.491648 241.664698 
L 183.72642 197.572792 
L 192.843807 226.232531 
L 201.961193 283.552008 
L 211.07858 285.756603 
L 220.195966 254.892269 
L 229.313352 294.574984 
L 238.430739 292.370389 
L 247.548125 325.439318 
L 256.665511 329.848508 
L 265.782898 329.848508 
L 274.900284 279.142817 
L 284.01767 296.779579 
L 293.135057 329.848508 
L 302.252443 290.165793 
L 311.36983 312.211746 
L 320.487216 305.59796 
L 329.604602 274.733627 
L 343.280682 332.053103 
L 356.956761 259.30146 
L 366.074148 329.848508 
L 375.191534 329.848508 
L 384.30892 329.848508 
L 402.543693 307.802555 
L 411.66108 208.595769 
L 420.778466 274.733627 
L 429.895852 265.915245 
L 439.013239 279.142817 
L 448.130625 316.620937 
L 457.248011 301.18877 
L 466.365398 329.848508 
L 484.60017 310.007151 
L 502.834943 272.529031 
L 511.95233 274.733627 
L 521.069716 310.007151 
L 530.187102 321.030127 
L 539.304489 314.416341 
L 557.539261 314.416341 
L 566.656648 329.848508 
L 575.774034 323.234722 
L 584.89142 305.59796 
L 603.126193 329.848508 
L 612.24358 327.643913 
L 621.360966 318.825532 
L 639.595739 329.848508 
L 648.713125 314.416341 
L 671.506591 332.053103 
L 694.300057 325.439318 
L 703.417443 254.892269 
L 721.652216 329.848508 
L 730.769602 307.802555 
L 739.886989 301.18877 
L 758.121761 332.053103 
L 776.356534 329.848508 
L 790.032614 332.053103 
L 803.708693 314.416341 
L 812.82608 307.802555 
" clip-path="url(#p1affc38535)" style="fill: none; stroke: #1f77b4; stroke-width: 2; stroke-linecap: square"/>
    <defs>
     <path id="me0b945004f" d="M 0 2 
C 0.530406 2 1.03916 1.789267 1.414214 1.414214 
C 1.789267 1.03916 2 0.530406 2 0 
C 2 -0.530406 1.789267 -1.03916 1.414214 -1.414214 
C 1.03916 -1.789267 0.530406 -2 0 -2 
C -0.530406 -2 -1.03916 -1.789267 -1.414214 -1.414214 
C -1.789267 -1.03916 -2 -0.530406 -2 0 
C -2 0.530406 -1.789267 1.03916 -1.414214 1.414214 
C -1.03916 1.789267 -0.530406 2 0 2 
z
" style="stroke: #1f77b4"/>
    </defs>
    <g clip-path="url(#p1affc38535)">
     <use xlink:href="#me0b945004f" x="83.43517" y="298.984174" style="fill: #1f77b4; stroke: #1f77b4"/>
     <use xlink:href="#me0b945004f" x="92.552557" y="290.165793" style="fill: #1f77b4; stroke: #1f77b4"/>
     <use xlink:href="#me0b945004f" x="101.669943" y="329.848508" style="fill: #1f77b4; stroke: #1f77b4"/>
     <use xlink:href="#me0b945004f" x="110.78733" y="290.165793" style="fill: #1f77b4; stroke: #1f77b4"/>
     <use xlink:href="#me0b945004f" x="119.904716" y="268.119841" style="fill: #1f77b4; stroke: #1f77b4"/>
     <use xlink:href="#me0b945004f" x="129.022102" y="290.165793" style="fill: #1f77b4; stroke: #1f77b4"/>
     <use xlink:href="#me0b945004f" x="138.139489" y="263.71065" style="fill: #1f77b4; stroke: #1f77b4"/>
     <use xlink:href="#me0b945004f" x="147.256875" y="226.232531" style="fill: #1f77b4; stroke: #1f77b4"/>
     <use xlink:href="#me0b945004f" x="156.374261" y="49.86491" style="fill: #1f77b4; stroke: #1f77b4"/>
     <use xlink:href="#me0b945004f" x="165.491648" y="241.664698" style="fill: #1f77b4; stroke: #1f77b4"/>
     <use xlink:href="#me0b945004f" x="183.72642" y="197.572792" style="fill: #1f77b4; stroke: #1f77b4"/>
     <use xlink:href="#me0b945004f" x="192.843807" y="226.232531" style="fill: #1f77b4; stroke: #1f77b4"/>
     <use xlink:href="#me0b945004f" x="201.961193" y="283.552008" style="fill: #1f77b4; stroke: #1f77b4"/>
     <use xlink:href="#me0b945004f" x="211.07858" y="285.756603" style="fill: #1f77b4; stroke: #1f77b4"/>
     <use xlink:href="#me0b945004f" x="220.195966" y="254.892269" style="fill: #1f77b4; stroke: #1f77b4"/>
     <use xlink:href="#me0b945004f" x="229.313352" y="294.574984" style="fill: #1f77b4; stroke: #1f77b4"/>
     <use xlink:href="#me0b945004f" x="238.430739" y="292.370389" style="fill: #1f77b4; stroke: #1f77b4"/>
     <use xlink:href="#me0b945004f" x="247.548125" y="325.439318" style="fill: #1f77b4; stroke: #1f77b4"/>
     <use xlink:href="#me0b945004f" x="256.665511" y="329.848508" style="fill: #1f77b4; stroke: #1f77b4"/>
     <use xlink:href="#me0b945004f" x="265.782898" y="329.848508" style="fill: #1f77b4; stroke: #1f77b4"/>
     <use xlink:href="#me0b945004f" x="274.900284" y="279.142817" style="fill: #1f77b4; stroke: #1f77b4"/>
     <use xlink:href="#me0b945004f" x="284.01767" y="296.779579" style="fill: #1f77b4; stroke: #1f77b4"/>
     <use xlink:href="#me0b945004f" x="293.135057" y="329.848508" style="fill: #1f77b4; stroke: #1f77b4"/>
     <use xlink:href="#me0b945004f" x="302.252443" y="290.165793" style="fill: #1f77b4; stroke: #1f77b4"/>
     <use xlink:href="#me0b945004f" x="311.36983" y="312.211746" style="fill: #1f77b4; stroke: #1f77b4"/>
     <use xlink:href="#me0b945004f" x="320.487216" y="305.59796" style="fill: #1f77b4; stroke: #1f77b4"/>
     <use xlink:href="#me0b945004f" x="329.604602" y="274.733627" style="fill: #1f77b4; stroke: #1f77b4"/>
     <use xlink:href="#me0b945004f" x="343.280682" y="332.053103" style="fill: #1f77b4; stroke: #1f77b4"/>
     <use xlink:href="#me0b945004f" x="356.956761" y="259.30146" style="fill: #1f77b4; stroke: #1f77b4"/>
     <use xlink:href="#me0b945004f" x="366.074148" y="329.848508" style="fill: #1f77b4; stroke: #1f77b4"/>
     <use xlink:href="#me0b945004f" x="375.191534" y="329.848508" style="fill: #1f77b4; stroke: #1f77b4"/>
     <use xlink:href="#me0b945004f" x="384.30892" y="329.848508" style="fill: #1f77b4; stroke: #1f77b4"/>
     <use xlink:href="#me0b945004f" x="402.543693" y="307.802555" style="fill: #1f77b4; stroke: #1f77b4"/>
     <use xlink:href="#me0b945004f" x="411.66108" y="208.595769" style="fill: #1f77b4; stroke: #1f77b4"/>
     <use xlink:href="#me0b945004f" x="420.778466" y="274.733627" style="fill: #1f77b4; stroke: #1f77b4"/>
     <use xlink:href="#me0b945004f" x="429.895852" y="265.915245" style="fill: #1f77b4; stroke: #1f77b4"/>
     <use xlink:href="#me0b945004f" x="439.013239" y="279.142817" style="fill: #1f77b4; stroke: #1f77b4"/>
     <use xlink:href="#me0b945004f" x="448.130625" y="316.620937" style="fill: #1f77b4; stroke: #1f77b4"/>
     <use xlink:href="#me0b945004f" x="457.248011" y="301.18877" style="fill: #1f77b4; stroke: #1f77b4"/>
     <use xlink:href="#me0b945004f" x="466.365398" y="329.848508" style="fill: #1f77b4; stroke: #1f77b4"/>
     <use xlink:href="#me0b945004f" x="484.60017" y="310.007151" style="fill: #1f77b4; stroke: #1f77b4"/>
     <use xlink:href="#me0b945004f" x="502.834943" y="272.529031" style="fill: #1f77b4; stroke: #1f77b4"/>
     <use xlink:href="#me0b945004f" x="511.95233" y="274.733627" style="fill: #1f77b4; stroke: #1f77b4"/>
     <use xlink:href="#me0b945004f" x="521.069716" y="310.007151" style="fill: #1f77b4; stroke: #1f77b4"/>
     <use xlink:href="#me0b945004f" x="530.187102" y="321.030127" style="fill: #1f77b4; stroke: #1f77b4"/>
     <use xlink:href="#me0b945004f" x="539.304489" y="314.416341" style="fill: #1f77b4; stroke: #1f77b4"/>
     <use xlink:href="#me0b945004f" x="557.539261" y="314.416341" style="fill: #1f77b4; stroke: #1f77b4"/>
     <use xlink:href="#me0b945004f" x="566.656648" y="329.848508" style="fill: #1f77b4; stroke: #1f77b4"/>
     <use xlink:href="#me0b945004f" x="575.774034" y="323.234722" style="fill: #1f77b4; stroke: #1f77b4"/>
     <use xlink:href="#me0b945004f" x="584.89142" y="305.59796" style="fill: #1f77b4; stroke: #1f77b4"/>
     <use xlink:href="#me0b945004f" x="603.126193" y="329.848508" style="fill: #1f77b4; stroke: #1f77b4"/>
     <use xlink:href="#me0b945004f" x="612.24358" y="327.643913" style="fill: #1f77b4; stroke: #1f77b4"/>
     <use xlink:href="#me0b945004f" x="621.360966" y="318.825532" style="fill: #1f77b4; stroke: #1f77b4"/>
     <use xlink:href="#me0b945004f" x="639.595739" y="329.848508" style="fill: #1f77b4; stroke: #1f77b4"/>
     <use xlink:href="#me0b945004f" x="648.713125" y="314.416341" style="fill: #1f77b4; stroke: #1f77b4"/>
     <use xlink:href="#me0b945004f" x="671.506591" y="332.053103" style="fill: #1f77b4; stroke: #1f77b4"/>
     <use xlink:href="#me0b945004f" x="694.300057" y="325.439318" style="fill: #1f77b4; stroke: #1f77b4"/>
     <use xlink:href="#me0b945004f" x="703.417443" y="254.892269" style="fill: #1f77b4; stroke: #1f77b4"/>
     <use xlink:href="#me0b945004f" x="721.652216" y="329.848508" style="fill: #1f77b4; stroke: #1f77b4"/>
     <use xlink:href="#me0b945004f" x="730.769602" y="307.802555" style="fill: #1f77b4; stroke: #1f77b4"/>
     <use xlink:href="#me0b945004f" x="739.886989" y="301.18877" style="fill: #1f77b4; stroke: #1f77b4"/>
     <use xlink:href="#me0b945004f" x="758.121761" y="332.053103" style="fill: #1f77b4; stroke: #1f77b4"/>
     <use xlink:href="#me0b945004f" x="776.356534" y="329.848508" style="fill: #1f77b4; stroke: #1f77b4"/>
     <use xlink:href="#me0b945004f" x="790.032614" y="332.053103" style="fill: #1f77b4; stroke: #1f77b4"/>
     <use xlink:href="#me0b945004f" x="803.708693" y="314.416341" style="fill: #1f77b4; stroke: #1f77b4"/>
     <use xlink:href="#me0b945004f" x="812.82608" y="307.802555" style="fill: #1f77b4; stroke: #1f77b4"/>
    </g>
   </g>
   <g id="line2d_28">
    <path d="M 83.43517 329.848508 
L 92.552557 329.848508 
L 101.669943 329.848508 
L 110.78733 329.848508 
L 119.904716 329.848508 
L 129.022102 329.848508 
L 138.139489 329.848508 
L 147.256875 329.848508 
L 156.374261 327.643913 
L 165.491648 325.439318 
L 183.72642 327.643913 
L 192.843807 327.643913 
L 201.961193 329.848508 
L 211.07858 329.848508 
L 220.195966 329.848508 
L 229.313352 327.643913 
L 238.430739 327.643913 
L 247.548125 329.848508 
L 256.665511 329.848508 
L 265.782898 329.848508 
L 274.900284 329.848508 
L 284.01767 327.643913 
L 293.135057 329.848508 
L 302.252443 329.848508 
L 311.36983 329.848508 
L 320.487216 329.848508 
L 329.604602 329.848508 
L 343.280682 332.053103 
L 356.956761 329.848508 
L 366.074148 329.848508 
L 375.191534 329.848508 
L 384.30892 329.848508 
L 402.543693 329.848508 
L 411.66108 327.643913 
L 420.778466 329.848508 
L 429.895852 314.416341 
L 439.013239 327.643913 
L 448.130625 329.848508 
L 457.248011 329.848508 
L 466.365398 329.848508 
L 484.60017 329.848508 
L 502.834943 329.848508 
L 511.95233 329.848508 
L 521.069716 329.848508 
L 530.187102 329.848508 
L 539.304489 329.848508 
L 557.539261 329.848508 
L 566.656648 329.848508 
L 575.774034 329.848508 
L 584.89142 329.848508 
L 603.126193 329.848508 
L 612.24358 329.848508 
L 621.360966 329.848508 
L 639.595739 329.848508 
L 648.713125 327.643913 
L 671.506591 332.053103 
L 694.300057 329.848508 
L 703.417443 329.848508 
L 721.652216 329.848508 
L 730.769602 329.848508 
L 739.886989 329.848508 
L 758.121761 332.053103 
L 776.356534 329.848508 
L 790.032614 332.053103 
L 803.708693 329.848508 
L 812.82608 329.848508 
" clip-path="url(#p1affc38535)" style="fill: none; stroke: #ff7f0e; stroke-width: 2; stroke-linecap: square"/>
    <defs>
     <path id="m1532a97b49" d="M -2 2 
L 2 -2 
M -2 -2 
L 2 2 
" style="stroke: #ff7f0e"/>
    </defs>
    <g clip-path="url(#p1affc38535)">
     <use xlink:href="#m1532a97b49" x="83.43517" y="329.848508" style="fill: #ff7f0e; stroke: #ff7f0e"/>
     <use xlink:href="#m1532a97b49" x="92.552557" y="329.848508" style="fill: #ff7f0e; stroke: #ff7f0e"/>
     <use xlink:href="#m1532a97b49" x="101.669943" y="329.848508" style="fill: #ff7f0e; stroke: #ff7f0e"/>
     <use xlink:href="#m1532a97b49" x="110.78733" y="329.848508" style="fill: #ff7f0e; stroke: #ff7f0e"/>
     <use xlink:href="#m1532a97b49" x="119.904716" y="329.848508" style="fill: #ff7f0e; stroke: #ff7f0e"/>
     <use xlink:href="#m1532a97b49" x="129.022102" y="329.848508" style="fill: #ff7f0e; stroke: #ff7f0e"/>
     <use xlink:href="#m1532a97b49" x="138.139489" y="329.848508" style="fill: #ff7f0e; stroke: #ff7f0e"/>
     <use xlink:href="#m1532a97b49" x="147.256875" y="329.848508" style="fill: #ff7f0e; stroke: #ff7f0e"/>
     <use xlink:href="#m1532a97b49" x="156.374261" y="327.643913" style="fill: #ff7f0e; stroke: #ff7f0e"/>
     <use xlink:href="#m1532a97b49" x="165.491648" y="325.439318" style="fill: #ff7f0e; stroke: #ff7f0e"/>
     <use xlink:href="#m1532a97b49" x="183.72642" y="327.643913" style="fill: #ff7f0e; stroke: #ff7f0e"/>
     <use xlink:href="#m1532a97b49" x="192.843807" y="327.643913" style="fill: #ff7f0e; stroke: #ff7f0e"/>
     <use xlink:href="#m1532a97b49" x="201.961193" y="329.848508" style="fill: #ff7f0e; stroke: #ff7f0e"/>
     <use xlink:href="#m1532a97b49" x="211.07858" y="329.848508" style="fill: #ff7f0e; stroke: #ff7f0e"/>
     <use xlink:href="#m1532a97b49" x="220.195966" y="329.848508" style="fill: #ff7f0e; stroke: #ff7f0e"/>
     <use xlink:href="#m1532a97b49" x="229.313352" y="327.643913" style="fill: #ff7f0e; stroke: #ff7f0e"/>
     <use xlink:href="#m1532a97b49" x="238.430739" y="327.643913" style="fill: #ff7f0e; stroke: #ff7f0e"/>
     <use xlink:href="#m1532a97b49" x="247.548125" y="329.848508" style="fill: #ff7f0e; stroke: #ff7f0e"/>
     <use xlink:href="#m1532a97b49" x="256.665511" y="329.848508" style="fill: #ff7f0e; stroke: #ff7f0e"/>
     <use xlink:href="#m1532a97b49" x="265.782898" y="329.848508" style="fill: #ff7f0e; stroke: #ff7f0e"/>
     <use xlink:href="#m1532a97b49" x="274.900284" y="329.848508" style="fill: #ff7f0e; stroke: #ff7f0e"/>
     <use xlink:href="#m1532a97b49" x="284.01767" y="327.643913" style="fill: #ff7f0e; stroke: #ff7f0e"/>
     <use xlink:href="#m1532a97b49" x="293.135057" y="329.848508" style="fill: #ff7f0e; stroke: #ff7f0e"/>
     <use xlink:href="#m1532a97b49" x="302.252443" y="329.848508" style="fill: #ff7f0e; stroke: #ff7f0e"/>
     <use xlink:href="#m1532a97b49" x="311.36983" y="329.848508" style="fill: #ff7f0e; stroke: #ff7f0e"/>
     <use xlink:href="#m1532a97b49" x="320.487216" y="329.848508" style="fill: #ff7f0e; stroke: #ff7f0e"/>
     <use xlink:href="#m1532a97b49" x="329.604602" y="329.848508" style="fill: #ff7f0e; stroke: #ff7f0e"/>
     <use xlink:href="#m1532a97b49" x="343.280682" y="332.053103" style="fill: #ff7f0e; stroke: #ff7f0e"/>
     <use xlink:href="#m1532a97b49" x="356.956761" y="329.848508" style="fill: #ff7f0e; stroke: #ff7f0e"/>
     <use xlink:href="#m1532a97b49" x="366.074148" y="329.848508" style="fill: #ff7f0e; stroke: #ff7f0e"/>
     <use xlink:href="#m1532a97b49" x="375.191534" y="329.848508" style="fill: #ff7f0e; stroke: #ff7f0e"/>
     <use xlink:href="#m1532a97b49" x="384.30892" y="329.848508" style="fill: #ff7f0e; stroke: #ff7f0e"/>
     <use xlink:href="#m1532a97b49" x="402.543693" y="329.848508" style="fill: #ff7f0e; stroke: #ff7f0e"/>
     <use xlink:href="#m1532a97b49" x="411.66108" y="327.643913" style="fill: #ff7f0e; stroke: #ff7f0e"/>
     <use xlink:href="#m1532a97b49" x="420.778466" y="329.848508" style="fill: #ff7f0e; stroke: #ff7f0e"/>
     <use xlink:href="#m1532a97b49" x="429.895852" y="314.416341" style="fill: #ff7f0e; stroke: #ff7f0e"/>
     <use xlink:href="#m1532a97b49" x="439.013239" y="327.643913" style="fill: #ff7f0e; stroke: #ff7f0e"/>
     <use xlink:href="#m1532a97b49" x="448.130625" y="329.848508" style="fill: #ff7f0e; stroke: #ff7f0e"/>
     <use xlink:href="#m1532a97b49" x="457.248011" y="329.848508" style="fill: #ff7f0e; stroke: #ff7f0e"/>
     <use xlink:href="#m1532a97b49" x="466.365398" y="329.848508" style="fill: #ff7f0e; stroke: #ff7f0e"/>
     <use xlink:href="#m1532a97b49" x="484.60017" y="329.848508" style="fill: #ff7f0e; stroke: #ff7f0e"/>
     <use xlink:href="#m1532a97b49" x="502.834943" y="329.848508" style="fill: #ff7f0e; stroke: #ff7f0e"/>
     <use xlink:href="#m1532a97b49" x="511.95233" y="329.848508" style="fill: #ff7f0e; stroke: #ff7f0e"/>
     <use xlink:href="#m1532a97b49" x="521.069716" y="329.848508" style="fill: #ff7f0e; stroke: #ff7f0e"/>
     <use xlink:href="#m1532a97b49" x="530.187102" y="329.848508" style="fill: #ff7f0e; stroke: #ff7f0e"/>
     <use xlink:href="#m1532a97b49" x="539.304489" y="329.848508" style="fill: #ff7f0e; stroke: #ff7f0e"/>
     <use xlink:href="#m1532a97b49" x="557.539261" y="329.848508" style="fill: #ff7f0e; stroke: #ff7f0e"/>
     <use xlink:href="#m1532a97b49" x="566.656648" y="329.848508" style="fill: #ff7f0e; stroke: #ff7f0e"/>
     <use xlink:href="#m1532a97b49" x="575.774034" y="329.848508" style="fill: #ff7f0e; stroke: #ff7f0e"/>
     <use xlink:href="#m1532a97b49" x="584.89142" y="329.848508" style="fill: #ff7f0e; stroke: #ff7f0e"/>
     <use xlink:href="#m1532a97b49" x="603.126193" y="329.848508" style="fill: #ff7f0e; stroke: #ff7f0e"/>
     <use xlink:href="#m1532a97b49" x="612.24358" y="329.848508" style="fill: #ff7f0e; stroke: #ff7f0e"/>
     <use xlink:href="#m1532a97b49" x="621.360966" y="329.848508" style="fill: #ff7f0e; stroke: #ff7f0e"/>
     <use xlink:href="#m1532a97b49" x="639.595739" y="329.848508" style="fill: #ff7f0e; stroke: #ff7f0e"/>
     <use xlink:href="#m1532a97b49" x="648.713125" y="327.643913" style="fill: #ff7f0e; stroke: #ff7f0e"/>
     <use xlink:href="#m1532a97b49" x="671.506591" y="332.053103" style="fill: #ff7f0e; stroke: #ff7f0e"/>
     <use xlink:href="#m1532a97b49" x="694.300057" y="329.848508" style="fill: #ff7f0e; stroke: #ff7f0e"/>
     <use xlink:href="#m1532a97b49" x="703.417443" y="329.848508" style="fill: #ff7f0e; stroke: #ff7f0e"/>
     <use xlink:href="#m1532a97b49" x="721.652216" y="329.848508" style="fill: #ff7f0e; stroke: #ff7f0e"/>
     <use xlink:href="#m1532a97b49" x="730.769602" y="329.848508" style="fill: #ff7f0e; stroke: #ff7f0e"/>
     <use xlink:href="#m1532a97b49" x="739.886989" y="329.848508" style="fill: #ff7f0e; stroke: #ff7f0e"/>
     <use xlink:href="#m1532a97b49" x="758.121761" y="332.053103" style="fill: #ff7f0e; stroke: #ff7f0e"/>
     <use xlink:href="#m1532a97b49" x="776.356534" y="329.848508" style="fill: #ff7f0e; stroke: #ff7f0e"/>
     <use xlink:href="#m1532a97b49" x="790.032614" y="332.053103" style="fill: #ff7f0e; stroke: #ff7f0e"/>
     <use xlink:href="#m1532a97b49" x="803.708693" y="329.848508" style="fill: #ff7f0e; stroke: #ff7f0e"/>
     <use xlink:href="#m1532a97b49" x="812.82608" y="329.848508" style="fill: #ff7f0e; stroke: #ff7f0e"/>
    </g>
   </g>
   <g id="patch_3">
    <path d="M 46.965625 346.162513 
L 46.965625 35.7555 
" style="fill: none; stroke: #000000; stroke-width: 0.8; stroke-linejoin: miter; stroke-linecap: square"/>
   </g>
   <g id="patch_4">
    <path d="M 849.295625 346.162513 
L 849.295625 35.7555 
" style="fill: none; stroke: #000000; stroke-width: 0.8; stroke-linejoin: miter; stroke-linecap: square"/>
   </g>
   <g id="patch_5">
    <path d="M 46.965625 346.162513 
L 849.295625 346.162513 
" style="fill: none; stroke: #000000; stroke-width: 0.8; stroke-linejoin: miter; stroke-linecap: square"/>
   </g>
   <g id="patch_6">
    <path d="M 46.965625 35.7555 
L 849.295625 35.7555 
" style="fill: none; stroke: #000000; stroke-width: 0.8; stroke-linejoin: miter; stroke-linecap: square"/>
   </g>
   <g id="text_16">
    <g id="patch_7">
     <path d="M 63.012225 75.330015 
L 241.1616 75.330015 
Q 245.6616 75.330015 245.6616 70.830015 
L 245.6616 41.96364 
Q 245.6616 37.46364 241.1616 37.46364 
L 63.012225 37.46364 
Q 58.512225 37.46364 58.512225 41.96364 
L 58.512225 70.830015 
Q 58.512225 75.330015 63.012225 75.330015 
z
" style="fill: #ffffff; opacity: 0.8; stroke: #000000; stroke-linejoin: miter"/>
    </g>
    <!-- Total Views: 1102 -->
    <g transform="translate(63.012225 48.802234) scale(0.09 -0.09)">
     <defs>
      <path id="DejaVuSans-54" d="M -19 4666 
L 3928 4666 
L 3928 4134 
L 2272 4134 
L 2272 0 
L 1638 0 
L 1638 4134 
L -19 4134 
L -19 4666 
z
" transform="scale(0.015625)"/>
      <path id="DejaVuSans-6c" d="M 603 4863 
L 1178 4863 
L 1178 0 
L 603 0 
L 603 4863 
z
" transform="scale(0.015625)"/>
      <path id="DejaVuSans-20" transform="scale(0.015625)"/>
      <path id="DejaVuSans-56" d="M 1831 0 
L 50 4666 
L 709 4666 
L 2188 738 
L 3669 4666 
L 4325 4666 
L 2547 0 
L 1831 0 
z
" transform="scale(0.015625)"/>
      <path id="DejaVuSans-69" d="M 603 3500 
L 1178 3500 
L 1178 0 
L 603 0 
L 603 3500 
z
M 603 4863 
L 1178 4863 
L 1178 4134 
L 603 4134 
L 603 4863 
z
" transform="scale(0.015625)"/>
      <path id="DejaVuSans-77" d="M 269 3500 
L 844 3500 
L 1563 769 
L 2278 3500 
L 2956 3500 
L 3675 769 
L 4391 3500 
L 4966 3500 
L 4050 0 
L 3372 0 
L 2619 2869 
L 1863 0 
L 1184 0 
L 269 3500 
z
" transform="scale(0.015625)"/>
      <path id="DejaVuSans-73" d="M 2834 3397 
L 2834 2853 
Q 2591 2978 2328 3040 
Q 2066 3103 1784 3103 
Q 1356 3103 1142 2972 
Q 928 2841 928 2578 
Q 928 2378 1081 2264 
Q 1234 2150 1697 2047 
L 1894 2003 
Q 2506 1872 2764 1633 
Q 3022 1394 3022 966 
Q 3022 478 2636 193 
Q 2250 -91 1575 -91 
Q 1294 -91 989 -36 
Q 684 19 347 128 
L 347 722 
Q 666 556 975 473 
Q 1284 391 1588 391 
Q 1994 391 2212 530 
Q 2431 669 2431 922 
Q 2431 1156 2273 1281 
Q 2116 1406 1581 1522 
L 1381 1569 
Q 847 1681 609 1914 
Q 372 2147 372 2553 
Q 372 3047 722 3315 
Q 1072 3584 1716 3584 
Q 2034 3584 2315 3537 
Q 2597 3491 2834 3397 
z
" transform="scale(0.015625)"/>
      <path id="DejaVuSans-3a" d="M 750 794 
L 1409 794 
L 1409 0 
L 750 0 
L 750 794 
z
M 750 3309 
L 1409 3309 
L 1409 2516 
L 750 2516 
L 750 3309 
z
" transform="scale(0.015625)"/>
     </defs>
     <use xlink:href="#DejaVuSans-54"/>
     <use xlink:href="#DejaVuSans-6f" transform="translate(44.083984 0)"/>
     <use xlink:href="#DejaVuSans-74" transform="translate(105.265625 0)"/>
     <use xlink:href="#DejaVuSans-61" transform="translate(144.474609 0)"/>
     <use xlink:href="#DejaVuSans-6c" transform="translate(205.753906 0)"/>
     <use xlink:href="#DejaVuSans-20" transform="translate(233.537109 0)"/>
     <use xlink:href="#DejaVuSans-56" transform="translate(265.324219 0)"/>
     <use xlink:href="#DejaVuSans-69" transform="translate(331.482422 0)"/>
     <use xlink:href="#DejaVuSans-65" transform="translate(359.265625 0)"/>
     <use xlink:href="#DejaVuSans-77" transform="translate(420.789062 0)"/>
     <use xlink:href="#DejaVuSans-73" transform="translate(502.576172 0)"/>
     <use xlink:href="#DejaVuSans-3a" transform="translate(554.675781 0)"/>
     <use xlink:href="#DejaVuSans-20" transform="translate(588.367188 0)"/>
     <use xlink:href="#DejaVuSans-31" transform="translate(620.154297 0)"/>
     <use xlink:href="#DejaVuSans-31" transform="translate(683.777344 0)"/>
     <use xlink:href="#DejaVuSans-30" transform="translate(747.400391 0)"/>
     <use xlink:href="#DejaVuSans-32" transform="translate(811.023438 0)"/>
    </g>
    <!-- Total Unique: 80 -->
    <g transform="translate(63.012225 58.880265) scale(0.09 -0.09)">
     <defs>
      <path id="DejaVuSans-55" d="M 556 4666 
L 1191 4666 
L 1191 1831 
Q 1191 1081 1462 751 
Q 1734 422 2344 422 
Q 2950 422 3222 751 
Q 3494 1081 3494 1831 
L 3494 4666 
L 4128 4666 
L 4128 1753 
Q 4128 841 3676 375 
Q 3225 -91 2344 -91 
Q 1459 -91 1007 375 
Q 556 841 556 1753 
L 556 4666 
z
" transform="scale(0.015625)"/>
      <path id="DejaVuSans-71" d="M 947 1747 
Q 947 1113 1208 752 
Q 1469 391 1925 391 
Q 2381 391 2643 752 
Q 2906 1113 2906 1747 
Q 2906 2381 2643 2742 
Q 2381 3103 1925 3103 
Q 1469 3103 1208 2742 
Q 947 2381 947 1747 
z
M 2906 525 
Q 2725 213 2448 61 
Q 2172 -91 1784 -91 
Q 1150 -91 751 415 
Q 353 922 353 1747 
Q 353 2572 751 3078 
Q 1150 3584 1784 3584 
Q 2172 3584 2448 3432 
Q 2725 3281 2906 2969 
L 2906 3500 
L 3481 3500 
L 3481 -1331 
L 2906 -1331 
L 2906 525 
z
" transform="scale(0.015625)"/>
     </defs>
     <use xlink:href="#DejaVuSans-54"/>
     <use xlink:href="#DejaVuSans-6f" transform="translate(44.083984 0)"/>
     <use xlink:href="#DejaVuSans-74" transform="translate(105.265625 0)"/>
     <use xlink:href="#DejaVuSans-61" transform="translate(144.474609 0)"/>
     <use xlink:href="#DejaVuSans-6c" transform="translate(205.753906 0)"/>
     <use xlink:href="#DejaVuSans-20" transform="translate(233.537109 0)"/>
     <use xlink:href="#DejaVuSans-55" transform="translate(265.324219 0)"/>
     <use xlink:href="#DejaVuSans-6e" transform="translate(338.517578 0)"/>
     <use xlink:href="#DejaVuSans-69" transform="translate(401.896484 0)"/>
     <use xlink:href="#DejaVuSans-71" transform="translate(429.679688 0)"/>
     <use xlink:href="#DejaVuSans-75" transform="translate(493.15625 0)"/>
     <use xlink:href="#DejaVuSans-65" transform="translate(556.535156 0)"/>
     <use xlink:href="#DejaVuSans-3a" transform="translate(618.058594 0)"/>
     <use xlink:href="#DejaVuSans-20" transform="translate(651.75 0)"/>
     <use xlink:href="#DejaVuSans-38" transform="translate(683.537109 0)"/>
     <use xlink:href="#DejaVuSans-30" transform="translate(747.160156 0)"/>
    </g>
    <!-- Date Range: 2025-08-01 to 2025-10-20 -->
    <g transform="translate(63.012225 68.958297) scale(0.09 -0.09)">
     <defs>
      <path id="DejaVuSans-52" d="M 2841 2188 
Q 3044 2119 3236 1894 
Q 3428 1669 3622 1275 
L 4263 0 
L 3584 0 
L 2988 1197 
Q 2756 1666 2539 1819 
Q 2322 1972 1947 1972 
L 1259 1972 
L 1259 0 
L 628 0 
L 628 4666 
L 2053 4666 
Q 2853 4666 3247 4331 
Q 3641 3997 3641 3322 
Q 3641 2881 3436 2590 
Q 3231 2300 2841 2188 
z
M 1259 4147 
L 1259 2491 
L 2053 2491 
Q 2509 2491 2742 2702 
Q 2975 2913 2975 3322 
Q 2975 3731 2742 3939 
Q 2509 4147 2053 4147 
L 1259 4147 
z
" transform="scale(0.015625)"/>
      <path id="DejaVuSans-67" d="M 2906 1791 
Q 2906 2416 2648 2759 
Q 2391 3103 1925 3103 
Q 1463 3103 1205 2759 
Q 947 2416 947 1791 
Q 947 1169 1205 825 
Q 1463 481 1925 481 
Q 2391 481 2648 825 
Q 2906 1169 2906 1791 
z
M 3481 434 
Q 3481 -459 3084 -895 
Q 2688 -1331 1869 -1331 
Q 1566 -1331 1297 -1286 
Q 1028 -1241 775 -1147 
L 775 -588 
Q 1028 -725 1275 -790 
Q 1522 -856 1778 -856 
Q 2344 -856 2625 -561 
Q 2906 -266 2906 331 
L 2906 616 
Q 2728 306 2450 153 
Q 2172 0 1784 0 
Q 1141 0 747 490 
Q 353 981 353 1791 
Q 353 2603 747 3093 
Q 1141 3584 1784 3584 
Q 2172 3584 2450 3431 
Q 2728 3278 2906 2969 
L 2906 3500 
L 3481 3500 
L 3481 434 
z
" transform="scale(0.015625)"/>
     </defs>
     <use xlink:href="#DejaVuSans-44"/>
     <use xlink:href="#DejaVuSans-61" transform="translate(77.001953 0)"/>
     <use xlink:href="#DejaVuSans-74" transform="translate(138.28125 0)"/>
     <use xlink:href="#DejaVuSans-65" transform="translate(177.490234 0)"/>
     <use xlink:href="#DejaVuSans-20" transform="translate(239.013672 0)"/>
     <use xlink:href="#DejaVuSans-52" transform="translate(270.800781 0)"/>
     <use xlink:href="#DejaVuSans-61" transform="translate(338.033203 0)"/>
     <use xlink:href="#DejaVuSans-6e" transform="translate(399.3125 0)"/>
     <use xlink:href="#DejaVuSans-67" transform="translate(462.691406 0)"/>
     <use xlink:href="#DejaVuSans-65" transform="translate(526.167969 0)"/>
     <use xlink:href="#DejaVuSans-3a" transform="translate(587.691406 0)"/>
     <use xlink:href="#DejaVuSans-20" transform="translate(621.382812 0)"/>
     <use xlink:href="#DejaVuSans-32" transform="translate(653.169922 0)"/>
     <use xlink:href="#DejaVuSans-30" transform="translate(716.792969 0)"/>
     <use xlink:href="#DejaVuSans-32" transform="translate(780.416016 0)"/>
     <use xlink:href="#DejaVuSans-35" transform="translate(844.039062 0)"/>
     <use xlink:href="#DejaVuSans-2d" transform="translate(907.662109 0)"/>
     <use xlink:href="#DejaVuSans-30" transform="translate(943.746094 0)"/>
     <use xlink:href="#DejaVuSans-38" transform="translate(1007.369141 0)"/>
     <use xlink:href="#DejaVuSans-2d" transform="translate(1070.992188 0)"/>
     <use xlink:href="#DejaVuSans-30" transform="translate(1107.076172 0)"/>
     <use xlink:href="#DejaVuSans-31" transform="translate(1170.699219 0)"/>
     <use xlink:href="#DejaVuSans-20" transform="translate(1234.322266 0)"/>
     <use xlink:href="#DejaVuSans-74" transform="translate(1266.109375 0)"/>
     <use xlink:href="#DejaVuSans-6f" transform="translate(1305.318359 0)"/>
     <use xlink:href="#DejaVuSans-20" transform="translate(1366.5 0)"/>
     <use xlink:href="#DejaVuSans-32" transform="translate(1398.287109 0)"/>
     <use xlink:href="#DejaVuSans-30" transform="translate(1461.910156 0)"/>
     <use xlink:href="#DejaVuSans-32" transform="translate(1525.533203 0)"/>
     <use xlink:href="#DejaVuSans-35" transform="translate(1589.15625 0)"/>
     <use xlink:href="#DejaVuSans-2d" transform="translate(1652.779297 0)"/>
     <use xlink:href="#DejaVuSans-31" transform="translate(1688.863281 0)"/>
     <use xlink:href="#DejaVuSans-30" transform="translate(1752.486328 0)"/>
     <use xlink:href="#DejaVuSans-2d" transform="translate(1816.109375 0)"/>
     <use xlink:href="#DejaVuSans-32" transform="translate(1852.193359 0)"/>
     <use xlink:href="#DejaVuSans-30" transform="translate(1915.816406 0)"/>
    </g>
   </g>
   <g id="text_17">
    <!-- Views Traffic for outtakes -->
    <g transform="translate(372.756563 16.318125) scale(0.12 -0.12)">
     <defs>
      <path id="DejaVuSans-72" d="M 2631 2963 
Q 2534 3019 2420 3045 
Q 2306 3072 2169 3072 
Q 1681 3072 1420 2755 
Q 1159 2438 1159 1844 
L 1159 0 
L 581 0 
L 581 3500 
L 1159 3500 
L 1159 2956 
Q 1341 3275 1631 3429 
Q 1922 3584 2338 3584 
Q 2397 3584 2469 3576 
Q 2541 3569 2628 3553 
L 2631 2963 
z
" transform="scale(0.015625)"/>
      <path id="DejaVuSans-66" d="M 2375 4863 
L 2375 4384 
L 1825 4384 
Q 1516 4384 1395 4259 
Q 1275 4134 1275 3809 
L 1275 3500 
L 2222 3500 
L 2222 3053 
L 1275 3053 
L 1275 0 
L 697 0 
L 697 3053 
L 147 3053 
L 147 3500 
L 697 3500 
L 697 3744 
Q 697 4328 969 4595 
Q 1241 4863 1831 4863 
L 2375 4863 
z
" transform="scale(0.015625)"/>
      <path id="DejaVuSans-63" d="M 3122 3366 
L 3122 2828 
Q 2878 2963 2633 3030 
Q 2388 3097 2138 3097 
Q 1578 3097 1268 2742 
Q 959 2388 959 1747 
Q 959 1106 1268 751 
Q 1578 397 2138 397 
Q 2388 397 2633 464 
Q 2878 531 3122 666 
L 3122 134 
Q 2881 22 2623 -34 
Q 2366 -91 2075 -91 
Q 1284 -91 818 406 
Q 353 903 353 1747 
Q 353 2603 823 3093 
Q 1294 3584 2113 3584 
Q 2378 3584 2631 3529 
Q 2884 3475 3122 3366 
z
" transform="scale(0.015625)"/>
      <path id="DejaVuSans-6b" d="M 581 4863 
L 1159 4863 
L 1159 1991 
L 2875 3500 
L 3609 3500 
L 1753 1863 
L 3688 0 
L 2938 0 
L 1159 1709 
L 1159 0 
L 581 0 
L 581 4863 
z
" transform="scale(0.015625)"/>
     </defs>
     <use xlink:href="#DejaVuSans-56"/>
     <use xlink:href="#DejaVuSans-69" transform="translate(66.158203 0)"/>
     <use xlink:href="#DejaVuSans-65" transform="translate(93.941406 0)"/>
     <use xlink:href="#DejaVuSans-77" transform="translate(155.464844 0)"/>
     <use xlink:href="#DejaVuSans-73" transform="translate(237.251953 0)"/>
     <use xlink:href="#DejaVuSans-20" transform="translate(289.351562 0)"/>
     <use xlink:href="#DejaVuSans-54" transform="translate(321.138672 0)"/>
     <use xlink:href="#DejaVuSans-72" transform="translate(367.472656 0)"/>
     <use xlink:href="#DejaVuSans-61" transform="translate(408.585938 0)"/>
     <use xlink:href="#DejaVuSans-66" transform="translate(469.865234 0)"/>
     <use xlink:href="#DejaVuSans-66" transform="translate(505.070312 0)"/>
     <use xlink:href="#DejaVuSans-69" transform="translate(540.275391 0)"/>
     <use xlink:href="#DejaVuSans-63" transform="translate(568.058594 0)"/>
     <use xlink:href="#DejaVuSans-20" transform="translate(623.039062 0)"/>
     <use xlink:href="#DejaVuSans-66" transform="translate(654.826172 0)"/>
     <use xlink:href="#DejaVuSans-6f" transform="translate(690.03125 0)"/>
     <use xlink:href="#DejaVuSans-72" transform="translate(751.212891 0)"/>
     <use xlink:href="#DejaVuSans-20" transform="translate(792.326172 0)"/>
     <use xlink:href="#DejaVuSans-6f" transform="translate(824.113281 0)"/>
     <use xlink:href="#DejaVuSans-75" transform="translate(885.294922 0)"/>
     <use xlink:href="#DejaVuSans-74" transform="translate(948.673828 0)"/>
     <use xlink:href="#DejaVuSans-74" transform="translate(987.882812 0)"/>
     <use xlink:href="#DejaVuSans-61" transform="translate(1027.091797 0)"/>
     <use xlink:href="#DejaVuSans-6b" transform="translate(1088.371094 0)"/>
     <use xlink:href="#DejaVuSans-65" transform="translate(1142.65625 0)"/>
     <use xlink:href="#DejaVuSans-73" transform="translate(1204.179688 0)"/>
    </g>
    <!-- (62 data points, 66 including gap fills) -->
    <g transform="translate(334.029375 29.7555) scale(0.12 -0.12)">
     <defs>
      <path id="DejaVuSans-28" d="M 1984 4856 
Q 1566 4138 1362 3434 
Q 1159 2731 1159 2009 
Q 1159 1288 1364 580 
Q 1569 -128 1984 -844 
L 1484 -844 
Q 1016 -109 783 600 
Q 550 1309 550 2009 
Q 550 2706 781 3412 
Q 1013 4119 1484 4856 
L 1984 4856 
z
" transform="scale(0.015625)"/>
      <path id="DejaVuSans-64" d="M 2906 2969 
L 2906 4863 
L 3481 4863 
L 3481 0 
L 2906 0 
L 2906 525 
Q 2725 213 2448 61 
Q 2172 -91 1784 -91 
Q 1150 -91 751 415 
Q 353 922 353 1747 
Q 353 2572 751 3078 
Q 1150 3584 1784 3584 
Q 2172 3584 2448 3432 
Q 2725 3281 2906 2969 
z
M 947 1747 
Q 947 1113 1208 752 
Q 1469 391 1925 391 
Q 2381 391 2643 752 
Q 2906 1113 2906 1747 
Q 2906 2381 2643 2742 
Q 2381 3103 1925 3103 
Q 1469 3103 1208 2742 
Q 947 2381 947 1747 
z
" transform="scale(0.015625)"/>
      <path id="DejaVuSans-70" d="M 1159 525 
L 1159 -1331 
L 581 -1331 
L 581 3500 
L 1159 3500 
L 1159 2969 
Q 1341 3281 1617 3432 
Q 1894 3584 2278 3584 
Q 2916 3584 3314 3078 
Q 3713 2572 3713 1747 
Q 3713 922 3314 415 
Q 2916 -91 2278 -91 
Q 1894 -91 1617 61 
Q 1341 213 1159 525 
z
M 3116 1747 
Q 3116 2381 2855 2742 
Q 2594 3103 2138 3103 
Q 1681 3103 1420 2742 
Q 1159 2381 1159 1747 
Q 1159 1113 1420 752 
Q 1681 391 2138 391 
Q 2594 391 2855 752 
Q 3116 1113 3116 1747 
z
" transform="scale(0.015625)"/>
      <path id="DejaVuSans-2c" d="M 750 794 
L 1409 794 
L 1409 256 
L 897 -744 
L 494 -744 
L 750 256 
L 750 794 
z
" transform="scale(0.015625)"/>
      <path id="DejaVuSans-29" d="M 513 4856 
L 1013 4856 
Q 1481 4119 1714 3412 
Q 1947 2706 1947 2009 
Q 1947 1309 1714 600 
Q 1481 -109 1013 -844 
L 513 -844 
Q 928 -128 1133 580 
Q 1338 1288 1338 2009 
Q 1338 2731 1133 3434 
Q 928 4138 513 4856 
z
" transform="scale(0.015625)"/>
     </defs>
     <use xlink:href="#DejaVuSans-28"/>
     <use xlink:href="#DejaVuSans-36" transform="translate(39.013672 0)"/>
     <use xlink:href="#DejaVuSans-32" transform="translate(102.636719 0)"/>
     <use xlink:href="#DejaVuSans-20" transform="translate(166.259766 0)"/>
     <use xlink:href="#DejaVuSans-64" transform="translate(198.046875 0)"/>
     <use xlink:href="#DejaVuSans-61" transform="translate(261.523438 0)"/>
     <use xlink:href="#DejaVuSans-74" transform="translate(322.802734 0)"/>
     <use xlink:href="#DejaVuSans-61" transform="translate(362.011719 0)"/>
     <use xlink:href="#DejaVuSans-20" transform="translate(423.291016 0)"/>
     <use xlink:href="#DejaVuSans-70" transform="translate(455.078125 0)"/>
     <use xlink:href="#DejaVuSans-6f" transform="translate(518.554688 0)"/>
     <use xlink:href="#DejaVuSans-69" transform="translate(579.736328 0)"/>
     <use xlink:href="#DejaVuSans-6e" transform="translate(607.519531 0)"/>
     <use xlink:href="#DejaVuSans-74" transform="translate(670.898438 0)"/>
     <use xlink:href="#DejaVuSans-73" transform="translate(710.107422 0)"/>
     <use xlink:href="#DejaVuSans-2c" transform="translate(762.207031 0)"/>
     <use xlink:href="#DejaVuSans-20" transform="translate(793.994141 0)"/>
     <use xlink:href="#DejaVuSans-36" transform="translate(825.78125 0)"/>
     <use xlink:href="#DejaVuSans-36" transform="translate(889.404297 0)"/>
     <use xlink:href="#DejaVuSans-20" transform="translate(953.027344 0)"/>
     <use xlink:href="#DejaVuSans-69" transform="translate(984.814453 0)"/>
     <use xlink:href="#DejaVuSans-6e" transform="translate(1012.597656 0)"/>
     <use xlink:href="#DejaVuSans-63" transform="translate(1075.976562 0)"/>
     <use xlink:href="#DejaVuSans-6c" transform="translate(1130.957031 0)"/>
     <use xlink:href="#DejaVuSans-75" transform="translate(1158.740234 0)"/>
     <use xlink:href="#DejaVuSans-64" transform="translate(1222.119141 0)"/>
     <use xlink:href="#DejaVuSans-69" transform="translate(1285.595703 0)"/>
     <use xlink:href="#DejaVuSans-6e" transform="translate(1313.378906 0)"/>
     <use xlink:href="#DejaVuSans-67" transform="translate(1376.757812 0)"/>
     <use xlink:href="#DejaVuSans-20" transform="translate(1440.234375 0)"/>
     <use xlink:href="#DejaVuSans-67" transform="translate(1472.021484 0)"/>
     <use xlink:href="#DejaVuSans-61" transform="translate(1535.498047 0)"/>
     <use xlink:href="#DejaVuSans-70" transform="translate(1596.777344 0)"/>
     <use xlink:href="#DejaVuSans-20" transform="translate(1660.253906 0)"/>
     <use xlink:href="#DejaVuSans-66" transform="translate(1692.041016 0)"/>
     <use xlink:href="#DejaVuSans-69" transform="translate(1727.246094 0)"/>
     <use xlink:href="#DejaVuSans-6c" transform="translate(1755.029297 0)"/>
     <use xlink:href="#DejaVuSans-6c" transform="translate(1782.8125 0)"/>
     <use xlink:href="#DejaVuSans-73" transform="translate(1810.595703 0)"/>
     <use xlink:href="#DejaVuSans-29" transform="translate(1862.695312 0)"/>
    </g>
   </g>
   <g id="legend_1">
    <g id="patch_8">
     <path d="M 775.022188 73.11175 
L 842.295625 73.11175 
Q 844.295625 73.11175 844.295625 71.11175 
L 844.295625 42.7555 
Q 844.295625 40.7555 842.295625 40.7555 
L 775.022188 40.7555 
Q 773.022188 40.7555 773.022188 42.7555 
L 773.022188 71.11175 
Q 773.022188 73.11175 775.022188 73.11175 
z
" style="fill: #ffffff; opacity: 0.8; stroke: #cccccc; stroke-linejoin: miter"/>
    </g>
    <g id="line2d_29">
     <path d="M 777.022188 48.853937 
L 787.022188 48.853937 
L 797.022188 48.853937 
" style="fill: none; stroke: #1f77b4; stroke-width: 2; stroke-linecap: square"/>
     <g>
      <use xlink:href="#me0b945004f" x="787.022188" y="48.853937" style="fill: #1f77b4; stroke: #1f77b4"/>
     </g>
    </g>
    <g id="text_18">
     <!-- Count -->
     <g transform="translate(805.022188 52.353937) scale(0.1 -0.1)">
      <use xlink:href="#DejaVuSans-43"/>
      <use xlink:href="#DejaVuSans-6f" transform="translate(69.824219 0)"/>
      <use xlink:href="#DejaVuSans-75" transform="translate(131.005859 0)"/>
      <use xlink:href="#DejaVuSans-6e" transform="translate(194.384766 0)"/>
      <use xlink:href="#DejaVuSans-74" transform="translate(257.763672 0)"/>
     </g>
    </g>
    <g id="line2d_30">
     <path d="M 777.022188 63.532062 
L 787.022188 63.532062 
L 797.022188 63.532062 
" style="fill: none; stroke: #ff7f0e; stroke-width: 2; stroke-linecap: square"/>
     <g>
      <use xlink:href="#m1532a97b49" x="787.022188" y="63.532062" style="fill: #ff7f0e; stroke: #ff7f0e"/>
     </g>
    </g>
    <g id="text_19">
     <!-- Unique -->
     <g transform="translate(805.022188 67.032062) scale(0.1 -0.1)">
      <use xlink:href="#DejaVuSans-55"/>
      <use xlink:href="#DejaVuSans-6e" transform="translate(73.193359 0)"/>
      <use xlink:href="#DejaVuSans-69" transform="translate(136.572266 0)"/>
      <use xlink:href="#DejaVuSans-71" transform="translate(164.355469 0)"/>
      <use xlink:href="#DejaVuSans-75" transform="translate(227.832031 0)"/>
      <use xlink:href="#DejaVuSans-65" transform="translate(291.210938 0)"/>
     </g>
    </g>
   </g>
  </g>
 </g>
 <defs>
  <clipPath id="p1affc38535">
   <rect x="46.965625" y="35.7555" width="802.33" height="310.407013"/>
  </clipPath>
 </defs>
</svg>
